<svg width="534" height="267" viewBox="0 0 534 267" fill="none" xmlns="http://www.w3.org/2000/svg">
<rect y="177" width="90" height="90" rx="11" fill="#002651"/>
<rect x="444" width="90" height="90" rx="11" fill="#28C7FA"/>
<g filter="url(#filter0_d_528_738)">
<rect x="35" y="35" width="464" height="197" rx="10" fill="white"/>
</g>
<path d="M71.991 82V71.3988H73.1759V82H71.991ZM68.4365 71.6951V70.6194H76.7304V71.6951H68.4365ZM83.1797 82V79.5212H82.9926V76.5903C82.9926 75.9771 82.8315 75.5094 82.5094 75.1872C82.1872 74.8546 81.6883 74.6883 81.0127 74.6883C80.7009 74.6883 80.3839 74.6935 80.0617 74.7039C79.7499 74.7143 79.4485 74.7299 79.1575 74.7507C78.8769 74.7611 78.6275 74.7767 78.4092 74.7975V73.7685C78.6379 73.7477 78.8717 73.7269 79.1107 73.7062C79.3498 73.6854 79.594 73.675 79.8435 73.675C80.1033 73.6646 80.3527 73.6594 80.5918 73.6594C81.4336 73.6594 82.1092 73.7633 82.6185 73.9712C83.1381 74.1791 83.5175 74.5064 83.7565 74.9534C83.9956 75.3899 84.1151 75.9719 84.1151 76.6994V82H83.1797ZM80.3891 82.2183C79.8071 82.2183 79.2926 82.1143 78.8457 81.9065C78.3988 81.6986 78.0506 81.3972 77.8012 81.0022C77.5621 80.6073 77.4426 80.1292 77.4426 79.568C77.4426 79.0171 77.5673 78.5494 77.8168 78.1649C78.0766 77.7803 78.4456 77.4893 78.9237 77.2918C79.4122 77.084 79.9994 76.98 80.6853 76.98H83.1018V77.8687H80.6074C79.9526 77.8687 79.4485 78.0298 79.0952 78.352C78.7522 78.6638 78.5807 79.0743 78.5807 79.5836C78.5807 80.1032 78.7626 80.519 79.1263 80.8308C79.4901 81.1322 79.9838 81.2829 80.6074 81.2829C80.9919 81.2829 81.3609 81.2153 81.7143 81.0802C82.0676 80.9347 82.3638 80.6956 82.6029 80.3631C82.8419 80.0201 82.9719 79.5524 82.9926 78.96L83.3356 79.4433C83.294 80.0565 83.1485 80.5709 82.8991 80.9867C82.6497 81.392 82.3119 81.6986 81.8858 81.9065C81.4596 82.1143 80.9608 82.2183 80.3891 82.2183ZM89.6392 82.2338C88.5791 82.2338 87.7632 82.0052 87.1916 81.5479C86.6199 81.0802 86.3289 80.4566 86.3185 79.6771H87.4098C87.4306 80.072 87.6073 80.4306 87.9399 80.7528C88.2829 81.075 88.8493 81.2361 89.6392 81.2361C90.3771 81.2361 90.928 81.0854 91.2917 80.784C91.6659 80.4722 91.853 80.098 91.853 79.6615C91.853 79.2562 91.6971 78.9444 91.3853 78.7261C91.0839 78.4975 90.6421 78.352 90.0601 78.2896L89.1247 78.1961C88.3764 78.1129 87.7684 77.8843 87.3007 77.5101C86.8434 77.1255 86.6147 76.6007 86.6147 75.9355C86.6147 75.447 86.7395 75.0209 86.9889 74.6571C87.2383 74.2934 87.5865 74.0128 88.0334 73.8153C88.4907 73.6074 89.026 73.5035 89.6392 73.5035C90.5226 73.5035 91.2398 73.7114 91.7906 74.1271C92.3518 74.5428 92.6376 75.1352 92.648 75.9043H91.5567C91.5464 75.5094 91.3801 75.1768 91.0579 74.9066C90.7357 74.6364 90.2628 74.5012 89.6392 74.5012C88.9948 74.5012 88.5115 74.6416 88.1893 74.9222C87.8775 75.2028 87.7216 75.5458 87.7216 75.9511C87.7216 76.2941 87.8411 76.5799 88.0802 76.8086C88.3192 77.0268 88.6934 77.1619 89.2027 77.2139L90.1381 77.3074C90.9695 77.401 91.6451 77.64 92.1648 78.0246C92.6948 78.4091 92.9598 78.96 92.9598 79.6771C92.9598 80.1656 92.8195 80.6073 92.5389 81.0022C92.2687 81.3868 91.8841 81.6882 91.3853 81.9065C90.8864 82.1247 90.3044 82.2338 89.6392 82.2338ZM100.9 82L97.5791 78.1337H96.2384L100.151 73.7529H101.399L97.8909 77.666L97.9688 77.0268L102.272 82H100.9ZM95.2874 82V70.6194H96.4566V82H95.2874ZM106.356 82.2338C105.296 82.2338 104.48 82.0052 103.908 81.5479C103.336 81.0802 103.045 80.4566 103.035 79.6771H104.126C104.147 80.072 104.324 80.4306 104.656 80.7528C104.999 81.075 105.566 81.2361 106.356 81.2361C107.094 81.2361 107.644 81.0854 108.008 80.784C108.382 80.4722 108.57 80.098 108.57 79.6615C108.57 79.2562 108.414 78.9444 108.102 78.7261C107.8 78.4975 107.359 78.352 106.777 78.2896L105.841 78.1961C105.093 78.1129 104.485 77.8843 104.017 77.5101C103.56 77.1255 103.331 76.6007 103.331 75.9355C103.331 75.447 103.456 75.0209 103.705 74.6571C103.955 74.2934 104.303 74.0128 104.75 73.8153C105.207 73.6074 105.743 73.5035 106.356 73.5035C107.239 73.5035 107.956 73.7114 108.507 74.1271C109.068 74.5428 109.354 75.1352 109.365 75.9043H108.273C108.263 75.5094 108.097 75.1768 107.774 74.9066C107.452 74.6364 106.979 74.5012 106.356 74.5012C105.711 74.5012 105.228 74.6416 104.906 74.9222C104.594 75.2028 104.438 75.5458 104.438 75.9511C104.438 76.2941 104.558 76.5799 104.797 76.8086C105.036 77.0268 105.41 77.1619 105.919 77.2139L106.855 77.3074C107.686 77.401 108.362 77.64 108.881 78.0246C109.411 78.4091 109.676 78.96 109.676 79.6771C109.676 80.1656 109.536 80.6073 109.255 81.0022C108.985 81.3868 108.601 81.6882 108.102 81.9065C107.603 82.1247 107.021 82.2338 106.356 82.2338Z" fill="#4D4D4D"/>
<line x1="68" y1="96.5" x2="465" y2="96.5" stroke="#BFC9D3"/>
<path d="M74.766 134.265C73.7787 134.265 72.9212 134.088 72.1937 133.735C71.4662 133.382 70.8634 132.914 70.3853 132.332C69.9072 131.75 69.5486 131.116 69.3096 130.43C69.0705 129.744 68.951 129.074 68.951 128.419V128.138C68.951 127.442 69.0705 126.751 69.3096 126.065C69.559 125.368 69.928 124.74 70.4164 124.178C70.9049 123.617 71.5129 123.17 72.2405 122.838C72.968 122.495 73.8098 122.323 74.766 122.323C75.7326 122.323 76.5745 122.495 77.2916 122.838C78.0191 123.17 78.6271 123.617 79.1156 124.178C79.6041 124.74 79.9679 125.368 80.2069 126.065C80.4564 126.751 80.5811 127.442 80.5811 128.138V128.434C80.5811 129.089 80.4615 129.76 80.2225 130.445C79.9939 131.121 79.6353 131.75 79.1468 132.332C78.6687 132.914 78.0659 133.382 77.3384 133.735C76.6108 134.088 75.7534 134.265 74.766 134.265ZM74.766 133.174C75.4936 133.174 76.1431 133.044 76.7148 132.784C77.2864 132.514 77.7697 132.15 78.1646 131.693C78.5596 131.225 78.861 130.7 79.0688 130.118C79.2767 129.536 79.3806 128.928 79.3806 128.294C79.3806 127.629 79.2767 127.005 79.0688 126.423C78.861 125.841 78.5544 125.327 78.149 124.88C77.7541 124.423 77.2708 124.064 76.6992 123.804C76.1275 123.544 75.4832 123.414 74.766 123.414C74.0593 123.414 73.4201 123.544 72.8485 123.804C72.2768 124.064 71.7884 124.423 71.383 124.88C70.9881 125.327 70.6815 125.841 70.4632 126.423C70.2553 127.005 70.1514 127.629 70.1514 128.294C70.1514 128.928 70.2553 129.536 70.4632 130.118C70.6711 130.7 70.9725 131.225 71.3674 131.693C71.7624 132.15 72.2457 132.514 72.8173 132.784C73.3993 133.044 74.0489 133.174 74.766 133.174ZM87.2877 134.265C86.5601 134.265 85.9209 134.104 85.3701 133.782C84.8297 133.46 84.4035 133.007 84.0917 132.425C83.7903 131.843 83.6292 131.173 83.6084 130.414H83.967V134H83.0316V122.619H84.2009V128.31L83.7487 129.354C83.7695 128.523 83.9358 127.821 84.2476 127.25C84.5698 126.668 84.9959 126.226 85.526 125.924C86.0665 125.623 86.6797 125.472 87.3656 125.472C87.9684 125.472 88.5141 125.587 89.0026 125.815C89.491 126.044 89.9068 126.356 90.2497 126.751C90.6031 127.146 90.8682 127.603 91.0448 128.123C91.2319 128.632 91.3255 129.172 91.3255 129.744V129.962C91.3255 130.523 91.2319 131.064 91.0448 131.584C90.8578 132.093 90.5875 132.55 90.2342 132.955C89.8912 133.361 89.4703 133.683 88.9714 133.922C88.4725 134.151 87.9113 134.265 87.2877 134.265ZM87.1629 133.236C87.7865 133.236 88.3218 133.085 88.7687 132.784C89.2156 132.483 89.5586 132.077 89.7976 131.568C90.0367 131.059 90.1562 130.487 90.1562 129.853C90.1562 129.209 90.0315 128.637 89.7821 128.138C89.543 127.629 89.1948 127.229 88.7375 126.938C88.2906 126.647 87.7658 126.501 87.1629 126.501C86.6017 126.501 86.0924 126.626 85.6351 126.875C85.1778 127.125 84.8141 127.478 84.5438 127.936C84.284 128.382 84.1541 128.912 84.1541 129.526V130.29C84.1541 130.872 84.284 131.386 84.5438 131.833C84.8141 132.27 85.1778 132.612 85.6351 132.862C86.0924 133.111 86.6017 133.236 87.1629 133.236ZM92.1298 137.165V136.12H93.0652C93.4705 136.12 93.7771 136.001 93.985 135.762C94.2033 135.533 94.3124 135.2 94.3124 134.764V125.753H95.4349V134.546C95.4349 135.19 95.3465 135.704 95.1698 136.089C95.0035 136.474 94.7333 136.749 94.3592 136.915C93.985 137.082 93.4861 137.165 92.8625 137.165H92.1298ZM92.9717 126.688V125.753H95.4349V126.688H92.9717ZM94.5306 124.085C94.25 124.085 94.037 124.012 93.8915 123.867C93.7563 123.711 93.6888 123.518 93.6888 123.29C93.6888 123.061 93.7563 122.874 93.8915 122.728C94.037 122.573 94.25 122.495 94.5306 122.495C94.8113 122.495 95.0191 122.573 95.1542 122.728C95.2894 122.874 95.3569 123.061 95.3569 123.29C95.3569 123.518 95.2894 123.711 95.1542 123.867C95.0191 124.012 94.8113 124.085 94.5306 124.085ZM101.915 134.265C101.208 134.265 100.595 134.146 100.075 133.906C99.5554 133.657 99.1293 133.33 98.7967 132.924C98.4641 132.509 98.2147 132.046 98.0484 131.537C97.8925 131.028 97.8145 130.503 97.8145 129.962V129.744C97.8145 129.214 97.8925 128.694 98.0484 128.185C98.2147 127.676 98.4641 127.218 98.7967 126.813C99.1293 126.408 99.545 126.086 100.044 125.846C100.553 125.597 101.146 125.472 101.821 125.472C102.684 125.472 103.401 125.665 103.973 126.049C104.555 126.434 104.991 126.927 105.282 127.53C105.573 128.123 105.719 128.762 105.719 129.448V130.056H98.3446V129.152H104.908L104.612 129.604C104.612 128.99 104.503 128.455 104.284 127.998C104.076 127.53 103.765 127.166 103.349 126.907C102.944 126.636 102.434 126.501 101.821 126.501C101.177 126.501 100.641 126.652 100.215 126.953C99.7892 127.255 99.4671 127.655 99.2488 128.154C99.0409 128.653 98.937 129.219 98.937 129.853C98.937 130.477 99.0409 131.048 99.2488 131.568C99.4671 132.077 99.7944 132.483 100.231 132.784C100.678 133.085 101.239 133.236 101.915 133.236C102.632 133.236 103.214 133.075 103.661 132.753C104.108 132.42 104.383 132.03 104.487 131.584H105.578C105.474 132.134 105.256 132.612 104.924 133.018C104.591 133.413 104.17 133.719 103.661 133.938C103.151 134.156 102.569 134.265 101.915 134.265ZM111.446 134.265C110.75 134.265 110.142 134.146 109.622 133.906C109.113 133.657 108.687 133.324 108.344 132.909C108.001 132.483 107.741 132.015 107.564 131.506C107.398 130.996 107.315 130.482 107.315 129.962V129.744C107.315 129.214 107.398 128.699 107.564 128.201C107.741 127.691 108.001 127.234 108.344 126.829C108.687 126.413 109.113 126.086 109.622 125.846C110.142 125.597 110.739 125.472 111.415 125.472C112.101 125.472 112.709 125.597 113.239 125.846C113.779 126.096 114.216 126.449 114.548 126.907C114.881 127.364 115.078 127.904 115.141 128.528H114.018C113.925 127.956 113.655 127.483 113.208 127.109C112.771 126.725 112.173 126.532 111.415 126.532C110.76 126.532 110.214 126.683 109.778 126.985C109.352 127.276 109.03 127.676 108.811 128.185C108.593 128.684 108.484 129.24 108.484 129.853C108.484 130.456 108.593 131.017 108.811 131.537C109.03 132.046 109.357 132.457 109.793 132.768C110.23 133.07 110.781 133.221 111.446 133.221C111.955 133.221 112.397 133.132 112.771 132.955C113.156 132.768 113.462 132.519 113.691 132.207C113.93 131.895 114.07 131.552 114.112 131.178H115.234C115.193 131.802 114.995 132.347 114.642 132.815C114.299 133.272 113.852 133.631 113.301 133.891C112.75 134.14 112.132 134.265 111.446 134.265ZM120.371 134.094C119.8 134.094 119.306 134.01 118.89 133.844C118.475 133.678 118.152 133.397 117.924 133.002C117.695 132.597 117.581 132.056 117.581 131.381V123.149H118.703V131.552C118.703 132.03 118.833 132.399 119.093 132.659C119.353 132.909 119.722 133.033 120.2 133.033H121.681V134.094H120.371ZM116.1 126.642V125.753H121.681V126.642H116.1ZM124.376 134V125.753H125.53V134H124.376ZM123.051 126.688V125.753H125.53V126.688H123.051ZM124.626 124.225C124.345 124.225 124.132 124.152 123.987 124.007C123.852 123.851 123.784 123.659 123.784 123.43C123.784 123.201 123.852 123.014 123.987 122.869C124.132 122.713 124.345 122.635 124.626 122.635C124.907 122.635 125.114 122.713 125.25 122.869C125.385 123.014 125.452 123.201 125.452 123.43C125.452 123.659 125.385 123.851 125.25 124.007C125.114 124.152 124.907 124.225 124.626 124.225ZM130.438 134L127.539 125.753H128.739L131.608 134H130.438ZM130.75 134V133.049H132.231V134H130.75ZM131.389 134L133.899 125.753H135.053L132.496 134H131.389ZM140.433 134.265C139.726 134.265 139.113 134.146 138.593 133.906C138.073 133.657 137.647 133.33 137.315 132.924C136.982 132.509 136.733 132.046 136.566 131.537C136.411 131.028 136.333 130.503 136.333 129.962V129.744C136.333 129.214 136.411 128.694 136.566 128.185C136.733 127.676 136.982 127.218 137.315 126.813C137.647 126.408 138.063 126.086 138.562 125.846C139.071 125.597 139.664 125.472 140.339 125.472C141.202 125.472 141.919 125.665 142.491 126.049C143.073 126.434 143.509 126.927 143.8 127.53C144.091 128.123 144.237 128.762 144.237 129.448V130.056H136.863V129.152H143.426L143.13 129.604C143.13 128.99 143.021 128.455 142.802 127.998C142.595 127.53 142.283 127.166 141.867 126.907C141.462 126.636 140.952 126.501 140.339 126.501C139.695 126.501 139.16 126.652 138.733 126.953C138.307 127.255 137.985 127.655 137.767 128.154C137.559 128.653 137.455 129.219 137.455 129.853C137.455 130.477 137.559 131.048 137.767 131.568C137.985 132.077 138.313 132.483 138.749 132.784C139.196 133.085 139.757 133.236 140.433 133.236C141.15 133.236 141.732 133.075 142.179 132.753C142.626 132.42 142.901 132.03 143.005 131.584H144.096C143.992 132.134 143.774 132.612 143.442 133.018C143.109 133.413 142.688 133.719 142.179 133.938C141.67 134.156 141.088 134.265 140.433 134.265ZM149.091 134.234C148.031 134.234 147.215 134.005 146.643 133.548C146.072 133.08 145.781 132.457 145.77 131.677H146.862C146.882 132.072 147.059 132.431 147.392 132.753C147.735 133.075 148.301 133.236 149.091 133.236C149.829 133.236 150.38 133.085 150.744 132.784C151.118 132.472 151.305 132.098 151.305 131.662C151.305 131.256 151.149 130.944 150.837 130.726C150.536 130.497 150.094 130.352 149.512 130.29L148.577 130.196C147.828 130.113 147.22 129.884 146.753 129.51C146.295 129.126 146.067 128.601 146.067 127.936C146.067 127.447 146.191 127.021 146.441 126.657C146.69 126.293 147.038 126.013 147.485 125.815C147.943 125.607 148.478 125.503 149.091 125.503C149.974 125.503 150.692 125.711 151.242 126.127C151.804 126.543 152.089 127.135 152.1 127.904H151.009C150.998 127.509 150.832 127.177 150.51 126.907C150.187 126.636 149.715 126.501 149.091 126.501C148.447 126.501 147.963 126.642 147.641 126.922C147.329 127.203 147.173 127.546 147.173 127.951C147.173 128.294 147.293 128.58 147.532 128.809C147.771 129.027 148.145 129.162 148.654 129.214L149.59 129.307C150.421 129.401 151.097 129.64 151.617 130.025C152.147 130.409 152.412 130.96 152.412 131.677C152.412 132.166 152.271 132.607 151.991 133.002C151.721 133.387 151.336 133.688 150.837 133.906C150.338 134.125 149.756 134.234 149.091 134.234Z" fill="#4D4D4D"/>
<line x1="68" y1="148.5" x2="465" y2="148.5" stroke="#BFC9D3"/>
<path d="M74.7504 186.265C73.815 186.265 72.9836 186.109 72.2561 185.797C71.5389 185.486 70.9361 185.059 70.4476 184.519C69.9591 183.968 69.585 183.339 69.3251 182.633C69.0757 181.915 68.951 181.162 68.951 180.372V180.091C68.951 179.364 69.0705 178.657 69.3096 177.971C69.559 177.285 69.9176 176.667 70.3853 176.116C70.853 175.565 71.435 175.129 72.1313 174.806C72.8277 174.484 73.6176 174.323 74.501 174.323C75.426 174.323 76.2471 174.5 76.9642 174.853C77.6813 175.196 78.2582 175.679 78.6947 176.303C79.1416 176.927 79.4014 177.649 79.4742 178.47H78.2738C78.1906 177.805 77.9672 177.244 77.6034 176.786C77.25 176.329 76.8031 175.986 76.2627 175.757C75.7222 175.529 75.135 175.414 74.501 175.414C73.8358 175.414 73.233 175.534 72.6926 175.773C72.1521 176.012 71.6948 176.35 71.3207 176.786C70.9465 177.223 70.6555 177.737 70.4476 178.33C70.2501 178.912 70.1514 179.551 70.1514 180.247C70.1514 180.985 70.2553 181.661 70.4632 182.274C70.6711 182.877 70.9725 183.396 71.3674 183.833C71.7624 184.27 72.2405 184.607 72.8017 184.846C73.3733 185.085 74.0229 185.205 74.7504 185.205C75.6443 185.205 76.429 185.033 77.1045 184.69C77.7905 184.337 78.3205 183.875 78.6947 183.303L78.227 184.768V181.401H79.3495V184.238C78.861 184.872 78.227 185.371 77.4475 185.735C76.668 186.088 75.769 186.265 74.7504 186.265ZM74.3295 181.65V180.653H80.3628V181.65H74.3295ZM86.1631 186.265C85.4564 186.265 84.8328 186.146 84.2923 185.906C83.7623 185.657 83.3102 185.33 82.936 184.924C82.5722 184.509 82.2916 184.046 82.0941 183.537C81.9071 183.028 81.8135 182.508 81.8135 181.978V181.76C81.8135 181.229 81.9123 180.71 82.1097 180.201C82.3072 179.681 82.593 179.218 82.9672 178.813C83.3413 178.408 83.7934 178.086 84.3235 177.846C84.864 177.597 85.4772 177.472 86.1631 177.472C86.8595 177.472 87.4727 177.597 88.0027 177.846C88.5432 178.086 89.0005 178.408 89.3746 178.813C89.7488 179.218 90.0294 179.681 90.2165 180.201C90.414 180.71 90.5127 181.229 90.5127 181.76V181.978C90.5127 182.508 90.4192 183.028 90.2321 183.537C90.045 184.046 89.7644 184.509 89.3902 184.924C89.0265 185.33 88.5744 185.657 88.0339 185.906C87.4935 186.146 86.8699 186.265 86.1631 186.265ZM86.1631 185.221C86.8491 185.221 87.4259 185.07 87.8936 184.768C88.3717 184.457 88.7355 184.051 88.9849 183.552C89.2343 183.043 89.3591 182.482 89.3591 181.869C89.3591 181.245 89.2291 180.684 88.9693 180.185C88.7199 179.676 88.3561 179.276 87.878 178.985C87.3999 178.683 86.8283 178.532 86.1631 178.532C85.5083 178.532 84.9419 178.683 84.4638 178.985C83.9857 179.276 83.6168 179.676 83.3569 180.185C83.1075 180.684 82.9828 181.245 82.9828 181.869C82.9828 182.482 83.1075 183.043 83.3569 183.552C83.6064 184.051 83.9649 184.457 84.4326 184.768C84.9107 185.07 85.4876 185.221 86.1631 185.221ZM97.9171 186V183.521H97.73V180.59C97.73 179.977 97.5689 179.509 97.2467 179.187C96.9245 178.855 96.4256 178.688 95.7501 178.688C95.4383 178.688 95.1213 178.694 94.7991 178.704C94.4873 178.714 94.1859 178.73 93.8949 178.751C93.6143 178.761 93.3648 178.777 93.1466 178.797V177.769C93.3752 177.748 93.6091 177.727 93.8481 177.706C94.0871 177.685 94.3314 177.675 94.5808 177.675C94.8407 177.665 95.0901 177.659 95.3291 177.659C96.171 177.659 96.8466 177.763 97.3558 177.971C97.8755 178.179 98.2549 178.506 98.4939 178.953C98.7329 179.39 98.8525 179.972 98.8525 180.699V186H97.9171ZM95.1265 186.218C94.5445 186.218 94.03 186.114 93.5831 185.906C93.1362 185.699 92.788 185.397 92.5385 185.002C92.2995 184.607 92.18 184.129 92.18 183.568C92.18 183.017 92.3047 182.549 92.5541 182.165C92.814 181.78 93.1829 181.489 93.661 181.292C94.1495 181.084 94.7367 180.98 95.4227 180.98H97.8391V181.869H95.3447C94.69 181.869 94.1859 182.03 93.8325 182.352C93.4895 182.664 93.318 183.074 93.318 183.584C93.318 184.103 93.4999 184.519 93.8637 184.831C94.2275 185.132 94.7211 185.283 95.3447 185.283C95.7293 185.283 96.0982 185.215 96.4516 185.08C96.805 184.935 97.1012 184.696 97.3402 184.363C97.5793 184.02 97.7092 183.552 97.73 182.96L98.073 183.443C98.0314 184.056 97.8859 184.571 97.6365 184.987C97.387 185.392 97.0492 185.699 96.6231 185.906C96.197 186.114 95.6981 186.218 95.1265 186.218ZM101.851 186V174.619H103.02V186H101.851ZM100.651 175.57V174.619H103.02V175.57H100.651ZM108.655 186.234C107.595 186.234 106.779 186.005 106.207 185.548C105.635 185.08 105.344 184.457 105.334 183.677H106.425C106.446 184.072 106.623 184.431 106.955 184.753C107.298 185.075 107.865 185.236 108.655 185.236C109.393 185.236 109.943 185.085 110.307 184.784C110.681 184.472 110.868 184.098 110.868 183.662C110.868 183.256 110.713 182.944 110.401 182.726C110.099 182.497 109.658 182.352 109.076 182.29L108.14 182.196C107.392 182.113 106.784 181.884 106.316 181.51C105.859 181.126 105.63 180.601 105.63 179.936C105.63 179.447 105.755 179.021 106.004 178.657C106.254 178.293 106.602 178.013 107.049 177.815C107.506 177.607 108.041 177.503 108.655 177.503C109.538 177.503 110.255 177.711 110.806 178.127C111.367 178.543 111.653 179.135 111.663 179.904H110.572C110.562 179.509 110.396 179.177 110.073 178.907C109.751 178.636 109.278 178.501 108.655 178.501C108.01 178.501 107.527 178.642 107.205 178.922C106.893 179.203 106.737 179.546 106.737 179.951C106.737 180.294 106.857 180.58 107.096 180.809C107.335 181.027 107.709 181.162 108.218 181.214L109.154 181.307C109.985 181.401 110.661 181.64 111.18 182.025C111.71 182.409 111.975 182.96 111.975 183.677C111.975 184.166 111.835 184.607 111.554 185.002C111.284 185.387 110.9 185.688 110.401 185.906C109.902 186.125 109.32 186.234 108.655 186.234Z" fill="#4D4D4D"/>
<line x1="68" y1="200.5" x2="465" y2="200.5" stroke="#BFC9D3"/>
<defs>
<filter id="filter0_d_528_738" x="19" y="23" width="496" height="229" filterUnits="userSpaceOnUse" color-interpolation-filters="sRGB">
<feFlood flood-opacity="0" result="BackgroundImageFix"/>
<feColorMatrix in="SourceAlpha" type="matrix" values="0 0 0 0 0 0 0 0 0 0 0 0 0 0 0 0 0 0 127 0" result="hardAlpha"/>
<feOffset dy="4"/>
<feGaussianBlur stdDeviation="8"/>
<feComposite in2="hardAlpha" operator="out"/>
<feColorMatrix type="matrix" values="0 0 0 0 0.6875 0 0 0 0 0.6875 0 0 0 0 0.6875 0 0 0 0.25 0"/>
<feBlend mode="normal" in2="BackgroundImageFix" result="effect1_dropShadow_528_738"/>
<feBlend mode="normal" in="SourceGraphic" in2="effect1_dropShadow_528_738" result="shape"/>
</filter>
</defs>
</svg>
