<svg width="308" height="213" viewBox="0 0 308 213" fill="none" xmlns="http://www.w3.org/2000/svg">
<path d="M1 50C1 38.1866 1.00212 29.4272 1.90637 22.7015C2.80676 16.0045 4.58504 11.4738 8.02944 8.02944C11.4738 4.58504 16.0045 2.80676 22.7015 1.90637C29.4272 1.00212 38.1866 1 50 1H258C269.813 1 278.573 1.00212 285.299 1.90637C291.996 2.80676 296.526 4.58504 299.971 8.02944C303.415 11.4738 305.193 16.0045 306.094 22.7015C306.998 29.4272 307 38.1866 307 50V212H1V50Z" fill="white" stroke="#4D30AF" stroke-width="2"/>
<path d="M284.3 160.121L282.888 163.204L279.816 164.605L282.888 166.018L284.3 169.09L285.702 166.018L288.785 164.605L285.702 163.204M273.09 163.484L270.287 169.65L264.121 172.453L270.287 175.256L273.09 181.422L275.892 175.256L282.058 172.453L275.892 169.65M284.3 175.816L282.888 178.888L279.816 180.3L282.888 181.702L284.3 184.785L285.702 181.702L288.785 180.3L285.702 178.888" fill="url(#paint0_linear_736_2808)"/>
<path d="M23 24.7667C23 22.1341 25.1341 20 27.7667 20H233.782H255.77C257.831 20 258.595 22.7052 256.839 23.7837L252.596 26.3896C251.184 27.2567 250.324 28.7946 250.324 30.4514V64.2333C250.324 66.8659 248.19 69 245.557 69H27.7667C25.1341 69 23 66.8659 23 64.2333V24.7667Z" fill="#E3F3F8"/>
<path d="M231 41.5L226.8 46.5L225 44.5" stroke="#1E95BB" stroke-width="1.1875" stroke-linecap="round" stroke-linejoin="round"/>
<path d="M232.5 38H223.5C222.672 38 222 38.6716 222 39.5V48.5C222 49.3284 222.672 50 223.5 50H232.5C233.328 50 234 49.3284 234 48.5V39.5C234 38.6716 233.328 38 232.5 38Z" stroke="#1E95BB" stroke-width="1.1875" stroke-linejoin="round"/>
<path d="M41.524 48.221C40.7267 48.221 40.055 48.0953 39.509 47.844C38.963 47.584 38.547 47.2287 38.261 46.778C37.9837 46.3187 37.845 45.803 37.845 45.231H38.833C38.833 45.595 38.9197 45.9373 39.093 46.258C39.275 46.57 39.561 46.8257 39.951 47.025C40.3497 47.2157 40.874 47.311 41.524 47.311C42.122 47.311 42.616 47.2243 43.006 47.051C43.4047 46.8777 43.6993 46.6437 43.89 46.349C44.0893 46.0543 44.189 45.725 44.189 45.361C44.189 44.9017 44.007 44.5203 43.643 44.217C43.2877 43.905 42.7503 43.7187 42.031 43.658L40.939 43.554C40.1243 43.4847 39.4743 43.2333 38.989 42.8C38.5123 42.358 38.274 41.7773 38.274 41.058C38.274 40.512 38.404 40.031 38.664 39.615C38.924 39.199 39.2923 38.8697 39.769 38.627C40.2543 38.3843 40.835 38.263 41.511 38.263C42.1957 38.263 42.7807 38.3887 43.266 38.64C43.76 38.8827 44.137 39.2207 44.397 39.654C44.657 40.0873 44.787 40.59 44.787 41.162H43.799C43.799 40.8153 43.721 40.4903 43.565 40.187C43.409 39.8837 43.162 39.641 42.824 39.459C42.486 39.2683 42.0483 39.173 41.511 39.173C40.9997 39.173 40.575 39.2597 40.237 39.433C39.9077 39.6063 39.6607 39.836 39.496 40.122C39.34 40.408 39.262 40.72 39.262 41.058C39.262 41.4827 39.4137 41.8423 39.717 42.137C40.0203 42.4317 40.458 42.6007 41.03 42.644L42.122 42.748C42.7633 42.8 43.3093 42.943 43.76 43.177C44.2193 43.4023 44.5703 43.7013 44.813 44.074C45.0557 44.438 45.177 44.867 45.177 45.361C45.177 45.9157 45.0253 46.4097 44.722 46.843C44.4273 47.2763 44.007 47.6143 43.461 47.857C42.915 48.0997 42.2693 48.221 41.524 48.221ZM50.2245 48.221C49.6438 48.221 49.1368 48.1213 48.7035 47.922C48.2788 47.714 47.9235 47.4367 47.6375 47.09C47.3515 46.7347 47.1348 46.3447 46.9875 45.92C46.8488 45.4953 46.7795 45.0663 46.7795 44.633V44.451C46.7795 44.009 46.8488 43.58 46.9875 43.164C47.1348 42.7393 47.3515 42.358 47.6375 42.02C47.9235 41.6733 48.2788 41.4003 48.7035 41.201C49.1368 40.993 49.6351 40.889 50.1985 40.889C50.7705 40.889 51.2775 40.993 51.7195 41.201C52.1701 41.409 52.5341 41.7037 52.8115 42.085C53.0888 42.4663 53.2535 42.917 53.3055 43.437H52.3695C52.2915 42.9603 52.0661 42.566 51.6935 42.254C51.3295 41.9333 50.8311 41.773 50.1985 41.773C49.6525 41.773 49.1975 41.8987 48.8335 42.15C48.4781 42.3927 48.2095 42.7263 48.0275 43.151C47.8455 43.567 47.7545 44.0307 47.7545 44.542C47.7545 45.0447 47.8455 45.5127 48.0275 45.946C48.2095 46.3707 48.4825 46.713 48.8465 46.973C49.2105 47.2243 49.6698 47.35 50.2245 47.35C50.6491 47.35 51.0175 47.2763 51.3295 47.129C51.6501 46.973 51.9058 46.765 52.0965 46.505C52.2958 46.245 52.4128 45.959 52.4475 45.647H53.3835C53.3488 46.167 53.1841 46.622 52.8895 47.012C52.6035 47.3933 52.2308 47.6923 51.7715 47.909C51.3121 48.117 50.7965 48.221 50.2245 48.221ZM55.1712 48V38.51H56.1462V43.879L55.8602 44.1C55.8602 43.4587 55.9512 42.8997 56.1332 42.423C56.3238 41.9463 56.6055 41.578 56.9782 41.318C57.3595 41.0493 57.8362 40.915 58.4082 40.915H58.4602C59.2922 40.915 59.9205 41.188 60.3452 41.734C60.7785 42.28 60.9952 43.0383 60.9952 44.009V48H60.0332V43.801C60.0332 43.1857 59.8642 42.7003 59.5262 42.345C59.1882 41.9897 58.7332 41.812 58.1612 41.812C57.5458 41.812 57.0562 42.0113 56.6922 42.41C56.3282 42.8 56.1462 43.3157 56.1462 43.957V48H55.1712ZM66.2961 48.221C65.7068 48.221 65.1954 48.1213 64.7621 47.922C64.3288 47.714 63.9734 47.441 63.6961 47.103C63.4188 46.7563 63.2108 46.3707 63.0721 45.946C62.9421 45.5213 62.8771 45.0837 62.8771 44.633V44.451C62.8771 44.009 62.9421 43.5757 63.0721 43.151C63.2108 42.7263 63.4188 42.345 63.6961 42.007C63.9734 41.669 64.3201 41.4003 64.7361 41.201C65.1608 40.993 65.6548 40.889 66.2181 40.889C66.9374 40.889 67.5354 41.0493 68.0121 41.37C68.4974 41.6907 68.8614 42.1023 69.1041 42.605C69.3468 43.099 69.4681 43.632 69.4681 44.204V44.711H63.3191V43.957H68.7921L68.5451 44.334C68.5451 43.8227 68.4541 43.3763 68.2721 42.995C68.0988 42.605 67.8388 42.3017 67.4921 42.085C67.1541 41.8597 66.7294 41.747 66.2181 41.747C65.6808 41.747 65.2344 41.8727 64.8791 42.124C64.5238 42.3753 64.2551 42.709 64.0731 43.125C63.8998 43.541 63.8131 44.0133 63.8131 44.542C63.8131 45.062 63.8998 45.5387 64.0731 45.972C64.2551 46.3967 64.5281 46.7347 64.8921 46.986C65.2648 47.2373 65.7328 47.363 66.2961 47.363C66.8941 47.363 67.3794 47.2287 67.7521 46.96C68.1248 46.6827 68.3544 46.3577 68.4411 45.985H69.3511C69.2644 46.4443 69.0824 46.843 68.8051 47.181C68.5278 47.5103 68.1768 47.766 67.7521 47.948C67.3274 48.13 66.8421 48.221 66.2961 48.221ZM74.166 48.221C73.6633 48.221 73.204 48.13 72.788 47.948C72.3807 47.7573 72.0253 47.4973 71.722 47.168C71.4273 46.83 71.1977 46.4487 71.033 46.024C70.877 45.5907 70.799 45.1313 70.799 44.646V44.464C70.799 43.996 70.877 43.5497 71.033 43.125C71.189 42.6917 71.41 42.3103 71.696 41.981C71.9907 41.643 72.3417 41.3787 72.749 41.188C73.165 40.9887 73.6287 40.889 74.14 40.889C74.7207 40.889 75.232 41.0147 75.674 41.266C76.116 41.5173 76.4713 41.8813 76.74 42.358C77.0087 42.826 77.1517 43.4023 77.169 44.087L76.74 43.281V38.51H77.715V48H76.935V44.945H77.247C77.2297 45.6643 77.078 46.271 76.792 46.765C76.5147 47.2503 76.1463 47.6143 75.687 47.857C75.2363 48.0997 74.7293 48.221 74.166 48.221ZM74.296 47.363C74.764 47.363 75.1843 47.259 75.557 47.051C75.9383 46.843 76.2373 46.5483 76.454 46.167C76.6707 45.777 76.779 45.3307 76.779 44.828V44.204C76.779 43.7187 76.6707 43.294 76.454 42.93C76.2373 42.5573 75.9383 42.267 75.557 42.059C75.1843 41.851 74.7597 41.747 74.283 41.747C73.7717 41.747 73.3253 41.8727 72.944 42.124C72.5713 42.3667 72.281 42.7003 72.073 43.125C71.8737 43.5497 71.774 44.0263 71.774 44.555C71.774 45.101 71.878 45.5863 72.086 46.011C72.294 46.4357 72.5887 46.7693 72.97 47.012C73.3513 47.246 73.7933 47.363 74.296 47.363ZM82.6107 48.195C81.7874 48.195 81.159 47.9307 80.7257 47.402C80.2924 46.8647 80.0757 46.1193 80.0757 45.166V41.11H81.0377V45.361C81.0377 45.959 81.1937 46.4357 81.5057 46.791C81.8264 47.1377 82.2684 47.311 82.8317 47.311C83.421 47.311 83.889 47.1247 84.2357 46.752C84.591 46.3793 84.7687 45.881 84.7687 45.257V41.11H85.7437V48H84.9637V45.127H85.1197C85.1197 45.7683 85.0287 46.3187 84.8467 46.778C84.6647 47.2287 84.3917 47.5797 84.0277 47.831C83.6637 48.0737 83.2044 48.195 82.6497 48.195H82.6107ZM88.3582 48V38.51H89.3332V48H88.3582ZM87.3572 39.303V38.51H89.3332V39.303H87.3572ZM94.7336 48.221C94.1443 48.221 93.6329 48.1213 93.1996 47.922C92.7663 47.714 92.4109 47.441 92.1336 47.103C91.8563 46.7563 91.6483 46.3707 91.5096 45.946C91.3796 45.5213 91.3146 45.0837 91.3146 44.633V44.451C91.3146 44.009 91.3796 43.5757 91.5096 43.151C91.6483 42.7263 91.8563 42.345 92.1336 42.007C92.4109 41.669 92.7576 41.4003 93.1736 41.201C93.5983 40.993 94.0923 40.889 94.6556 40.889C95.3749 40.889 95.9729 41.0493 96.4496 41.37C96.9349 41.6907 97.2989 42.1023 97.5416 42.605C97.7843 43.099 97.9056 43.632 97.9056 44.204V44.711H91.7566V43.957H97.2296L96.9826 44.334C96.9826 43.8227 96.8916 43.3763 96.7096 42.995C96.5363 42.605 96.2763 42.3017 95.9296 42.085C95.5916 41.8597 95.1669 41.747 94.6556 41.747C94.1183 41.747 93.6719 41.8727 93.3166 42.124C92.9613 42.3753 92.6926 42.709 92.5106 43.125C92.3373 43.541 92.2506 44.0133 92.2506 44.542C92.2506 45.062 92.3373 45.5387 92.5106 45.972C92.6926 46.3967 92.9656 46.7347 93.3296 46.986C93.7023 47.2373 94.1703 47.363 94.7336 47.363C95.3316 47.363 95.8169 47.2287 96.1896 46.96C96.5623 46.6827 96.7919 46.3577 96.8786 45.985H97.7886C97.7019 46.4443 97.5199 46.843 97.2426 47.181C96.9653 47.5103 96.6143 47.766 96.1896 47.948C95.7649 48.13 95.2796 48.221 94.7336 48.221ZM104.741 48L106.21 41.344H107.575L109.278 48H108.433L106.73 41.383H107.042L105.56 48H104.741ZM104.182 48V47.207H105.365V48H104.182ZM103.948 48L101.959 41.123H102.895L104.858 48H103.948ZM108.654 48V47.207H109.811V48H108.654ZM109.161 48L110.877 41.123H111.774L110.019 48H109.161ZM116.328 48.221C115.739 48.221 115.228 48.1213 114.794 47.922C114.361 47.714 114.006 47.441 113.728 47.103C113.451 46.7563 113.243 46.3707 113.104 45.946C112.974 45.5213 112.909 45.0837 112.909 44.633V44.451C112.909 44.009 112.974 43.5757 113.104 43.151C113.243 42.7263 113.451 42.345 113.728 42.007C114.006 41.669 114.352 41.4003 114.768 41.201C115.193 40.993 115.687 40.889 116.25 40.889C116.97 40.889 117.568 41.0493 118.044 41.37C118.53 41.6907 118.894 42.1023 119.136 42.605C119.379 43.099 119.5 43.632 119.5 44.204V44.711H113.351V43.957H118.824L118.577 44.334C118.577 43.8227 118.486 43.3763 118.304 42.995C118.131 42.605 117.871 42.3017 117.524 42.085C117.186 41.8597 116.762 41.747 116.25 41.747C115.713 41.747 115.267 41.8727 114.911 42.124C114.556 42.3753 114.287 42.709 114.105 43.125C113.932 43.541 113.845 44.0133 113.845 44.542C113.845 45.062 113.932 45.5387 114.105 45.972C114.287 46.3967 114.56 46.7347 114.924 46.986C115.297 47.2373 115.765 47.363 116.328 47.363C116.926 47.363 117.412 47.2287 117.784 46.96C118.157 46.6827 118.387 46.3577 118.473 45.985H119.383C119.297 46.4443 119.115 46.843 118.837 47.181C118.56 47.5103 118.209 47.766 117.784 47.948C117.36 48.13 116.874 48.221 116.328 48.221ZM124.25 48.221C123.661 48.221 123.15 48.1213 122.716 47.922C122.283 47.714 121.928 47.441 121.65 47.103C121.373 46.7563 121.165 46.3707 121.026 45.946C120.896 45.5213 120.831 45.0837 120.831 44.633V44.451C120.831 44.009 120.896 43.5757 121.026 43.151C121.165 42.7263 121.373 42.345 121.65 42.007C121.928 41.669 122.274 41.4003 122.69 41.201C123.115 40.993 123.609 40.889 124.172 40.889C124.892 40.889 125.49 41.0493 125.966 41.37C126.452 41.6907 126.816 42.1023 127.058 42.605C127.301 43.099 127.422 43.632 127.422 44.204V44.711H121.273V43.957H126.746L126.499 44.334C126.499 43.8227 126.408 43.3763 126.226 42.995C126.053 42.605 125.793 42.3017 125.446 42.085C125.108 41.8597 124.684 41.747 124.172 41.747C123.635 41.747 123.189 41.8727 122.833 42.124C122.478 42.3753 122.209 42.709 122.027 43.125C121.854 43.541 121.767 44.0133 121.767 44.542C121.767 45.062 121.854 45.5387 122.027 45.972C122.209 46.3967 122.482 46.7347 122.846 46.986C123.219 47.2373 123.687 47.363 124.25 47.363C124.848 47.363 125.334 47.2287 125.706 46.96C126.079 46.6827 126.309 46.3577 126.395 45.985H127.305C127.219 46.4443 127.037 46.843 126.759 47.181C126.482 47.5103 126.131 47.766 125.706 47.948C125.282 48.13 124.796 48.221 124.25 48.221ZM133.979 48L131.21 44.776H130.092L133.355 41.123H134.395L131.47 44.386L131.535 43.853L135.123 48H133.979ZM129.299 48V38.51H130.274V48H129.299ZM136.461 48V38.51H137.436V48H136.461ZM135.46 39.303V38.51H137.436V39.303H135.46ZM139.352 50.678V49.807H140.236C140.539 49.807 140.799 49.768 141.016 49.69C141.233 49.6207 141.415 49.495 141.562 49.313C141.709 49.131 141.835 48.8797 141.939 48.559L144.253 41.123H145.202L142.784 48.832C142.645 49.274 142.455 49.6293 142.212 49.898C141.969 50.1753 141.679 50.3747 141.341 50.496C141.003 50.6173 140.617 50.678 140.184 50.678H139.352ZM141.588 47.831V47.012H142.823V47.831H141.588ZM141.471 47.831L138.975 41.123H139.976L142.381 47.831H141.471ZM149.942 48V41.11H150.722V44.009H150.566C150.566 43.3763 150.652 42.8303 150.826 42.371C151.008 41.9117 151.276 41.5563 151.632 41.305C151.987 41.045 152.438 40.915 152.984 40.915H153.023C153.569 40.915 154.019 41.0407 154.375 41.292C154.73 41.5433 154.994 41.8987 155.168 42.358C155.341 42.8173 155.428 43.3677 155.428 44.009H155.116C155.116 43.3763 155.202 42.8303 155.376 42.371C155.558 41.9117 155.826 41.5563 156.182 41.305C156.546 41.045 157.001 40.915 157.547 40.915H157.586C158.132 40.915 158.582 41.0407 158.938 41.292C159.302 41.5433 159.57 41.8987 159.744 42.358C159.926 42.8173 160.017 43.3677 160.017 44.009V48H159.042V43.788C159.042 43.1813 158.894 42.7003 158.6 42.345C158.305 41.9897 157.88 41.812 157.326 41.812C156.754 41.812 156.299 41.9983 155.961 42.371C155.631 42.735 155.467 43.229 155.467 43.853V48H154.492V43.788C154.492 43.1813 154.344 42.7003 154.05 42.345C153.755 41.9897 153.33 41.812 152.776 41.812C152.204 41.812 151.749 41.9983 151.411 42.371C151.081 42.735 150.917 43.229 150.917 43.853V48H149.942ZM165.32 48.221C164.73 48.221 164.219 48.1213 163.786 47.922C163.352 47.714 162.997 47.441 162.72 47.103C162.442 46.7563 162.234 46.3707 162.096 45.946C161.966 45.5213 161.901 45.0837 161.901 44.633V44.451C161.901 44.009 161.966 43.5757 162.096 43.151C162.234 42.7263 162.442 42.345 162.72 42.007C162.997 41.669 163.344 41.4003 163.76 41.201C164.184 40.993 164.678 40.889 165.242 40.889C165.961 40.889 166.559 41.0493 167.036 41.37C167.521 41.6907 167.885 42.1023 168.128 42.605C168.37 43.099 168.492 43.632 168.492 44.204V44.711H162.343V43.957H167.816L167.569 44.334C167.569 43.8227 167.478 43.3763 167.296 42.995C167.122 42.605 166.862 42.3017 166.516 42.085C166.178 41.8597 165.753 41.747 165.242 41.747C164.704 41.747 164.258 41.8727 163.903 42.124C163.547 42.3753 163.279 42.709 163.097 43.125C162.923 43.541 162.837 44.0133 162.837 44.542C162.837 45.062 162.923 45.5387 163.097 45.972C163.279 46.3967 163.552 46.7347 163.916 46.986C164.288 47.2373 164.756 47.363 165.32 47.363C165.918 47.363 166.403 47.2287 166.776 46.96C167.148 46.6827 167.378 46.3577 167.465 45.985H168.375C168.288 46.4443 168.106 46.843 167.829 47.181C167.551 47.5103 167.2 47.766 166.776 47.948C166.351 48.13 165.866 48.221 165.32 48.221ZM173.241 48.221C172.652 48.221 172.141 48.1213 171.707 47.922C171.274 47.714 170.919 47.441 170.641 47.103C170.364 46.7563 170.156 46.3707 170.017 45.946C169.887 45.5213 169.822 45.0837 169.822 44.633V44.451C169.822 44.009 169.887 43.5757 170.017 43.151C170.156 42.7263 170.364 42.345 170.641 42.007C170.919 41.669 171.265 41.4003 171.681 41.201C172.106 40.993 172.6 40.889 173.163 40.889C173.883 40.889 174.481 41.0493 174.957 41.37C175.443 41.6907 175.807 42.1023 176.049 42.605C176.292 43.099 176.413 43.632 176.413 44.204V44.711H170.264V43.957H175.737L175.49 44.334C175.49 43.8227 175.399 43.3763 175.217 42.995C175.044 42.605 174.784 42.3017 174.437 42.085C174.099 41.8597 173.675 41.747 173.163 41.747C172.626 41.747 172.18 41.8727 171.824 42.124C171.469 42.3753 171.2 42.709 171.018 43.125C170.845 43.541 170.758 44.0133 170.758 44.542C170.758 45.062 170.845 45.5387 171.018 45.972C171.2 46.3967 171.473 46.7347 171.837 46.986C172.21 47.2373 172.678 47.363 173.241 47.363C173.839 47.363 174.325 47.2287 174.697 46.96C175.07 46.6827 175.3 46.3577 175.386 45.985H176.296C176.21 46.4443 176.028 46.843 175.75 47.181C175.473 47.5103 175.122 47.766 174.697 47.948C174.273 48.13 173.787 48.221 173.241 48.221ZM180.786 48.078C180.31 48.078 179.898 48.0087 179.551 47.87C179.205 47.7313 178.936 47.4973 178.745 47.168C178.555 46.83 178.459 46.3793 178.459 45.816V38.952H179.395V45.959C179.395 46.3577 179.504 46.6653 179.72 46.882C179.937 47.09 180.245 47.194 180.643 47.194H181.878V48.078H180.786ZM177.224 41.864V41.123H181.878V41.864H177.224ZM184.126 48V41.123H185.088V48H184.126ZM183.021 41.903V41.123H185.088V41.903H183.021ZM184.334 39.849C184.1 39.849 183.922 39.7883 183.801 39.667C183.688 39.537 183.632 39.3767 183.632 39.186C183.632 38.9953 183.688 38.8393 183.801 38.718C183.922 38.588 184.1 38.523 184.334 38.523C184.568 38.523 184.741 38.588 184.854 38.718C184.967 38.8393 185.023 38.9953 185.023 39.186C185.023 39.3767 184.967 39.537 184.854 39.667C184.741 39.7883 184.568 39.849 184.334 39.849ZM187.647 48V41.123H188.427V44.009H188.271C188.271 43.3677 188.366 42.8173 188.557 42.358C188.747 41.8987 189.033 41.5433 189.415 41.292C189.796 41.0407 190.277 40.915 190.858 40.915H190.897C191.763 40.915 192.409 41.188 192.834 41.734C193.258 42.2713 193.471 43.0297 193.471 44.009V48H192.509V43.801C192.509 43.203 192.344 42.722 192.015 42.358C191.685 41.994 191.226 41.812 190.637 41.812C190.03 41.812 189.54 42.0027 189.168 42.384C188.804 42.7567 188.622 43.2507 188.622 43.866V48H187.647ZM198.525 50.691C198.204 50.691 197.879 50.6737 197.55 50.639C197.229 50.613 196.921 50.5783 196.627 50.535V49.703C196.939 49.7463 197.264 49.781 197.602 49.807C197.948 49.8417 198.273 49.859 198.577 49.859C199.235 49.859 199.76 49.7723 200.15 49.599C200.54 49.4257 200.817 49.1483 200.982 48.767C201.155 48.3943 201.242 47.9003 201.242 47.285V45.907L201.606 44.945C201.588 45.6037 201.45 46.1713 201.19 46.648C200.93 47.116 200.579 47.4757 200.137 47.727C199.695 47.9783 199.192 48.104 198.629 48.104C198.135 48.104 197.684 48.0087 197.277 47.818C196.878 47.6273 196.536 47.3673 196.25 47.038C195.964 46.7 195.743 46.3187 195.587 45.894C195.431 45.4693 195.353 45.023 195.353 44.555V44.373C195.353 43.9137 195.431 43.476 195.587 43.06C195.743 42.6353 195.964 42.2627 196.25 41.942C196.536 41.6127 196.882 41.357 197.29 41.175C197.706 40.9843 198.165 40.889 198.668 40.889C199.274 40.889 199.803 41.0233 200.254 41.292C200.704 41.5607 201.055 41.9333 201.307 42.41C201.567 42.8867 201.705 43.4457 201.723 44.087L201.411 43.918V41.123H202.178V47.246C202.178 48.0693 202.056 48.7323 201.814 49.235C201.571 49.7377 201.181 50.106 200.644 50.34C200.115 50.574 199.409 50.691 198.525 50.691ZM198.798 47.207C199.266 47.207 199.682 47.1073 200.046 46.908C200.418 46.7 200.713 46.4097 200.93 46.037C201.146 45.6643 201.255 45.231 201.255 44.737V44.1C201.255 43.6233 201.142 43.2073 200.917 42.852C200.7 42.4967 200.41 42.2193 200.046 42.02C199.682 41.8207 199.266 41.721 198.798 41.721C198.295 41.721 197.857 41.8423 197.485 42.085C197.112 42.3277 196.826 42.657 196.627 43.073C196.427 43.4803 196.328 43.944 196.328 44.464C196.328 44.9927 196.427 45.465 196.627 45.881C196.835 46.297 197.125 46.622 197.498 46.856C197.87 47.09 198.304 47.207 198.798 47.207Z" fill="black"/>
<path d="M23 83.7667C23 81.1341 25.1341 79 27.7667 79H233.782H255.77C257.831 79 258.595 81.7052 256.839 82.7837L252.596 85.3896C251.184 86.2567 250.324 87.7946 250.324 89.4514V123.233C250.324 125.866 248.19 128 245.557 128H27.7667C25.1341 128 23 125.866 23 123.233V83.7667Z" fill="#E3F3F8"/>
<path d="M231 100.5L226.8 105.5L225 103.5" stroke="#1E95BB" stroke-width="1.1875" stroke-linecap="round" stroke-linejoin="round"/>
<path d="M232.5 97H223.5C222.672 97 222 97.6716 222 98.5V107.5C222 108.328 222.672 109 223.5 109H232.5C233.328 109 234 108.328 234 107.5V98.5C234 97.6716 233.328 97 232.5 97Z" stroke="#1E95BB" stroke-width="1.1875" stroke-linejoin="round"/>
<path d="M38.482 107V97.471H39.47V107H38.482ZM44.371 107L41.134 102.801H42.291L45.58 107H44.371ZM39.067 103.399V102.515H41.615C42.083 102.515 42.473 102.424 42.785 102.242C43.097 102.06 43.331 101.813 43.487 101.501C43.643 101.189 43.721 100.834 43.721 100.435C43.721 100.036 43.643 99.681 43.487 99.369C43.331 99.057 43.097 98.81 42.785 98.628C42.473 98.4373 42.083 98.342 41.615 98.342H39.067V97.471H41.446C42.148 97.471 42.7417 97.5837 43.227 97.809C43.721 98.0257 44.0937 98.3507 44.345 98.784C44.605 99.2087 44.735 99.7287 44.735 100.344V100.526C44.735 101.141 44.605 101.666 44.345 102.099C44.085 102.524 43.7123 102.849 43.227 103.074C42.7417 103.291 42.148 103.399 41.446 103.399H39.067ZM49.9319 107.221C49.3425 107.221 48.8312 107.121 48.3979 106.922C47.9645 106.714 47.6092 106.441 47.3319 106.103C47.0545 105.756 46.8465 105.371 46.7079 104.946C46.5779 104.521 46.5129 104.084 46.5129 103.633V103.451C46.5129 103.009 46.5779 102.576 46.7079 102.151C46.8465 101.726 47.0545 101.345 47.3319 101.007C47.6092 100.669 47.9559 100.4 48.3719 100.201C48.7965 99.993 49.2905 99.889 49.8539 99.889C50.5732 99.889 51.1712 100.049 51.6479 100.37C52.1332 100.691 52.4972 101.102 52.7399 101.605C52.9825 102.099 53.1039 102.632 53.1039 103.204V103.711H46.9549V102.957H52.4279L52.1809 103.334C52.1809 102.823 52.0899 102.376 51.9079 101.995C51.7345 101.605 51.4745 101.302 51.1279 101.085C50.7899 100.86 50.3652 100.747 49.8539 100.747C49.3165 100.747 48.8702 100.873 48.5149 101.124C48.1595 101.375 47.8909 101.709 47.7089 102.125C47.5355 102.541 47.4489 103.013 47.4489 103.542C47.4489 104.062 47.5355 104.539 47.7089 104.972C47.8909 105.397 48.1639 105.735 48.5279 105.986C48.9005 106.237 49.3685 106.363 49.9319 106.363C50.5299 106.363 51.0152 106.229 51.3879 105.96C51.7605 105.683 51.9902 105.358 52.0769 104.985H52.9869C52.9002 105.444 52.7182 105.843 52.4409 106.181C52.1635 106.51 51.8125 106.766 51.3879 106.948C50.9632 107.13 50.4779 107.221 49.9319 107.221ZM56.4639 107L54.0459 100.123H55.0469L57.4389 107H56.4639ZM56.7239 107V106.207H57.9589V107H56.7239ZM57.2569 107L59.3499 100.123H60.3119L58.1799 107H57.2569ZM62.4033 107V100.123H63.3653V107H62.4033ZM61.2983 100.903V100.123H63.3653V100.903H61.2983ZM62.6113 98.849C62.3773 98.849 62.1997 98.7883 62.0783 98.667C61.9657 98.537 61.9093 98.3767 61.9093 98.186C61.9093 97.9953 61.9657 97.8393 62.0783 97.718C62.1997 97.588 62.3773 97.523 62.6113 97.523C62.8453 97.523 63.0187 97.588 63.1313 97.718C63.244 97.8393 63.3003 97.9953 63.3003 98.186C63.3003 98.3767 63.244 98.537 63.1313 98.667C63.0187 98.7883 62.8453 98.849 62.6113 98.849ZM68.7971 107.221C68.2078 107.221 67.6964 107.121 67.2631 106.922C66.8298 106.714 66.4744 106.441 66.1971 106.103C65.9198 105.756 65.7118 105.371 65.5731 104.946C65.4431 104.521 65.3781 104.084 65.3781 103.633V103.451C65.3781 103.009 65.4431 102.576 65.5731 102.151C65.7118 101.726 65.9198 101.345 66.1971 101.007C66.4744 100.669 66.8211 100.4 67.2371 100.201C67.6618 99.993 68.1558 99.889 68.7191 99.889C69.4384 99.889 70.0364 100.049 70.5131 100.37C70.9984 100.691 71.3624 101.102 71.6051 101.605C71.8478 102.099 71.9691 102.632 71.9691 103.204V103.711H65.8201V102.957H71.2931L71.0461 103.334C71.0461 102.823 70.9551 102.376 70.7731 101.995C70.5998 101.605 70.3398 101.302 69.9931 101.085C69.6551 100.86 69.2304 100.747 68.7191 100.747C68.1818 100.747 67.7354 100.873 67.3801 101.124C67.0248 101.375 66.7561 101.709 66.5741 102.125C66.4008 102.541 66.3141 103.013 66.3141 103.542C66.3141 104.062 66.4008 104.539 66.5741 104.972C66.7561 105.397 67.0291 105.735 67.3931 105.986C67.7658 106.237 68.2338 106.363 68.7971 106.363C69.3951 106.363 69.8804 106.229 70.2531 105.96C70.6258 105.683 70.8554 105.358 70.9421 104.985H71.8521C71.7654 105.444 71.5834 105.843 71.3061 106.181C71.0288 106.51 70.6778 106.766 70.2531 106.948C69.8284 107.13 69.3431 107.221 68.7971 107.221ZM75.7192 107L77.1882 100.344H78.5532L80.2562 107H79.4112L77.7082 100.383H78.0202L76.5382 107H75.7192ZM75.1602 107V106.207H76.3432V107H75.1602ZM74.9262 107L72.9372 100.123H73.8732L75.8362 107H74.9262ZM79.6322 107V106.207H80.7892V107H79.6322ZM80.1392 107L81.8552 100.123H82.7522L80.9972 107H80.1392ZM87.5823 109.6V100.123H88.3623V103.074L88.1283 103.1C88.163 102.407 88.3103 101.822 88.5703 101.345C88.839 100.868 89.1986 100.509 89.6493 100.266C90.1086 100.015 90.62 99.889 91.1833 99.889C91.686 99.889 92.141 99.9887 92.5483 100.188C92.9643 100.379 93.3153 100.643 93.6013 100.981C93.896 101.31 94.117 101.692 94.2643 102.125C94.4203 102.55 94.4983 102.996 94.4983 103.464V103.646C94.4983 104.114 94.4203 104.565 94.2643 104.998C94.1083 105.423 93.883 105.804 93.5883 106.142C93.3023 106.471 92.9513 106.736 92.5353 106.935C92.128 107.126 91.6686 107.221 91.1573 107.221C90.6113 107.221 90.1086 107.1 89.6493 106.857C89.1986 106.606 88.8303 106.237 88.5443 105.752C88.267 105.267 88.1153 104.669 88.0893 103.958L88.5573 104.933V109.6H87.5823ZM91.0273 106.363C91.5473 106.363 91.9936 106.242 92.3663 105.999C92.739 105.748 93.025 105.41 93.2243 104.985C93.4236 104.552 93.5233 104.075 93.5233 103.555C93.5233 103.018 93.4193 102.541 93.2113 102.125C93.012 101.7 92.726 101.367 92.3533 101.124C91.9806 100.873 91.5386 100.747 91.0273 100.747C90.5593 100.747 90.1346 100.851 89.7533 101.059C89.372 101.267 89.0686 101.562 88.8433 101.943C88.6266 102.316 88.5183 102.758 88.5183 103.269V103.906C88.5183 104.391 88.6266 104.82 88.8433 105.193C89.0686 105.557 89.372 105.843 89.7533 106.051C90.1346 106.259 90.5593 106.363 91.0273 106.363ZM96.469 107V100.123H97.249V102.996H97.171C97.171 101.991 97.392 101.25 97.834 100.773C98.276 100.288 98.9693 100.045 99.914 100.045H100.135V100.929H99.732C98.9867 100.929 98.419 101.124 98.029 101.514C97.639 101.895 97.444 102.459 97.444 103.204V107H96.469ZM104.704 107.221C104.115 107.221 103.595 107.121 103.144 106.922C102.702 106.714 102.325 106.441 102.013 106.103C101.71 105.756 101.476 105.371 101.311 104.946C101.155 104.521 101.077 104.088 101.077 103.646V103.464C101.077 103.022 101.16 102.589 101.324 102.164C101.489 101.731 101.727 101.345 102.039 101.007C102.351 100.669 102.728 100.4 103.17 100.201C103.621 99.993 104.132 99.889 104.704 99.889C105.285 99.889 105.796 99.993 106.238 100.201C106.689 100.4 107.07 100.669 107.382 101.007C107.694 101.345 107.928 101.731 108.084 102.164C108.249 102.589 108.331 103.022 108.331 103.464V103.646C108.331 104.088 108.253 104.521 108.097 104.946C107.941 105.371 107.707 105.756 107.395 106.103C107.092 106.441 106.715 106.714 106.264 106.922C105.814 107.121 105.294 107.221 104.704 107.221ZM104.704 106.35C105.276 106.35 105.757 106.224 106.147 105.973C106.546 105.713 106.849 105.375 107.057 104.959C107.265 104.534 107.369 104.066 107.369 103.555C107.369 103.035 107.261 102.567 107.044 102.151C106.836 101.726 106.533 101.393 106.134 101.15C105.736 100.899 105.259 100.773 104.704 100.773C104.158 100.773 103.686 100.899 103.287 101.15C102.889 101.393 102.581 101.726 102.364 102.151C102.156 102.567 102.052 103.035 102.052 103.555C102.052 104.066 102.156 104.534 102.364 104.959C102.572 105.375 102.871 105.713 103.261 105.973C103.66 106.224 104.141 106.35 104.704 106.35ZM109.02 109.639V108.768H109.8C110.138 108.768 110.393 108.668 110.567 108.469C110.749 108.278 110.84 108.001 110.84 107.637V100.123H111.776V107.455C111.776 107.992 111.702 108.421 111.555 108.742C111.416 109.063 111.191 109.292 110.879 109.431C110.567 109.57 110.151 109.639 109.631 109.639H109.02ZM109.722 100.903V100.123H111.776V100.903H109.722ZM111.022 98.732C110.788 98.732 110.61 98.6713 110.489 98.55C110.376 98.42 110.32 98.2597 110.32 98.069C110.32 97.8783 110.376 97.7223 110.489 97.601C110.61 97.471 110.788 97.406 111.022 97.406C111.256 97.406 111.429 97.471 111.542 97.601C111.654 97.7223 111.711 97.8783 111.711 98.069C111.711 98.2597 111.654 98.42 111.542 98.55C111.429 98.6713 111.256 98.732 111.022 98.732ZM117.179 107.221C116.59 107.221 116.078 107.121 115.645 106.922C115.212 106.714 114.856 106.441 114.579 106.103C114.302 105.756 114.094 105.371 113.955 104.946C113.825 104.521 113.76 104.084 113.76 103.633V103.451C113.76 103.009 113.825 102.576 113.955 102.151C114.094 101.726 114.302 101.345 114.579 101.007C114.856 100.669 115.203 100.4 115.619 100.201C116.044 99.993 116.538 99.889 117.101 99.889C117.82 99.889 118.418 100.049 118.895 100.37C119.38 100.691 119.744 101.102 119.987 101.605C120.23 102.099 120.351 102.632 120.351 103.204V103.711H114.202V102.957H119.675L119.428 103.334C119.428 102.823 119.337 102.376 119.155 101.995C118.982 101.605 118.722 101.302 118.375 101.085C118.037 100.86 117.612 100.747 117.101 100.747C116.564 100.747 116.117 100.873 115.762 101.124C115.407 101.375 115.138 101.709 114.956 102.125C114.783 102.541 114.696 103.013 114.696 103.542C114.696 104.062 114.783 104.539 114.956 104.972C115.138 105.397 115.411 105.735 115.775 105.986C116.148 106.237 116.616 106.363 117.179 106.363C117.777 106.363 118.262 106.229 118.635 105.96C119.008 105.683 119.237 105.358 119.324 104.985H120.234C120.147 105.444 119.965 105.843 119.688 106.181C119.411 106.51 119.06 106.766 118.635 106.948C118.21 107.13 117.725 107.221 117.179 107.221ZM125.127 107.221C124.546 107.221 124.039 107.121 123.606 106.922C123.181 106.714 122.826 106.437 122.54 106.09C122.254 105.735 122.037 105.345 121.89 104.92C121.751 104.495 121.682 104.066 121.682 103.633V103.451C121.682 103.009 121.751 102.58 121.89 102.164C122.037 101.739 122.254 101.358 122.54 101.02C122.826 100.673 123.181 100.4 123.606 100.201C124.039 99.993 124.537 99.889 125.101 99.889C125.673 99.889 126.18 99.993 126.622 100.201C127.072 100.409 127.436 100.704 127.714 101.085C127.991 101.466 128.156 101.917 128.208 102.437H127.272C127.194 101.96 126.968 101.566 126.596 101.254C126.232 100.933 125.733 100.773 125.101 100.773C124.555 100.773 124.1 100.899 123.736 101.15C123.38 101.393 123.112 101.726 122.93 102.151C122.748 102.567 122.657 103.031 122.657 103.542C122.657 104.045 122.748 104.513 122.93 104.946C123.112 105.371 123.385 105.713 123.749 105.973C124.113 106.224 124.572 106.35 125.127 106.35C125.551 106.35 125.92 106.276 126.232 106.129C126.552 105.973 126.808 105.765 126.999 105.505C127.198 105.245 127.315 104.959 127.35 104.647H128.286C128.251 105.167 128.086 105.622 127.792 106.012C127.506 106.393 127.133 106.692 126.674 106.909C126.214 107.117 125.699 107.221 125.127 107.221ZM132.57 107.078C132.093 107.078 131.681 107.009 131.335 106.87C130.988 106.731 130.719 106.497 130.528 106.168C130.338 105.83 130.243 105.379 130.243 104.816V97.952H131.179V104.959C131.179 105.358 131.287 105.665 131.504 105.882C131.72 106.09 132.028 106.194 132.427 106.194H133.662V107.078H132.57ZM129.008 100.864V100.123H133.662V100.864H129.008ZM141.075 107.078C140.599 107.078 140.187 107.009 139.84 106.87C139.494 106.731 139.225 106.497 139.034 106.168C138.844 105.83 138.748 105.379 138.748 104.816V97.952H139.684V104.959C139.684 105.358 139.793 105.665 140.009 105.882C140.226 106.09 140.534 106.194 140.932 106.194H142.167V107.078H141.075ZM137.513 100.864V100.123H142.167V100.864H137.513ZM144.415 107V100.123H145.377V107H144.415ZM143.31 100.903V100.123H145.377V100.903H143.31ZM144.623 98.849C144.389 98.849 144.211 98.7883 144.09 98.667C143.977 98.537 143.921 98.3767 143.921 98.186C143.921 97.9953 143.977 97.8393 144.09 97.718C144.211 97.588 144.389 97.523 144.623 97.523C144.857 97.523 145.03 97.588 145.143 97.718C145.256 97.8393 145.312 97.9953 145.312 98.186C145.312 98.3767 145.256 98.537 145.143 98.667C145.03 98.7883 144.857 98.849 144.623 98.849ZM147.936 107V100.11H148.716V103.009H148.56C148.56 102.376 148.646 101.83 148.82 101.371C149.002 100.912 149.27 100.556 149.626 100.305C149.981 100.045 150.432 99.915 150.978 99.915H151.017C151.563 99.915 152.013 100.041 152.369 100.292C152.724 100.543 152.988 100.899 153.162 101.358C153.335 101.817 153.422 102.368 153.422 103.009H153.11C153.11 102.376 153.196 101.83 153.37 101.371C153.552 100.912 153.82 100.556 154.176 100.305C154.54 100.045 154.995 99.915 155.541 99.915H155.58C156.126 99.915 156.576 100.041 156.932 100.292C157.296 100.543 157.564 100.899 157.738 101.358C157.92 101.817 158.011 102.368 158.011 103.009V107H157.036V102.788C157.036 102.181 156.888 101.7 156.594 101.345C156.299 100.99 155.874 100.812 155.32 100.812C154.748 100.812 154.293 100.998 153.955 101.371C153.625 101.735 153.461 102.229 153.461 102.853V107H152.486V102.788C152.486 102.181 152.338 101.7 152.044 101.345C151.749 100.99 151.324 100.812 150.77 100.812C150.198 100.812 149.743 100.998 149.405 101.371C149.075 101.735 148.911 102.229 148.911 102.853V107H147.936ZM163.314 107.221C162.724 107.221 162.213 107.121 161.78 106.922C161.346 106.714 160.991 106.441 160.714 106.103C160.436 105.756 160.228 105.371 160.09 104.946C159.96 104.521 159.895 104.084 159.895 103.633V103.451C159.895 103.009 159.96 102.576 160.09 102.151C160.228 101.726 160.436 101.345 160.714 101.007C160.991 100.669 161.338 100.4 161.754 100.201C162.178 99.993 162.672 99.889 163.236 99.889C163.955 99.889 164.553 100.049 165.03 100.37C165.515 100.691 165.879 101.102 166.122 101.605C166.364 102.099 166.486 102.632 166.486 103.204V103.711H160.337V102.957H165.81L165.563 103.334C165.563 102.823 165.472 102.376 165.29 101.995C165.116 101.605 164.856 101.302 164.51 101.085C164.172 100.86 163.747 100.747 163.236 100.747C162.698 100.747 162.252 100.873 161.897 101.124C161.541 101.375 161.273 101.709 161.091 102.125C160.917 102.541 160.831 103.013 160.831 103.542C160.831 104.062 160.917 104.539 161.091 104.972C161.273 105.397 161.546 105.735 161.91 105.986C162.282 106.237 162.75 106.363 163.314 106.363C163.912 106.363 164.397 106.229 164.77 105.96C165.142 105.683 165.372 105.358 165.459 104.985H166.369C166.282 105.444 166.1 105.843 165.823 106.181C165.545 106.51 165.194 106.766 164.77 106.948C164.345 107.13 163.86 107.221 163.314 107.221ZM168.428 107V97.51H169.403V107H168.428ZM167.427 98.303V97.51H169.403V98.303H167.427ZM172.294 107V100.123H173.256V107H172.294ZM171.189 100.903V100.123H173.256V100.903H171.189ZM172.502 98.849C172.268 98.849 172.09 98.7883 171.969 98.667C171.856 98.537 171.8 98.3767 171.8 98.186C171.8 97.9953 171.856 97.8393 171.969 97.718C172.09 97.588 172.268 97.523 172.502 97.523C172.736 97.523 172.909 97.588 173.022 97.718C173.135 97.8393 173.191 97.9953 173.191 98.186C173.191 98.3767 173.135 98.537 173.022 98.667C172.909 98.7883 172.736 98.849 172.502 98.849ZM175.815 107V100.123H176.595V103.009H176.439C176.439 102.368 176.534 101.817 176.725 101.358C176.915 100.899 177.201 100.543 177.583 100.292C177.964 100.041 178.445 99.915 179.026 99.915H179.065C179.931 99.915 180.577 100.188 181.002 100.734C181.426 101.271 181.639 102.03 181.639 103.009V107H180.677V102.801C180.677 102.203 180.512 101.722 180.183 101.358C179.853 100.994 179.394 100.812 178.805 100.812C178.198 100.812 177.708 101.003 177.336 101.384C176.972 101.757 176.79 102.251 176.79 102.866V107H175.815ZM186.94 107.221C186.35 107.221 185.839 107.121 185.406 106.922C184.972 106.714 184.617 106.441 184.34 106.103C184.062 105.756 183.854 105.371 183.716 104.946C183.586 104.521 183.521 104.084 183.521 103.633V103.451C183.521 103.009 183.586 102.576 183.716 102.151C183.854 101.726 184.062 101.345 184.34 101.007C184.617 100.669 184.964 100.4 185.38 100.201C185.804 99.993 186.298 99.889 186.862 99.889C187.581 99.889 188.179 100.049 188.656 100.37C189.141 100.691 189.505 101.102 189.748 101.605C189.99 102.099 190.112 102.632 190.112 103.204V103.711H183.963V102.957H189.436L189.189 103.334C189.189 102.823 189.098 102.376 188.916 101.995C188.742 101.605 188.482 101.302 188.136 101.085C187.798 100.86 187.373 100.747 186.862 100.747C186.324 100.747 185.878 100.873 185.523 101.124C185.167 101.375 184.899 101.709 184.717 102.125C184.543 102.541 184.457 103.013 184.457 103.542C184.457 104.062 184.543 104.539 184.717 104.972C184.899 105.397 185.172 105.735 185.536 105.986C185.908 106.237 186.376 106.363 186.94 106.363C187.538 106.363 188.023 106.229 188.396 105.96C188.768 105.683 188.998 105.358 189.085 104.985H189.995C189.908 105.444 189.726 105.843 189.449 106.181C189.171 106.51 188.82 106.766 188.396 106.948C187.971 107.13 187.486 107.221 186.94 107.221Z" fill="black"/>
<path d="M23 142.767C23 140.134 25.1341 138 27.7667 138H233.782H255.77C257.831 138 258.595 140.705 256.839 141.784L252.596 144.39C251.184 145.257 250.324 146.795 250.324 148.451V182.233C250.324 184.866 248.19 187 245.557 187H27.7667C25.1341 187 23 184.866 23 182.233V142.767Z" fill="#E3F3F8"/>
<path d="M232.5 156H223.5C222.672 156 222 156.672 222 157.5V166.5C222 167.328 222.672 168 223.5 168H232.5C233.328 168 234 167.328 234 166.5V157.5C234 156.672 233.328 156 232.5 156Z" stroke="#1E95BB" stroke-width="1.1875" stroke-linejoin="round"/>
<path d="M38.482 166V156.51H39.47V166H38.482ZM39.21 161.619V160.722L43.409 160.709V161.606L39.21 161.619ZM39.21 157.394V156.51H43.656V157.394H39.21ZM48.4895 166.221C47.9001 166.221 47.3801 166.121 46.9295 165.922C46.4875 165.714 46.1105 165.441 45.7985 165.103C45.4951 164.756 45.2611 164.371 45.0965 163.946C44.9405 163.521 44.8625 163.088 44.8625 162.646V162.464C44.8625 162.022 44.9448 161.589 45.1095 161.164C45.2741 160.731 45.5125 160.345 45.8245 160.007C46.1365 159.669 46.5135 159.4 46.9555 159.201C47.4061 158.993 47.9175 158.889 48.4895 158.889C49.0701 158.889 49.5815 158.993 50.0235 159.201C50.4741 159.4 50.8555 159.669 51.1675 160.007C51.4795 160.345 51.7135 160.731 51.8695 161.164C52.0341 161.589 52.1165 162.022 52.1165 162.464V162.646C52.1165 163.088 52.0385 163.521 51.8825 163.946C51.7265 164.371 51.4925 164.756 51.1805 165.103C50.8771 165.441 50.5001 165.714 50.0495 165.922C49.5988 166.121 49.0788 166.221 48.4895 166.221ZM48.4895 165.35C49.0615 165.35 49.5425 165.224 49.9325 164.973C50.3311 164.713 50.6345 164.375 50.8425 163.959C51.0505 163.534 51.1545 163.066 51.1545 162.555C51.1545 162.035 51.0461 161.567 50.8295 161.151C50.6215 160.726 50.3181 160.393 49.9195 160.15C49.5208 159.899 49.0441 159.773 48.4895 159.773C47.9435 159.773 47.4711 159.899 47.0725 160.15C46.6738 160.393 46.3661 160.726 46.1495 161.151C45.9415 161.567 45.8375 162.035 45.8375 162.555C45.8375 163.066 45.9415 163.534 46.1495 163.959C46.3575 164.375 46.6565 164.713 47.0465 164.973C47.4451 165.224 47.9261 165.35 48.4895 165.35ZM54.1698 166V156.51H55.1448V166H54.1698ZM53.1688 157.303V156.51H55.1448V157.303H53.1688ZM57.7371 166V156.51H58.7121V166H57.7371ZM56.7361 157.303V156.51H58.7121V157.303H56.7361ZM64.3205 166.221C63.7312 166.221 63.2112 166.121 62.7605 165.922C62.3185 165.714 61.9415 165.441 61.6295 165.103C61.3262 164.756 61.0922 164.371 60.9275 163.946C60.7715 163.521 60.6935 163.088 60.6935 162.646V162.464C60.6935 162.022 60.7758 161.589 60.9405 161.164C61.1052 160.731 61.3435 160.345 61.6555 160.007C61.9675 159.669 62.3445 159.4 62.7865 159.201C63.2372 158.993 63.7485 158.889 64.3205 158.889C64.9012 158.889 65.4125 158.993 65.8545 159.201C66.3052 159.4 66.6865 159.669 66.9985 160.007C67.3105 160.345 67.5445 160.731 67.7005 161.164C67.8652 161.589 67.9475 162.022 67.9475 162.464V162.646C67.9475 163.088 67.8695 163.521 67.7135 163.946C67.5575 164.371 67.3235 164.756 67.0115 165.103C66.7082 165.441 66.3312 165.714 65.8805 165.922C65.4298 166.121 64.9098 166.221 64.3205 166.221ZM64.3205 165.35C64.8925 165.35 65.3735 165.224 65.7635 164.973C66.1622 164.713 66.4655 164.375 66.6735 163.959C66.8815 163.534 66.9855 163.066 66.9855 162.555C66.9855 162.035 66.8772 161.567 66.6605 161.151C66.4525 160.726 66.1492 160.393 65.7505 160.15C65.3518 159.899 64.8752 159.773 64.3205 159.773C63.7745 159.773 63.3022 159.899 62.9035 160.15C62.5048 160.393 62.1972 160.726 61.9805 161.151C61.7725 161.567 61.6685 162.035 61.6685 162.555C61.6685 163.066 61.7725 163.534 61.9805 163.959C62.1885 164.375 62.4875 164.713 62.8775 164.973C63.2762 165.224 63.7572 165.35 64.3205 165.35ZM71.7455 166L73.2145 159.344H74.5795L76.2825 166H75.4375L73.7345 159.383H74.0465L72.5645 166H71.7455ZM71.1865 166V165.207H72.3695V166H71.1865ZM70.9525 166L68.9635 159.123H69.8995L71.8625 166H70.9525ZM75.6585 166V165.207H76.8155V166H75.6585ZM76.1655 166L77.8815 159.123H78.7785L77.0235 166H76.1655ZM85.9877 166.195C85.1643 166.195 84.536 165.931 84.1027 165.402C83.6693 164.865 83.4527 164.119 83.4527 163.166V159.11H84.4147V163.361C84.4147 163.959 84.5707 164.436 84.8827 164.791C85.2033 165.138 85.6453 165.311 86.2087 165.311C86.798 165.311 87.266 165.125 87.6127 164.752C87.968 164.379 88.1457 163.881 88.1457 163.257V159.11H89.1207V166H88.3407V163.127H88.4967C88.4967 163.768 88.4057 164.319 88.2237 164.778C88.0417 165.229 87.7687 165.58 87.4047 165.831C87.0407 166.074 86.5813 166.195 86.0267 166.195H85.9877ZM91.6702 168.6V159.123H92.4502V162.074L92.2162 162.1C92.2508 161.407 92.3982 160.822 92.6582 160.345C92.9268 159.868 93.2865 159.509 93.7372 159.266C94.1965 159.015 94.7078 158.889 95.2712 158.889C95.7738 158.889 96.2288 158.989 96.6362 159.188C97.0522 159.379 97.4032 159.643 97.6892 159.981C97.9838 160.31 98.2048 160.692 98.3522 161.125C98.5082 161.55 98.5862 161.996 98.5862 162.464V162.646C98.5862 163.114 98.5082 163.565 98.3522 163.998C98.1962 164.423 97.9708 164.804 97.6762 165.142C97.3902 165.471 97.0392 165.736 96.6232 165.935C96.2158 166.126 95.7565 166.221 95.2452 166.221C94.6992 166.221 94.1965 166.1 93.7372 165.857C93.2865 165.606 92.9182 165.237 92.6322 164.752C92.3548 164.267 92.2032 163.669 92.1772 162.958L92.6452 163.933V168.6H91.6702ZM95.1152 165.363C95.6352 165.363 96.0815 165.242 96.4542 164.999C96.8268 164.748 97.1128 164.41 97.3122 163.985C97.5115 163.552 97.6112 163.075 97.6112 162.555C97.6112 162.018 97.5072 161.541 97.2992 161.125C97.0998 160.7 96.8138 160.367 96.4412 160.124C96.0685 159.873 95.6265 159.747 95.1152 159.747C94.6472 159.747 94.2225 159.851 93.8412 160.059C93.4598 160.267 93.1565 160.562 92.9312 160.943C92.7145 161.316 92.6062 161.758 92.6062 162.269V162.906C92.6062 163.391 92.7145 163.82 92.9312 164.193C93.1565 164.557 93.4598 164.843 93.8412 165.051C94.2225 165.259 94.6472 165.363 95.1152 165.363ZM106.672 166.221C106.083 166.221 105.563 166.121 105.112 165.922C104.67 165.714 104.293 165.441 103.981 165.103C103.678 164.756 103.444 164.371 103.279 163.946C103.123 163.521 103.045 163.088 103.045 162.646V162.464C103.045 162.022 103.127 161.589 103.292 161.164C103.457 160.731 103.695 160.345 104.007 160.007C104.319 159.669 104.696 159.4 105.138 159.201C105.589 158.993 106.1 158.889 106.672 158.889C107.253 158.889 107.764 158.993 108.206 159.201C108.657 159.4 109.038 159.669 109.35 160.007C109.662 160.345 109.896 160.731 110.052 161.164C110.217 161.589 110.299 162.022 110.299 162.464V162.646C110.299 163.088 110.221 163.521 110.065 163.946C109.909 164.371 109.675 164.756 109.363 165.103C109.06 165.441 108.683 165.714 108.232 165.922C107.781 166.121 107.261 166.221 106.672 166.221ZM106.672 165.35C107.244 165.35 107.725 165.224 108.115 164.973C108.514 164.713 108.817 164.375 109.025 163.959C109.233 163.534 109.337 163.066 109.337 162.555C109.337 162.035 109.229 161.567 109.012 161.151C108.804 160.726 108.501 160.393 108.102 160.15C107.703 159.899 107.227 159.773 106.672 159.773C106.126 159.773 105.654 159.899 105.255 160.15C104.856 160.393 104.549 160.726 104.332 161.151C104.124 161.567 104.02 162.035 104.02 162.555C104.02 163.066 104.124 163.534 104.332 163.959C104.54 164.375 104.839 164.713 105.229 164.973C105.628 165.224 106.109 165.35 106.672 165.35ZM112.287 166V159.123H113.067V162.009H112.911C112.911 161.368 113.007 160.817 113.197 160.358C113.388 159.899 113.674 159.543 114.055 159.292C114.437 159.041 114.918 158.915 115.498 158.915H115.537C116.404 158.915 117.05 159.188 117.474 159.734C117.899 160.271 118.111 161.03 118.111 162.009V166H117.149V161.801C117.149 161.203 116.985 160.722 116.655 160.358C116.326 159.994 115.867 159.812 115.277 159.812C114.671 159.812 114.181 160.003 113.808 160.384C113.444 160.757 113.262 161.251 113.262 161.866V166H112.287ZM127.76 166V163.933H127.604V161.489C127.604 160.978 127.469 160.588 127.201 160.319C126.932 160.042 126.516 159.903 125.953 159.903C125.693 159.903 125.428 159.907 125.16 159.916C124.9 159.925 124.648 159.938 124.406 159.955C124.172 159.964 123.964 159.977 123.782 159.994V159.136C123.972 159.119 124.167 159.101 124.367 159.084C124.566 159.067 124.77 159.058 124.978 159.058C125.194 159.049 125.402 159.045 125.602 159.045C126.304 159.045 126.867 159.132 127.292 159.305C127.725 159.478 128.041 159.751 128.241 160.124C128.44 160.488 128.54 160.973 128.54 161.58V166H127.76ZM125.433 166.182C124.947 166.182 124.518 166.095 124.146 165.922C123.773 165.749 123.483 165.497 123.275 165.168C123.075 164.839 122.976 164.44 122.976 163.972C122.976 163.513 123.08 163.123 123.288 162.802C123.504 162.481 123.812 162.239 124.211 162.074C124.618 161.901 125.108 161.814 125.68 161.814H127.695V162.555H125.615C125.069 162.555 124.648 162.689 124.354 162.958C124.068 163.218 123.925 163.56 123.925 163.985C123.925 164.418 124.076 164.765 124.38 165.025C124.683 165.276 125.095 165.402 125.615 165.402C125.935 165.402 126.243 165.346 126.538 165.233C126.832 165.112 127.079 164.912 127.279 164.635C127.478 164.349 127.586 163.959 127.604 163.465L127.89 163.868C127.855 164.379 127.734 164.808 127.526 165.155C127.318 165.493 127.036 165.749 126.681 165.922C126.325 166.095 125.909 166.182 125.433 166.182ZM133.874 166.221C133.293 166.221 132.786 166.121 132.353 165.922C131.928 165.714 131.573 165.437 131.287 165.09C131.001 164.735 130.784 164.345 130.637 163.92C130.498 163.495 130.429 163.066 130.429 162.633V162.451C130.429 162.009 130.498 161.58 130.637 161.164C130.784 160.739 131.001 160.358 131.287 160.02C131.573 159.673 131.928 159.4 132.353 159.201C132.786 158.993 133.285 158.889 133.848 158.889C134.42 158.889 134.927 158.993 135.369 159.201C135.82 159.409 136.184 159.704 136.461 160.085C136.738 160.466 136.903 160.917 136.955 161.437H136.019C135.941 160.96 135.716 160.566 135.343 160.254C134.979 159.933 134.481 159.773 133.848 159.773C133.302 159.773 132.847 159.899 132.483 160.15C132.128 160.393 131.859 160.726 131.677 161.151C131.495 161.567 131.404 162.031 131.404 162.542C131.404 163.045 131.495 163.513 131.677 163.946C131.859 164.371 132.132 164.713 132.496 164.973C132.86 165.224 133.319 165.35 133.874 165.35C134.299 165.35 134.667 165.276 134.979 165.129C135.3 164.973 135.555 164.765 135.746 164.505C135.945 164.245 136.062 163.959 136.097 163.647H137.033C136.998 164.167 136.834 164.622 136.539 165.012C136.253 165.393 135.88 165.692 135.421 165.909C134.962 166.117 134.446 166.221 133.874 166.221ZM141.317 166.078C140.84 166.078 140.428 166.009 140.082 165.87C139.735 165.731 139.466 165.497 139.276 165.168C139.085 164.83 138.99 164.379 138.99 163.816V156.952H139.926V163.959C139.926 164.358 140.034 164.665 140.251 164.882C140.467 165.09 140.775 165.194 141.174 165.194H142.409V166.078H141.317ZM137.755 159.864V159.123H142.409V159.864H137.755ZM144.656 166V159.123H145.618V166H144.656ZM143.551 159.903V159.123H145.618V159.903H143.551ZM144.864 157.849C144.63 157.849 144.453 157.788 144.331 157.667C144.219 157.537 144.162 157.377 144.162 157.186C144.162 156.995 144.219 156.839 144.331 156.718C144.453 156.588 144.63 156.523 144.864 156.523C145.098 156.523 145.272 156.588 145.384 156.718C145.497 156.839 145.553 156.995 145.553 157.186C145.553 157.377 145.497 157.537 145.384 157.667C145.272 157.788 145.098 157.849 144.864 157.849ZM151.258 166.221C150.669 166.221 150.149 166.121 149.698 165.922C149.256 165.714 148.879 165.441 148.567 165.103C148.264 164.756 148.03 164.371 147.865 163.946C147.709 163.521 147.631 163.088 147.631 162.646V162.464C147.631 162.022 147.713 161.589 147.878 161.164C148.043 160.731 148.281 160.345 148.593 160.007C148.905 159.669 149.282 159.4 149.724 159.201C150.175 158.993 150.686 158.889 151.258 158.889C151.839 158.889 152.35 158.993 152.792 159.201C153.243 159.4 153.624 159.669 153.936 160.007C154.248 160.345 154.482 160.731 154.638 161.164C154.803 161.589 154.885 162.022 154.885 162.464V162.646C154.885 163.088 154.807 163.521 154.651 163.946C154.495 164.371 154.261 164.756 153.949 165.103C153.646 165.441 153.269 165.714 152.818 165.922C152.367 166.121 151.847 166.221 151.258 166.221ZM151.258 165.35C151.83 165.35 152.311 165.224 152.701 164.973C153.1 164.713 153.403 164.375 153.611 163.959C153.819 163.534 153.923 163.066 153.923 162.555C153.923 162.035 153.815 161.567 153.598 161.151C153.39 160.726 153.087 160.393 152.688 160.15C152.289 159.899 151.813 159.773 151.258 159.773C150.712 159.773 150.24 159.899 149.841 160.15C149.442 160.393 149.135 160.726 148.918 161.151C148.71 161.567 148.606 162.035 148.606 162.555C148.606 163.066 148.71 163.534 148.918 163.959C149.126 164.375 149.425 164.713 149.815 164.973C150.214 165.224 150.695 165.35 151.258 165.35ZM156.873 166V159.123H157.653V162.009H157.497C157.497 161.368 157.593 160.817 157.783 160.358C157.974 159.899 158.26 159.543 158.641 159.292C159.023 159.041 159.504 158.915 160.084 158.915H160.123C160.99 158.915 161.636 159.188 162.06 159.734C162.485 160.271 162.697 161.03 162.697 162.009V166H161.735V161.801C161.735 161.203 161.571 160.722 161.241 160.358C160.912 159.994 160.453 159.812 159.863 159.812C159.257 159.812 158.767 160.003 158.394 160.384C158.03 160.757 157.848 161.251 157.848 161.866V166H156.873ZM168.523 166V159.123H169.485V166H168.523ZM167.418 159.903V159.123H169.485V159.903H167.418ZM168.731 157.849C168.497 157.849 168.32 157.788 168.198 157.667C168.086 157.537 168.029 157.377 168.029 157.186C168.029 156.995 168.086 156.839 168.198 156.718C168.32 156.588 168.497 156.523 168.731 156.523C168.965 156.523 169.139 156.588 169.251 156.718C169.364 156.839 169.42 156.995 169.42 157.186C169.42 157.377 169.364 157.537 169.251 157.667C169.139 157.788 168.965 157.849 168.731 157.849ZM174.54 166.078C174.064 166.078 173.652 166.009 173.305 165.87C172.959 165.731 172.69 165.497 172.499 165.168C172.309 164.83 172.213 164.379 172.213 163.816V156.952H173.149V163.959C173.149 164.358 173.258 164.665 173.474 164.882C173.691 165.09 173.999 165.194 174.397 165.194H175.632V166.078H174.54ZM170.978 159.864V159.123H175.632V159.864H170.978ZM180.325 166.221C179.736 166.221 179.225 166.121 178.791 165.922C178.358 165.714 178.003 165.441 177.725 165.103C177.448 164.756 177.24 164.371 177.101 163.946C176.971 163.521 176.906 163.084 176.906 162.633V162.451C176.906 162.009 176.971 161.576 177.101 161.151C177.24 160.726 177.448 160.345 177.725 160.007C178.003 159.669 178.349 159.4 178.765 159.201C179.19 158.993 179.684 158.889 180.247 158.889C180.967 158.889 181.565 159.049 182.041 159.37C182.527 159.691 182.891 160.102 183.133 160.605C183.376 161.099 183.497 161.632 183.497 162.204V162.711H177.348V161.957H182.821L182.574 162.334C182.574 161.823 182.483 161.376 182.301 160.995C182.128 160.605 181.868 160.302 181.521 160.085C181.183 159.86 180.759 159.747 180.247 159.747C179.71 159.747 179.264 159.873 178.908 160.124C178.553 160.375 178.284 160.709 178.102 161.125C177.929 161.541 177.842 162.013 177.842 162.542C177.842 163.062 177.929 163.539 178.102 163.972C178.284 164.397 178.557 164.735 178.921 164.986C179.294 165.237 179.762 165.363 180.325 165.363C180.923 165.363 181.409 165.229 181.781 164.96C182.154 164.683 182.384 164.358 182.47 163.985H183.38C183.294 164.444 183.112 164.843 182.834 165.181C182.557 165.51 182.206 165.766 181.781 165.948C181.357 166.13 180.871 166.221 180.325 166.221ZM185.374 166V159.11H186.154V162.009H185.998C185.998 161.376 186.085 160.83 186.258 160.371C186.44 159.912 186.709 159.556 187.064 159.305C187.42 159.045 187.87 158.915 188.416 158.915H188.455C189.001 158.915 189.452 159.041 189.807 159.292C190.163 159.543 190.427 159.899 190.6 160.358C190.774 160.817 190.86 161.368 190.86 162.009H190.548C190.548 161.376 190.635 160.83 190.808 160.371C190.99 159.912 191.259 159.556 191.614 159.305C191.978 159.045 192.433 158.915 192.979 158.915H193.018C193.564 158.915 194.015 159.041 194.37 159.292C194.734 159.543 195.003 159.899 195.176 160.358C195.358 160.817 195.449 161.368 195.449 162.009V166H194.474V161.788C194.474 161.181 194.327 160.7 194.032 160.345C193.738 159.99 193.313 159.812 192.758 159.812C192.186 159.812 191.731 159.998 191.393 160.371C191.064 160.735 190.899 161.229 190.899 161.853V166H189.924V161.788C189.924 161.181 189.777 160.7 189.482 160.345C189.188 159.99 188.763 159.812 188.208 159.812C187.636 159.812 187.181 159.998 186.843 160.371C186.514 160.735 186.349 161.229 186.349 161.853V166H185.374ZM200.05 166.195C199.166 166.195 198.486 166.004 198.009 165.623C197.532 165.233 197.29 164.713 197.281 164.063H198.191C198.208 164.392 198.356 164.691 198.633 164.96C198.919 165.229 199.391 165.363 200.05 165.363C200.665 165.363 201.125 165.237 201.428 164.986C201.74 164.726 201.896 164.414 201.896 164.05C201.896 163.712 201.766 163.452 201.506 163.27C201.255 163.079 200.886 162.958 200.401 162.906L199.621 162.828C198.997 162.759 198.49 162.568 198.1 162.256C197.719 161.935 197.528 161.498 197.528 160.943C197.528 160.536 197.632 160.18 197.84 159.877C198.048 159.574 198.338 159.34 198.711 159.175C199.092 159.002 199.539 158.915 200.05 158.915C200.787 158.915 201.385 159.088 201.844 159.435C202.312 159.782 202.55 160.276 202.559 160.917H201.649C201.64 160.588 201.502 160.31 201.233 160.085C200.964 159.86 200.57 159.747 200.05 159.747C199.513 159.747 199.11 159.864 198.841 160.098C198.581 160.332 198.451 160.618 198.451 160.956C198.451 161.242 198.551 161.48 198.75 161.671C198.949 161.853 199.261 161.966 199.686 162.009L200.466 162.087C201.159 162.165 201.723 162.364 202.156 162.685C202.598 163.006 202.819 163.465 202.819 164.063C202.819 164.47 202.702 164.839 202.468 165.168C202.243 165.489 201.922 165.74 201.506 165.922C201.09 166.104 200.605 166.195 200.05 166.195Z" fill="black"/>
<g filter="url(#filter0_iii_736_2808)">
<circle cx="277.579" cy="34.5017" r="14.6658" fill="#F3FCFF"/>
</g>
<circle cx="277.579" cy="34.5017" r="14.6049" stroke="url(#paint1_linear_736_2808)" stroke-width="0.121707"/>
<path d="M285.247 34.8167C285.169 36.03 284.697 37.1377 283.958 38.0129V34.2839H282.447V39.2646C282.042 39.4932 281.606 39.6721 281.146 39.793V35.0332C281.146 33.8993 282.068 32.9769 283.202 32.9769C284.25 32.9769 285.138 33.7812 285.247 34.8167Z" fill="url(#paint2_linear_736_2808)"/>
<path d="M281.146 27.8048C281.606 27.9256 282.042 28.1046 282.447 28.3331V30.733H283.957V29.5849C284.545 30.2799 284.963 31.1213 285.15 32.0461C284.574 31.6702 283.901 31.467 283.202 31.467C282.437 31.467 281.727 31.7101 281.146 32.1221V27.8048H281.146Z" fill="url(#paint3_linear_736_2808)"/>
<path d="M274.012 35.0332V39.793C273.552 39.6721 273.116 39.4932 272.711 39.2646V34.2838H271.2V38.0129C270.461 37.1377 269.989 36.03 269.911 34.8166C270.02 33.7812 270.908 32.9769 271.955 32.9769C273.089 32.9769 274.012 33.8993 274.012 35.0332Z" fill="url(#paint4_linear_736_2808)"/>
<path d="M279.635 37.6759V39.9736H278.334V39.065H276.823V39.9736H275.523V37.6759C276.104 38.0879 276.813 38.331 277.579 38.331C278.344 38.331 279.053 38.0879 279.635 37.6759Z" fill="url(#paint5_linear_736_2808)"/>
<path d="M278.334 27.6237H279.635V34.7641C279.635 35.8979 278.713 36.8203 277.579 36.8203C276.445 36.8203 275.523 35.8979 275.523 34.7641V27.6237H276.823V35.5134H278.334V27.6237H278.334Z" fill="url(#paint6_linear_736_2808)"/>
<path d="M272.711 28.3332C273.116 28.1046 273.552 27.9257 274.012 27.8048V32.1221C273.43 31.7101 272.721 31.467 271.956 31.467C271.257 31.467 270.584 31.6702 270.008 32.0461C270.195 31.1214 270.613 30.2799 271.2 29.5849V30.733H272.711V28.3332H272.711Z" fill="url(#paint7_linear_736_2808)"/>
<path d="M277.646 42.9545C279.584 42.9545 280.798 41.6009 280.798 41.0864C280.798 40.9835 280.717 40.936 280.637 40.9993C280.05 41.4822 279.061 41.9571 277.646 41.9571C276.222 41.9571 275.209 41.4505 274.646 41.0072C274.566 40.936 274.486 40.9835 274.486 41.0864C274.486 41.6009 275.7 42.9545 277.646 42.9545Z" fill="url(#paint8_linear_736_2808)"/>
<defs>
<filter id="filter0_iii_736_2808" x="262.913" y="19.8359" width="29.3315" height="29.757" filterUnits="userSpaceOnUse" color-interpolation-filters="sRGB">
<feFlood flood-opacity="0" result="BackgroundImageFix"/>
<feBlend mode="normal" in="SourceGraphic" in2="BackgroundImageFix" result="shape"/>
<feColorMatrix in="SourceAlpha" type="matrix" values="0 0 0 0 0 0 0 0 0 0 0 0 0 0 0 0 0 0 127 0" result="hardAlpha"/>
<feOffset dy="0.243415"/>
<feGaussianBlur stdDeviation="0.48683"/>
<feComposite in2="hardAlpha" operator="arithmetic" k2="-1" k3="1"/>
<feColorMatrix type="matrix" values="0 0 0 0 1 0 0 0 0 1 0 0 0 0 1 0 0 0 1 0"/>
<feBlend mode="normal" in2="shape" result="effect1_innerShadow_736_2808"/>
<feColorMatrix in="SourceAlpha" type="matrix" values="0 0 0 0 0 0 0 0 0 0 0 0 0 0 0 0 0 0 127 0" result="hardAlpha"/>
<feOffset dy="0.425976"/>
<feGaussianBlur stdDeviation="0.304269"/>
<feComposite in2="hardAlpha" operator="arithmetic" k2="-1" k3="1"/>
<feColorMatrix type="matrix" values="0 0 0 0 1 0 0 0 0 1 0 0 0 0 1 0 0 0 1 0"/>
<feBlend mode="normal" in2="effect1_innerShadow_736_2808" result="effect2_innerShadow_736_2808"/>
<feColorMatrix in="SourceAlpha" type="matrix" values="0 0 0 0 0 0 0 0 0 0 0 0 0 0 0 0 0 0 127 0" result="hardAlpha"/>
<feOffset dy="0.243415"/>
<feGaussianBlur stdDeviation="0.730245"/>
<feComposite in2="hardAlpha" operator="arithmetic" k2="-1" k3="1"/>
<feColorMatrix type="matrix" values="0 0 0 0 1 0 0 0 0 1 0 0 0 0 1 0 0 0 1 0"/>
<feBlend mode="normal" in2="effect2_innerShadow_736_2808" result="effect3_innerShadow_736_2808"/>
</filter>
<linearGradient id="paint0_linear_736_2808" x1="276.453" y1="160.121" x2="276.453" y2="184.785" gradientUnits="userSpaceOnUse">
<stop stop-color="#28C7FA"/>
<stop offset="0.73" stop-color="#775ADA"/>
<stop offset="1" stop-color="#991D2F"/>
</linearGradient>
<linearGradient id="paint1_linear_736_2808" x1="268.207" y1="22.6048" x2="288.654" y2="44.2991" gradientUnits="userSpaceOnUse">
<stop stop-color="#775ADA"/>
<stop offset="0.470968" stop-color="#FF304F"/>
<stop offset="1" stop-color="#28C7FA"/>
</linearGradient>
<linearGradient id="paint2_linear_736_2808" x1="283.137" y1="37.8079" x2="275.798" y2="34.0136" gradientUnits="userSpaceOnUse">
<stop stop-color="#002651"/>
<stop offset="1" stop-color="#775ADA"/>
</linearGradient>
<linearGradient id="paint3_linear_736_2808" x1="283.09" y1="30.8648" x2="277.536" y2="26.4387" gradientUnits="userSpaceOnUse">
<stop stop-color="#002651"/>
<stop offset="1" stop-color="#775ADA"/>
</linearGradient>
<linearGradient id="paint4_linear_736_2808" x1="271.902" y1="37.8079" x2="264.563" y2="34.0136" gradientUnits="userSpaceOnUse">
<stop stop-color="#002651"/>
<stop offset="1" stop-color="#775ADA"/>
</linearGradient>
<linearGradient id="paint5_linear_736_2808" x1="277.519" y1="39.3045" x2="274.748" y2="35.0422" gradientUnits="userSpaceOnUse">
<stop stop-color="#002651"/>
<stop offset="1" stop-color="#775ADA"/>
</linearGradient>
<linearGradient id="paint6_linear_736_2808" x1="277.519" y1="34.142" x2="269.392" y2="31.0187" gradientUnits="userSpaceOnUse">
<stop stop-color="#002651"/>
<stop offset="1" stop-color="#775ADA"/>
</linearGradient>
<linearGradient id="paint7_linear_736_2808" x1="271.952" y1="30.8648" x2="266.399" y2="26.4387" gradientUnits="userSpaceOnUse">
<stop stop-color="#002651"/>
<stop offset="1" stop-color="#775ADA"/>
</linearGradient>
<linearGradient id="paint8_linear_736_2808" x1="276.324" y1="41.9915" x2="277.457" y2="46.185" gradientUnits="userSpaceOnUse">
<stop stop-color="#002651"/>
<stop offset="1" stop-color="#775ADA"/>
</linearGradient>
</defs>
</svg>
