<svg width="310" height="170" viewBox="0 0 310 170" fill="none" xmlns="http://www.w3.org/2000/svg">
<path d="M1.5 40C1.5 30.5295 1.50319 23.5775 2.21886 18.2544C2.92873 12.9745 4.31475 9.5223 6.91852 6.91852C9.5223 4.31475 12.9745 2.92873 18.2544 2.21886C23.5775 1.50319 30.5295 1.5 40 1.5H270C279.47 1.5 286.422 1.50319 291.746 2.21886C297.026 2.92873 300.478 4.31475 303.081 6.91853C305.685 9.5223 307.071 12.9745 307.781 18.2544C308.497 23.5775 308.5 30.5295 308.5 40V168.5H1.5V40Z" fill="white" stroke="#4D30AF" stroke-width="3"/>
<g filter="url(#filter0_iii_639_3296)">
<circle cx="275" cy="35" r="19" fill="#F3FCFF"/>
</g>
<circle cx="275" cy="35" r="18.9212" stroke="url(#paint0_linear_639_3296)" stroke-width="0.157676"/>
<path d="M284.934 35.4105C284.833 36.9824 284.221 38.4175 283.264 39.5513V34.7202H281.306V41.1729C280.782 41.469 280.217 41.7009 279.621 41.8574V35.6909C279.621 34.222 280.816 33.027 282.285 33.027C283.642 33.027 284.793 34.069 284.934 35.4105Z" fill="url(#paint1_linear_639_3296)"/>
<path d="M279.621 26.3253C280.217 26.4818 280.782 26.7137 281.306 27.0098V30.1188H283.264V28.6314C284.024 29.5319 284.567 30.622 284.808 31.8201C284.062 31.333 283.19 31.0698 282.285 31.0698C281.293 31.0698 280.375 31.3847 279.621 31.9185V26.3253H279.621Z" fill="url(#paint2_linear_639_3296)"/>
<path d="M270.379 35.6909V41.8574C269.783 41.7009 269.218 41.469 268.694 41.1729V34.7201H266.736V39.5513C265.779 38.4174 265.167 36.9823 265.066 35.4103C265.207 34.069 266.358 33.027 267.715 33.027C269.184 33.027 270.379 34.222 270.379 35.6909Z" fill="url(#paint3_linear_639_3296)"/>
<path d="M277.664 39.1146V42.0913H275.979V40.9142H274.021V42.0913H272.336V39.1146C273.09 39.6482 274.008 39.9632 275 39.9632C275.992 39.9632 276.91 39.6482 277.664 39.1146Z" fill="url(#paint4_linear_639_3296)"/>
<path d="M275.979 26.0913H277.664V35.3419C277.664 36.8109 276.469 38.0059 275 38.0059C273.531 38.0059 272.336 36.8109 272.336 35.3419V26.0914H274.021V36.3127H275.978V26.0913H275.979Z" fill="url(#paint5_linear_639_3296)"/>
<path d="M268.694 27.0098C269.218 26.7137 269.783 26.4819 270.379 26.3253V31.9185C269.625 31.3847 268.706 31.0698 267.715 31.0698C266.81 31.0698 265.937 31.3331 265.192 31.8201C265.433 30.6221 265.976 29.5319 266.736 28.6314V30.1188H268.693V27.0098H268.694Z" fill="url(#paint6_linear_639_3296)"/>
<path d="M275.087 45.9515C277.597 45.9515 279.17 44.1978 279.17 43.5312C279.17 43.3979 279.066 43.3364 278.962 43.4184C278.202 44.044 276.92 44.6593 275.087 44.6593C273.243 44.6593 271.93 44.0029 271.201 43.4286C271.097 43.3364 270.993 43.3979 270.993 43.5312C270.993 44.1978 272.566 45.9515 275.087 45.9515Z" fill="url(#paint7_linear_639_3296)"/>
<path d="M275 122L273.74 124.75L271 126L273.74 127.26L275 130L276.25 127.26L279 126L276.25 124.75M265 125L262.5 130.5L257 133L262.5 135.5L265 141L267.5 135.5L273 133L267.5 130.5M275 136L273.74 138.74L271 140L273.74 141.25L275 144L276.25 141.25L279 140L276.25 138.74" fill="url(#paint8_linear_639_3296)"/>
<path d="M16 23C16 19.134 19.134 16 23 16H230.48H248.346C250.695 16 251.644 19.0272 249.715 20.3678C248.21 21.4137 247.312 23.1303 247.312 24.9631V47C247.312 50.866 244.178 54 240.312 54H23C19.134 54 16 50.866 16 47V23Z" fill="#E3F3F8"/>
<path d="M37.828 39.187C37.1533 39.187 36.585 39.0807 36.123 38.868C35.661 38.648 35.309 38.3473 35.067 37.966C34.8323 37.5773 34.715 37.141 34.715 36.657H35.551C35.551 36.965 35.6243 37.2547 35.771 37.526C35.925 37.79 36.167 38.0063 36.497 38.175C36.8343 38.3363 37.278 38.417 37.828 38.417C38.334 38.417 38.752 38.3437 39.082 38.197C39.4193 38.0503 39.6687 37.8523 39.83 37.603C39.9987 37.3537 40.083 37.075 40.083 36.767C40.083 36.3783 39.929 36.0557 39.621 35.799C39.3203 35.535 38.8657 35.3773 38.257 35.326L37.333 35.238C36.6437 35.1793 36.0937 34.9667 35.683 34.6C35.2797 34.226 35.078 33.7347 35.078 33.126C35.078 32.664 35.188 32.257 35.408 31.905C35.628 31.553 35.9397 31.2743 36.343 31.069C36.7537 30.8637 37.245 30.761 37.817 30.761C38.3963 30.761 38.8913 30.8673 39.302 31.08C39.72 31.2853 40.039 31.5713 40.259 31.938C40.479 32.3047 40.589 32.73 40.589 33.214H39.753C39.753 32.9207 39.687 32.6457 39.555 32.389C39.423 32.1323 39.214 31.927 38.928 31.773C38.642 31.6117 38.2717 31.531 37.817 31.531C37.3843 31.531 37.025 31.6043 36.739 31.751C36.4603 31.8977 36.2513 32.092 36.112 32.334C35.98 32.576 35.914 32.84 35.914 33.126C35.914 33.4853 36.0423 33.7897 36.299 34.039C36.5557 34.2883 36.926 34.4313 37.41 34.468L38.334 34.556C38.8767 34.6 39.3387 34.721 39.72 34.919C40.1087 35.1097 40.4057 35.3627 40.611 35.678C40.8163 35.986 40.919 36.349 40.919 36.767C40.919 37.2363 40.7907 37.6543 40.534 38.021C40.2847 38.3877 39.929 38.6737 39.467 38.879C39.005 39.0843 38.4587 39.187 37.828 39.187ZM45.1899 39.187C44.6986 39.187 44.2696 39.1027 43.9029 38.934C43.5436 38.758 43.2429 38.5233 43.0009 38.23C42.7589 37.9293 42.5756 37.5993 42.4509 37.24C42.3336 36.8807 42.2749 36.5177 42.2749 36.151V35.997C42.2749 35.623 42.3336 35.26 42.4509 34.908C42.5756 34.5487 42.7589 34.226 43.0009 33.94C43.2429 33.6467 43.5436 33.4157 43.9029 33.247C44.2696 33.071 44.6913 32.983 45.1679 32.983C45.6519 32.983 46.0809 33.071 46.4549 33.247C46.8363 33.423 47.1443 33.6723 47.3789 33.995C47.6136 34.3177 47.7529 34.699 47.7969 35.139H47.0049C46.9389 34.7357 46.7483 34.402 46.4329 34.138C46.1249 33.8667 45.7033 33.731 45.1679 33.731C44.7059 33.731 44.3209 33.8373 44.0129 34.05C43.7123 34.2553 43.4849 34.5377 43.3309 34.897C43.1769 35.249 43.0999 35.6413 43.0999 36.074C43.0999 36.4993 43.1769 36.8953 43.3309 37.262C43.4849 37.6213 43.7159 37.911 44.0239 38.131C44.3319 38.3437 44.7206 38.45 45.1899 38.45C45.5493 38.45 45.8609 38.3877 46.1249 38.263C46.3963 38.131 46.6126 37.955 46.7739 37.735C46.9426 37.515 47.0416 37.273 47.0709 37.009H47.8629C47.8336 37.449 47.6943 37.834 47.4449 38.164C47.2029 38.4867 46.8876 38.7397 46.4989 38.923C46.1103 39.099 45.6739 39.187 45.1899 39.187ZM49.3756 39V30.97H50.2006V35.513L49.9586 35.7C49.9586 35.1573 50.0356 34.6843 50.1896 34.281C50.3509 33.8777 50.5893 33.566 50.9046 33.346C51.2273 33.1187 51.6306 33.005 52.1146 33.005H52.1586C52.8626 33.005 53.3943 33.236 53.7536 33.698C54.1203 34.16 54.3036 34.8017 54.3036 35.623V39H53.4896V35.447C53.4896 34.9263 53.3466 34.5157 53.0606 34.215C52.7746 33.9143 52.3896 33.764 51.9056 33.764C51.3849 33.764 50.9706 33.9327 50.6626 34.27C50.3546 34.6 50.2006 35.0363 50.2006 35.579V39H49.3756ZM58.789 39.187C58.2903 39.187 57.8577 39.1027 57.491 38.934C57.1243 38.758 56.8237 38.527 56.589 38.241C56.3543 37.9477 56.1783 37.6213 56.061 37.262C55.951 36.9027 55.896 36.5323 55.896 36.151V35.997C55.896 35.623 55.951 35.2563 56.061 34.897C56.1783 34.5377 56.3543 34.215 56.589 33.929C56.8237 33.643 57.117 33.4157 57.469 33.247C57.8283 33.071 58.2463 32.983 58.723 32.983C59.3317 32.983 59.8377 33.1187 60.241 33.39C60.6517 33.6613 60.9597 34.0097 61.165 34.435C61.3703 34.853 61.473 35.304 61.473 35.788V36.217H56.27V35.579H60.901L60.692 35.898C60.692 35.4653 60.615 35.0877 60.461 34.765C60.3143 34.435 60.0943 34.1783 59.801 33.995C59.515 33.8043 59.1557 33.709 58.723 33.709C58.2683 33.709 57.8907 33.8153 57.59 34.028C57.2893 34.2407 57.062 34.523 56.908 34.875C56.7613 35.227 56.688 35.6267 56.688 36.074C56.688 36.514 56.7613 36.9173 56.908 37.284C57.062 37.6433 57.293 37.9293 57.601 38.142C57.9163 38.3547 58.3123 38.461 58.789 38.461C59.295 38.461 59.7057 38.3473 60.021 38.12C60.3363 37.8853 60.5307 37.6103 60.604 37.295H61.374C61.3007 37.6837 61.1467 38.021 60.912 38.307C60.6773 38.5857 60.3803 38.802 60.021 38.956C59.6617 39.11 59.251 39.187 58.789 39.187ZM65.4481 39.187C65.0228 39.187 64.6341 39.11 64.2821 38.956C63.9375 38.7947 63.6368 38.5747 63.3801 38.296C63.1308 38.01 62.9365 37.6873 62.7971 37.328C62.6651 36.9613 62.5991 36.5727 62.5991 36.162V36.008C62.5991 35.612 62.6651 35.2343 62.7971 34.875C62.9291 34.5083 63.1161 34.1857 63.3581 33.907C63.6075 33.621 63.9045 33.3973 64.2491 33.236C64.6011 33.0673 64.9935 32.983 65.4261 32.983C65.9175 32.983 66.3501 33.0893 66.7241 33.302C67.0981 33.5147 67.3988 33.8227 67.6261 34.226C67.8535 34.622 67.9745 35.1097 67.9891 35.689L67.6261 35.007V30.97H68.4511V39H67.7911V36.415H68.0551C68.0405 37.0237 67.9121 37.537 67.6701 37.955C67.4355 38.3657 67.1238 38.6737 66.7351 38.879C66.3538 39.0843 65.9248 39.187 65.4481 39.187ZM65.5581 38.461C65.9541 38.461 66.3098 38.373 66.6251 38.197C66.9478 38.021 67.2008 37.7717 67.3841 37.449C67.5675 37.119 67.6591 36.7413 67.6591 36.316V35.788C67.6591 35.3773 67.5675 35.018 67.3841 34.71C67.2008 34.3947 66.9478 34.149 66.6251 33.973C66.3098 33.797 65.9505 33.709 65.5471 33.709C65.1145 33.709 64.7368 33.8153 64.4141 34.028C64.0988 34.2333 63.8531 34.5157 63.6771 34.875C63.5085 35.2343 63.4241 35.6377 63.4241 36.085C63.4241 36.547 63.5121 36.9577 63.6881 37.317C63.8641 37.6763 64.1135 37.9587 64.4361 38.164C64.7588 38.362 65.1328 38.461 65.5581 38.461ZM72.5937 39.165C71.897 39.165 71.3653 38.9413 70.9987 38.494C70.632 38.0393 70.4487 37.4087 70.4487 36.602V33.17H71.2627V36.767C71.2627 37.273 71.3947 37.6763 71.6587 37.977C71.93 38.2703 72.304 38.417 72.7807 38.417C73.2793 38.417 73.6753 38.2593 73.9687 37.944C74.2693 37.6287 74.4197 37.207 74.4197 36.679V33.17H75.2447V39H74.5847V36.569H74.7167C74.7167 37.1117 74.6397 37.5773 74.4857 37.966C74.3317 38.3473 74.1007 38.6443 73.7927 38.857C73.4847 39.0623 73.096 39.165 72.6267 39.165H72.5937ZM77.457 39V30.97H78.282V39H77.457ZM76.61 31.641V30.97H78.282V31.641H76.61ZM82.8515 39.187C82.3528 39.187 81.9202 39.1027 81.5535 38.934C81.1868 38.758 80.8862 38.527 80.6515 38.241C80.4168 37.9477 80.2408 37.6213 80.1235 37.262C80.0135 36.9027 79.9585 36.5323 79.9585 36.151V35.997C79.9585 35.623 80.0135 35.2563 80.1235 34.897C80.2408 34.5377 80.4168 34.215 80.6515 33.929C80.8862 33.643 81.1795 33.4157 81.5315 33.247C81.8908 33.071 82.3088 32.983 82.7855 32.983C83.3942 32.983 83.9002 33.1187 84.3035 33.39C84.7142 33.6613 85.0222 34.0097 85.2275 34.435C85.4328 34.853 85.5355 35.304 85.5355 35.788V36.217H80.3325V35.579H84.9635L84.7545 35.898C84.7545 35.4653 84.6775 35.0877 84.5235 34.765C84.3768 34.435 84.1568 34.1783 83.8635 33.995C83.5775 33.8043 83.2182 33.709 82.7855 33.709C82.3308 33.709 81.9532 33.8153 81.6525 34.028C81.3518 34.2407 81.1245 34.523 80.9705 34.875C80.8238 35.227 80.7505 35.6267 80.7505 36.074C80.7505 36.514 80.8238 36.9173 80.9705 37.284C81.1245 37.6433 81.3555 37.9293 81.6635 38.142C81.9788 38.3547 82.3748 38.461 82.8515 38.461C83.3575 38.461 83.7682 38.3473 84.0835 38.12C84.3988 37.8853 84.5932 37.6103 84.6665 37.295H85.4365C85.3632 37.6837 85.2092 38.021 84.9745 38.307C84.7398 38.5857 84.4428 38.802 84.0835 38.956C83.7242 39.11 83.3135 39.187 82.8515 39.187ZM91.319 39L92.562 33.368H93.717L95.158 39H94.443L93.002 33.401H93.266L92.012 39H91.319ZM90.846 39V38.329H91.847V39H90.846ZM90.648 39L88.965 33.181H89.757L91.418 39H90.648ZM94.63 39V38.329H95.609V39H94.63ZM95.059 39L96.511 33.181H97.27L95.785 39H95.059ZM101.124 39.187C100.625 39.187 100.193 39.1027 99.826 38.934C99.4593 38.758 99.1586 38.527 98.924 38.241C98.6893 37.9477 98.5133 37.6213 98.396 37.262C98.286 36.9027 98.231 36.5323 98.231 36.151V35.997C98.231 35.623 98.286 35.2563 98.396 34.897C98.5133 34.5377 98.6893 34.215 98.924 33.929C99.1586 33.643 99.452 33.4157 99.804 33.247C100.163 33.071 100.581 32.983 101.058 32.983C101.667 32.983 102.173 33.1187 102.576 33.39C102.987 33.6613 103.295 34.0097 103.5 34.435C103.705 34.853 103.808 35.304 103.808 35.788V36.217H98.605V35.579H103.236L103.027 35.898C103.027 35.4653 102.95 35.0877 102.796 34.765C102.649 34.435 102.429 34.1783 102.136 33.995C101.85 33.8043 101.491 33.709 101.058 33.709C100.603 33.709 100.226 33.8153 99.925 34.028C99.6243 34.2407 99.397 34.523 99.243 34.875C99.0963 35.227 99.023 35.6267 99.023 36.074C99.023 36.514 99.0963 36.9173 99.243 37.284C99.397 37.6433 99.628 37.9293 99.936 38.142C100.251 38.3547 100.647 38.461 101.124 38.461C101.63 38.461 102.041 38.3473 102.356 38.12C102.671 37.8853 102.866 37.6103 102.939 37.295H103.709C103.636 37.6837 103.482 38.021 103.247 38.307C103.012 38.5857 102.715 38.802 102.356 38.956C101.997 39.11 101.586 39.187 101.124 39.187ZM107.827 39.187C107.328 39.187 106.896 39.1027 106.529 38.934C106.162 38.758 105.862 38.527 105.627 38.241C105.392 37.9477 105.216 37.6213 105.099 37.262C104.989 36.9027 104.934 36.5323 104.934 36.151V35.997C104.934 35.623 104.989 35.2563 105.099 34.897C105.216 34.5377 105.392 34.215 105.627 33.929C105.862 33.643 106.155 33.4157 106.507 33.247C106.866 33.071 107.284 32.983 107.761 32.983C108.37 32.983 108.876 33.1187 109.279 33.39C109.69 33.6613 109.998 34.0097 110.203 34.435C110.408 34.853 110.511 35.304 110.511 35.788V36.217H105.308V35.579H109.939L109.73 35.898C109.73 35.4653 109.653 35.0877 109.499 34.765C109.352 34.435 109.132 34.1783 108.839 33.995C108.553 33.8043 108.194 33.709 107.761 33.709C107.306 33.709 106.929 33.8153 106.628 34.028C106.327 34.2407 106.1 34.523 105.946 34.875C105.799 35.227 105.726 35.6267 105.726 36.074C105.726 36.514 105.799 36.9173 105.946 37.284C106.1 37.6433 106.331 37.9293 106.639 38.142C106.954 38.3547 107.35 38.461 107.827 38.461C108.333 38.461 108.744 38.3473 109.059 38.12C109.374 37.8853 109.569 37.6103 109.642 37.295H110.412C110.339 37.6837 110.185 38.021 109.95 38.307C109.715 38.5857 109.418 38.802 109.059 38.956C108.7 39.11 108.289 39.187 107.827 39.187ZM116.059 39L113.716 36.272H112.77L115.531 33.181H116.411L113.936 35.942L113.991 35.491L117.027 39H116.059ZM112.099 39V30.97H112.924V39H112.099ZM118.159 39V30.97H118.984V39H118.159ZM117.312 31.641V30.97H118.984V31.641H117.312ZM120.606 41.266V40.529H121.354C121.61 40.529 121.83 40.496 122.014 40.43C122.197 40.3713 122.351 40.265 122.476 40.111C122.6 39.957 122.707 39.7443 122.795 39.473L124.753 33.181H125.556L123.51 39.704C123.392 40.078 123.231 40.3787 123.026 40.606C122.82 40.8407 122.575 41.0093 122.289 41.112C122.003 41.2147 121.676 41.266 121.31 41.266H120.606ZM122.498 38.857V38.164H123.543V38.857H122.498ZM122.399 38.857L120.287 33.181H121.134L123.169 38.857H122.399ZM129.566 39V33.17H130.226V35.623H130.094C130.094 35.0877 130.167 34.6257 130.314 34.237C130.468 33.8483 130.695 33.5477 130.996 33.335C131.297 33.115 131.678 33.005 132.14 33.005H132.173C132.635 33.005 133.016 33.1113 133.317 33.324C133.618 33.5367 133.841 33.8373 133.988 34.226C134.135 34.6147 134.208 35.0803 134.208 35.623H133.944C133.944 35.0877 134.017 34.6257 134.164 34.237C134.318 33.8483 134.545 33.5477 134.846 33.335C135.154 33.115 135.539 33.005 136.001 33.005H136.034C136.496 33.005 136.877 33.1113 137.178 33.324C137.486 33.5367 137.713 33.8373 137.86 34.226C138.014 34.6147 138.091 35.0803 138.091 35.623V39H137.266V35.436C137.266 34.9227 137.141 34.5157 136.892 34.215C136.643 33.9143 136.283 33.764 135.814 33.764C135.33 33.764 134.945 33.9217 134.659 34.237C134.38 34.545 134.241 34.963 134.241 35.491V39H133.416V35.436C133.416 34.9227 133.291 34.5157 133.042 34.215C132.793 33.9143 132.433 33.764 131.964 33.764C131.48 33.764 131.095 33.9217 130.809 34.237C130.53 34.545 130.391 34.963 130.391 35.491V39H129.566ZM142.578 39.187C142.079 39.187 141.647 39.1027 141.28 38.934C140.913 38.758 140.613 38.527 140.378 38.241C140.143 37.9477 139.967 37.6213 139.85 37.262C139.74 36.9027 139.685 36.5323 139.685 36.151V35.997C139.685 35.623 139.74 35.2563 139.85 34.897C139.967 34.5377 140.143 34.215 140.378 33.929C140.613 33.643 140.906 33.4157 141.258 33.247C141.617 33.071 142.035 32.983 142.512 32.983C143.121 32.983 143.627 33.1187 144.03 33.39C144.441 33.6613 144.749 34.0097 144.954 34.435C145.159 34.853 145.262 35.304 145.262 35.788V36.217H140.059V35.579H144.69L144.481 35.898C144.481 35.4653 144.404 35.0877 144.25 34.765C144.103 34.435 143.883 34.1783 143.59 33.995C143.304 33.8043 142.945 33.709 142.512 33.709C142.057 33.709 141.68 33.8153 141.379 34.028C141.078 34.2407 140.851 34.523 140.697 34.875C140.55 35.227 140.477 35.6267 140.477 36.074C140.477 36.514 140.55 36.9173 140.697 37.284C140.851 37.6433 141.082 37.9293 141.39 38.142C141.705 38.3547 142.101 38.461 142.578 38.461C143.084 38.461 143.495 38.3473 143.81 38.12C144.125 37.8853 144.32 37.6103 144.393 37.295H145.163C145.09 37.6837 144.936 38.021 144.701 38.307C144.466 38.5857 144.169 38.802 143.81 38.956C143.451 39.11 143.04 39.187 142.578 39.187ZM149.281 39.187C148.783 39.187 148.35 39.1027 147.983 38.934C147.617 38.758 147.316 38.527 147.081 38.241C146.847 37.9477 146.671 37.6213 146.553 37.262C146.443 36.9027 146.388 36.5323 146.388 36.151V35.997C146.388 35.623 146.443 35.2563 146.553 34.897C146.671 34.5377 146.847 34.215 147.081 33.929C147.316 33.643 147.609 33.4157 147.961 33.247C148.321 33.071 148.739 32.983 149.215 32.983C149.824 32.983 150.33 33.1187 150.733 33.39C151.144 33.6613 151.452 34.0097 151.657 34.435C151.863 34.853 151.965 35.304 151.965 35.788V36.217H146.762V35.579H151.393L151.184 35.898C151.184 35.4653 151.107 35.0877 150.953 34.765C150.807 34.435 150.587 34.1783 150.293 33.995C150.007 33.8043 149.648 33.709 149.215 33.709C148.761 33.709 148.383 33.8153 148.082 34.028C147.782 34.2407 147.554 34.523 147.4 34.875C147.254 35.227 147.18 35.6267 147.18 36.074C147.18 36.514 147.254 36.9173 147.4 37.284C147.554 37.6433 147.785 37.9293 148.093 38.142C148.409 38.3547 148.805 38.461 149.281 38.461C149.787 38.461 150.198 38.3473 150.513 38.12C150.829 37.8853 151.023 37.6103 151.096 37.295H151.866C151.793 37.6837 151.639 38.021 151.404 38.307C151.17 38.5857 150.873 38.802 150.513 38.956C150.154 39.11 149.743 39.187 149.281 39.187ZM155.665 39.066C155.262 39.066 154.914 39.0073 154.62 38.89C154.327 38.7727 154.1 38.5747 153.938 38.296C153.777 38.01 153.696 37.6287 153.696 37.152V31.344H154.488V37.273C154.488 37.6103 154.58 37.8707 154.763 38.054C154.947 38.23 155.207 38.318 155.544 38.318H156.589V39.066H155.665ZM152.651 33.808V33.181H156.589V33.808H152.651ZM158.491 39V33.181H159.305V39H158.491ZM157.556 33.841V33.181H159.305V33.841H157.556ZM158.667 32.103C158.469 32.103 158.319 32.0517 158.216 31.949C158.121 31.839 158.073 31.7033 158.073 31.542C158.073 31.3807 158.121 31.2487 158.216 31.146C158.319 31.036 158.469 30.981 158.667 30.981C158.865 30.981 159.012 31.036 159.107 31.146C159.203 31.2487 159.25 31.3807 159.25 31.542C159.25 31.7033 159.203 31.839 159.107 31.949C159.012 32.0517 158.865 32.103 158.667 32.103ZM161.47 39V33.181H162.13V35.623H161.998C161.998 35.0803 162.079 34.6147 162.24 34.226C162.402 33.8373 162.644 33.5367 162.966 33.324C163.289 33.1113 163.696 33.005 164.187 33.005H164.22C164.954 33.005 165.5 33.236 165.859 33.698C166.219 34.1527 166.398 34.7943 166.398 35.623V39H165.584V35.447C165.584 34.941 165.445 34.534 165.166 34.226C164.888 33.918 164.499 33.764 164 33.764C163.487 33.764 163.073 33.9253 162.757 34.248C162.449 34.5633 162.295 34.9813 162.295 35.502V39H161.47ZM170.675 41.277C170.403 41.277 170.128 41.2623 169.85 41.233C169.578 41.211 169.318 41.1817 169.069 41.145V40.441C169.333 40.4777 169.608 40.507 169.894 40.529C170.187 40.5583 170.462 40.573 170.719 40.573C171.276 40.573 171.72 40.4997 172.05 40.353C172.38 40.2063 172.614 39.9717 172.754 39.649C172.9 39.3337 172.974 38.9157 172.974 38.395V37.229L173.282 36.415C173.267 36.9723 173.15 37.4527 172.93 37.856C172.71 38.252 172.413 38.5563 172.039 38.769C171.665 38.9817 171.239 39.088 170.763 39.088C170.345 39.088 169.963 39.0073 169.619 38.846C169.281 38.6847 168.992 38.4647 168.75 38.186C168.508 37.9 168.321 37.5773 168.189 37.218C168.057 36.8587 167.991 36.481 167.991 36.085V35.931C167.991 35.5423 168.057 35.172 168.189 34.82C168.321 34.4607 168.508 34.1453 168.75 33.874C168.992 33.5953 169.285 33.379 169.63 33.225C169.982 33.0637 170.37 32.983 170.796 32.983C171.309 32.983 171.756 33.0967 172.138 33.324C172.519 33.5513 172.816 33.8667 173.029 34.27C173.249 34.6733 173.366 35.1463 173.381 35.689L173.117 35.546V33.181H173.766V38.362C173.766 39.0587 173.663 39.6197 173.458 40.045C173.252 40.4703 172.922 40.782 172.468 40.98C172.02 41.178 171.423 41.277 170.675 41.277ZM170.906 38.329C171.302 38.329 171.654 38.2447 171.962 38.076C172.277 37.9 172.526 37.6543 172.71 37.339C172.893 37.0237 172.985 36.657 172.985 36.239V35.7C172.985 35.2967 172.889 34.9447 172.699 34.644C172.515 34.3433 172.27 34.1087 171.962 33.94C171.654 33.7713 171.302 33.687 170.906 33.687C170.48 33.687 170.11 33.7897 169.795 33.995C169.479 34.2003 169.237 34.479 169.069 34.831C168.9 35.1757 168.816 35.568 168.816 36.008C168.816 36.4553 168.9 36.855 169.069 37.207C169.245 37.559 169.49 37.834 169.806 38.032C170.121 38.23 170.488 38.329 170.906 38.329Z" fill="#0A323E"/>
<path d="M227 32.5L222.8 37.5L221 35.5" stroke="#1E95BB" stroke-width="1.1875" stroke-linecap="round" stroke-linejoin="round"/>
<path d="M228.5 29H219.5C218.672 29 218 29.6716 218 30.5V39.5C218 40.3284 218.672 41 219.5 41H228.5C229.328 41 230 40.3284 230 39.5V30.5C230 29.6716 229.328 29 228.5 29Z" stroke="#1E95BB" stroke-width="1.1875" stroke-linejoin="round"/>
<path d="M16 67C16 63.134 19.134 60 23 60H230.48H244.312C245.969 60 247.312 61.3431 247.312 63V66.0374V91C247.312 94.866 244.178 98 240.312 98H23C19.134 98 16 94.866 16 91V67Z" fill="#E3F3F8"/>
<path d="M35.254 83V74.937H36.09V83H35.254ZM40.237 83L37.498 79.447H38.477L41.26 83H40.237ZM35.749 79.953V79.205H37.905C38.301 79.205 38.631 79.128 38.895 78.974C39.159 78.82 39.357 78.611 39.489 78.347C39.621 78.083 39.687 77.7823 39.687 77.445C39.687 77.1077 39.621 76.807 39.489 76.543C39.357 76.279 39.159 76.07 38.895 75.916C38.631 75.7547 38.301 75.674 37.905 75.674H35.749V74.937H37.762C38.356 74.937 38.8583 75.0323 39.269 75.223C39.687 75.4063 40.0023 75.6813 40.215 76.048C40.435 76.4073 40.545 76.8473 40.545 77.368V77.522C40.545 78.0427 40.435 78.4863 40.215 78.853C39.995 79.2123 39.6797 79.4873 39.269 79.678C38.8583 79.8613 38.356 79.953 37.762 79.953H35.749ZM44.9423 83.187C44.4437 83.187 44.011 83.1027 43.6443 82.934C43.2777 82.758 42.977 82.527 42.7423 82.241C42.5077 81.9477 42.3317 81.6213 42.2143 81.262C42.1043 80.9027 42.0493 80.5323 42.0493 80.151V79.997C42.0493 79.623 42.1043 79.2563 42.2143 78.897C42.3317 78.5377 42.5077 78.215 42.7423 77.929C42.977 77.643 43.2703 77.4157 43.6223 77.247C43.9817 77.071 44.3997 76.983 44.8763 76.983C45.485 76.983 45.991 77.1187 46.3943 77.39C46.805 77.6613 47.113 78.0097 47.3183 78.435C47.5237 78.853 47.6263 79.304 47.6263 79.788V80.217H42.4233V79.579H47.0543L46.8453 79.898C46.8453 79.4653 46.7683 79.0877 46.6143 78.765C46.4677 78.435 46.2477 78.1783 45.9543 77.995C45.6683 77.8043 45.309 77.709 44.8763 77.709C44.4217 77.709 44.044 77.8153 43.7433 78.028C43.4427 78.2407 43.2153 78.523 43.0613 78.875C42.9147 79.227 42.8413 79.6267 42.8413 80.074C42.8413 80.514 42.9147 80.9173 43.0613 81.284C43.2153 81.6433 43.4463 81.9293 43.7543 82.142C44.0697 82.3547 44.4657 82.461 44.9423 82.461C45.4483 82.461 45.859 82.3473 46.1743 82.12C46.4897 81.8853 46.684 81.6103 46.7573 81.295H47.5273C47.454 81.6837 47.3 82.021 47.0653 82.307C46.8307 82.5857 46.5337 82.802 46.1743 82.956C45.815 83.11 45.4043 83.187 44.9423 83.187ZM50.4695 83L48.4235 77.181H49.2705L51.2945 83H50.4695ZM50.6895 83V82.329H51.7345V83H50.6895ZM51.1405 83L52.9115 77.181H53.7255L51.9215 83H51.1405ZM55.4951 83V77.181H56.3091V83H55.4951ZM54.5601 77.841V77.181H56.3091V77.841H54.5601ZM55.6711 76.103C55.4731 76.103 55.3228 76.0517 55.2201 75.949C55.1248 75.839 55.0771 75.7033 55.0771 75.542C55.0771 75.3807 55.1248 75.2487 55.2201 75.146C55.3228 75.036 55.4731 74.981 55.6711 74.981C55.8691 74.981 56.0158 75.036 56.1111 75.146C56.2065 75.2487 56.2541 75.3807 56.2541 75.542C56.2541 75.7033 56.2065 75.839 56.1111 75.949C56.0158 76.0517 55.8691 76.103 55.6711 76.103ZM60.9052 83.187C60.4066 83.187 59.9739 83.1027 59.6072 82.934C59.2406 82.758 58.9399 82.527 58.7052 82.241C58.4706 81.9477 58.2946 81.6213 58.1772 81.262C58.0672 80.9027 58.0122 80.5323 58.0122 80.151V79.997C58.0122 79.623 58.0672 79.2563 58.1772 78.897C58.2946 78.5377 58.4706 78.215 58.7052 77.929C58.9399 77.643 59.2332 77.4157 59.5852 77.247C59.9446 77.071 60.3626 76.983 60.8392 76.983C61.4479 76.983 61.9539 77.1187 62.3572 77.39C62.7679 77.6613 63.0759 78.0097 63.2812 78.435C63.4866 78.853 63.5892 79.304 63.5892 79.788V80.217H58.3862V79.579H63.0172L62.8082 79.898C62.8082 79.4653 62.7312 79.0877 62.5772 78.765C62.4306 78.435 62.2106 78.1783 61.9172 77.995C61.6312 77.8043 61.2719 77.709 60.8392 77.709C60.3846 77.709 60.0069 77.8153 59.7062 78.028C59.4056 78.2407 59.1782 78.523 59.0242 78.875C58.8776 79.227 58.8042 79.6267 58.8042 80.074C58.8042 80.514 58.8776 80.9173 59.0242 81.284C59.1782 81.6433 59.4092 81.9293 59.7172 82.142C60.0326 82.3547 60.4286 82.461 60.9052 82.461C61.4112 82.461 61.8219 82.3473 62.1372 82.12C62.4526 81.8853 62.6469 81.6103 62.7202 81.295H63.4902C63.4169 81.6837 63.2629 82.021 63.0282 82.307C62.7936 82.5857 62.4966 82.802 62.1372 82.956C61.7779 83.11 61.3672 83.187 60.9052 83.187ZM66.7624 83L68.0054 77.368H69.1604L70.6014 83H69.8864L68.4454 77.401H68.7094L67.4554 83H66.7624ZM66.2894 83V82.329H67.2904V83H66.2894ZM66.0914 83L64.4084 77.181H65.2004L66.8614 83H66.0914ZM70.0734 83V82.329H71.0524V83H70.0734ZM70.5024 83L71.9544 77.181H72.7134L71.2284 83H70.5024ZM76.8004 85.2V77.181H77.4604V79.678L77.2624 79.7C77.2917 79.1133 77.4164 78.6183 77.6364 78.215C77.8637 77.8117 78.1681 77.5073 78.5494 77.302C78.9381 77.0893 79.3707 76.983 79.8474 76.983C80.2727 76.983 80.6577 77.0673 81.0024 77.236C81.3544 77.3973 81.6514 77.621 81.8934 77.907C82.1427 78.1857 82.3297 78.5083 82.4544 78.875C82.5864 79.2343 82.6524 79.612 82.6524 80.008V80.162C82.6524 80.558 82.5864 80.9393 82.4544 81.306C82.3224 81.6653 82.1317 81.988 81.8824 82.274C81.6404 82.5527 81.3434 82.7763 80.9914 82.945C80.6467 83.1063 80.2581 83.187 79.8254 83.187C79.3634 83.187 78.9381 83.0843 78.5494 82.879C78.1681 82.6663 77.8564 82.3547 77.6144 81.944C77.3797 81.5333 77.2514 81.0273 77.2294 80.426L77.6254 81.251V85.2H76.8004ZM79.7154 82.461C80.1554 82.461 80.5331 82.3583 80.8484 82.153C81.1637 81.9403 81.4057 81.6543 81.5744 81.295C81.7431 80.9283 81.8274 80.525 81.8274 80.085C81.8274 79.6303 81.7394 79.227 81.5634 78.875C81.3947 78.5157 81.1527 78.2333 80.8374 78.028C80.5221 77.8153 80.1481 77.709 79.7154 77.709C79.3194 77.709 78.9601 77.797 78.6374 77.973C78.3147 78.149 78.0581 78.3983 77.8674 78.721C77.6841 79.0363 77.5924 79.4103 77.5924 79.843V80.382C77.5924 80.7927 77.6841 81.1557 77.8674 81.471C78.0581 81.779 78.3147 82.021 78.6374 82.197C78.9601 82.373 79.3194 82.461 79.7154 82.461ZM84.3199 83V77.181H84.9799V79.612H84.9139C84.9139 78.7613 85.1009 78.1343 85.4749 77.731C85.8489 77.3203 86.4356 77.115 87.2349 77.115H87.4219V77.863H87.0809C86.4503 77.863 85.9699 78.028 85.6399 78.358C85.3099 78.6807 85.1449 79.1573 85.1449 79.788V83H84.3199ZM91.2883 83.187C90.7896 83.187 90.3496 83.1027 89.9683 82.934C89.5943 82.758 89.2753 82.527 89.0113 82.241C88.7546 81.9477 88.5566 81.6213 88.4173 81.262C88.2853 80.9027 88.2193 80.536 88.2193 80.162V80.008C88.2193 79.634 88.2889 79.2673 88.4283 78.908C88.5676 78.5413 88.7693 78.215 89.0333 77.929C89.2973 77.643 89.6163 77.4157 89.9903 77.247C90.3716 77.071 90.8043 76.983 91.2883 76.983C91.7796 76.983 92.2123 77.071 92.5863 77.247C92.9676 77.4157 93.2903 77.643 93.5543 77.929C93.8183 78.215 94.0163 78.5413 94.1483 78.908C94.2876 79.2673 94.3573 79.634 94.3573 80.008V80.162C94.3573 80.536 94.2913 80.9027 94.1593 81.262C94.0273 81.6213 93.8293 81.9477 93.5653 82.241C93.3086 82.527 92.9896 82.758 92.6083 82.934C92.2269 83.1027 91.7869 83.187 91.2883 83.187ZM91.2883 82.45C91.7723 82.45 92.1793 82.3437 92.5093 82.131C92.8466 81.911 93.1033 81.625 93.2793 81.273C93.4553 80.9137 93.5433 80.5177 93.5433 80.085C93.5433 79.645 93.4516 79.249 93.2683 78.897C93.0923 78.5377 92.8356 78.2553 92.4983 78.05C92.1609 77.8373 91.7576 77.731 91.2883 77.731C90.8263 77.731 90.4266 77.8373 90.0893 78.05C89.7519 78.2553 89.4916 78.5377 89.3083 78.897C89.1323 79.249 89.0443 79.645 89.0443 80.085C89.0443 80.5177 89.1323 80.9137 89.3083 81.273C89.4843 81.625 89.7373 81.911 90.0673 82.131C90.4046 82.3437 90.8116 82.45 91.2883 82.45ZM94.9397 85.233V84.496H95.5997C95.8857 84.496 96.102 84.4117 96.2487 84.243C96.4027 84.0817 96.4797 83.847 96.4797 83.539V77.181H97.2717V83.385C97.2717 83.8397 97.2093 84.2027 97.0847 84.474C96.9673 84.7453 96.7767 84.9397 96.5127 85.057C96.2487 85.1743 95.8967 85.233 95.4567 85.233H94.9397ZM95.5337 77.841V77.181H97.2717V77.841H95.5337ZM96.6337 76.004C96.4357 76.004 96.2853 75.9527 96.1827 75.85C96.0873 75.74 96.0397 75.6043 96.0397 75.443C96.0397 75.2817 96.0873 75.1497 96.1827 75.047C96.2853 74.937 96.4357 74.882 96.6337 74.882C96.8317 74.882 96.9783 74.937 97.0737 75.047C97.169 75.1497 97.2167 75.2817 97.2167 75.443C97.2167 75.6043 97.169 75.74 97.0737 75.85C96.9783 75.9527 96.8317 76.004 96.6337 76.004ZM101.844 83.187C101.345 83.187 100.912 83.1027 100.546 82.934C100.179 82.758 99.8784 82.527 99.6437 82.241C99.409 81.9477 99.233 81.6213 99.1157 81.262C99.0057 80.9027 98.9507 80.5323 98.9507 80.151V79.997C98.9507 79.623 99.0057 79.2563 99.1157 78.897C99.233 78.5377 99.409 78.215 99.6437 77.929C99.8784 77.643 100.172 77.4157 100.524 77.247C100.883 77.071 101.301 76.983 101.778 76.983C102.386 76.983 102.892 77.1187 103.296 77.39C103.706 77.6613 104.014 78.0097 104.22 78.435C104.425 78.853 104.528 79.304 104.528 79.788V80.217H99.3247V79.579H103.956L103.747 79.898C103.747 79.4653 103.67 79.0877 103.516 78.765C103.369 78.435 103.149 78.1783 102.856 77.995C102.57 77.8043 102.21 77.709 101.778 77.709C101.323 77.709 100.945 77.8153 100.645 78.028C100.344 78.2407 100.117 78.523 99.9627 78.875C99.816 79.227 99.7427 79.6267 99.7427 80.074C99.7427 80.514 99.816 80.9173 99.9627 81.284C100.117 81.6433 100.348 81.9293 100.656 82.142C100.971 82.3547 101.367 82.461 101.844 82.461C102.35 82.461 102.76 82.3473 103.076 82.12C103.391 81.8853 103.585 81.6103 103.659 81.295H104.429C104.355 81.6837 104.201 82.021 103.967 82.307C103.732 82.5857 103.435 82.802 103.076 82.956C102.716 83.11 102.306 83.187 101.844 83.187ZM108.569 83.187C108.077 83.187 107.648 83.1027 107.282 82.934C106.922 82.758 106.622 82.5233 106.38 82.23C106.138 81.9293 105.954 81.5993 105.83 81.24C105.712 80.8807 105.654 80.5177 105.654 80.151V79.997C105.654 79.623 105.712 79.26 105.83 78.908C105.954 78.5487 106.138 78.226 106.38 77.94C106.622 77.6467 106.922 77.4157 107.282 77.247C107.648 77.071 108.07 76.983 108.547 76.983C109.031 76.983 109.46 77.071 109.834 77.247C110.215 77.423 110.523 77.6723 110.758 77.995C110.992 78.3177 111.132 78.699 111.176 79.139H110.384C110.318 78.7357 110.127 78.402 109.812 78.138C109.504 77.8667 109.082 77.731 108.547 77.731C108.085 77.731 107.7 77.8373 107.392 78.05C107.091 78.2553 106.864 78.5377 106.71 78.897C106.556 79.249 106.479 79.6413 106.479 80.074C106.479 80.4993 106.556 80.8953 106.71 81.262C106.864 81.6213 107.095 81.911 107.403 82.131C107.711 82.3437 108.099 82.45 108.569 82.45C108.928 82.45 109.24 82.3877 109.504 82.263C109.775 82.131 109.991 81.955 110.153 81.735C110.321 81.515 110.42 81.273 110.45 81.009H111.242C111.212 81.449 111.073 81.834 110.824 82.164C110.582 82.4867 110.266 82.7397 109.878 82.923C109.489 83.099 109.053 83.187 108.569 83.187ZM114.867 83.066C114.463 83.066 114.115 83.0073 113.822 82.89C113.528 82.7727 113.301 82.5747 113.139 82.296C112.978 82.01 112.898 81.6287 112.898 81.152V75.344H113.69V81.273C113.69 81.6103 113.781 81.8707 113.965 82.054C114.148 82.23 114.408 82.318 114.746 82.318H115.791V83.066H114.867ZM111.853 77.808V77.181H115.791V77.808H111.853ZM122.064 83.066C121.66 83.066 121.312 83.0073 121.019 82.89C120.725 82.7727 120.498 82.5747 120.337 82.296C120.175 82.01 120.095 81.6287 120.095 81.152V75.344H120.887V81.273C120.887 81.6103 120.978 81.8707 121.162 82.054C121.345 82.23 121.605 82.318 121.943 82.318H122.988V83.066H122.064ZM119.05 77.808V77.181H122.988V77.808H119.05ZM124.89 83V77.181H125.704V83H124.89ZM123.955 77.841V77.181H125.704V77.841H123.955ZM125.066 76.103C124.868 76.103 124.717 76.0517 124.615 75.949C124.519 75.839 124.472 75.7033 124.472 75.542C124.472 75.3807 124.519 75.2487 124.615 75.146C124.717 75.036 124.868 74.981 125.066 74.981C125.264 74.981 125.41 75.036 125.506 75.146C125.601 75.2487 125.649 75.3807 125.649 75.542C125.649 75.7033 125.601 75.839 125.506 75.949C125.41 76.0517 125.264 76.103 125.066 76.103ZM127.869 83V77.17H128.529V79.623H128.397C128.397 79.0877 128.47 78.6257 128.617 78.237C128.771 77.8483 128.998 77.5477 129.299 77.335C129.599 77.115 129.981 77.005 130.443 77.005H130.476C130.938 77.005 131.319 77.1113 131.62 77.324C131.92 77.5367 132.144 77.8373 132.291 78.226C132.437 78.6147 132.511 79.0803 132.511 79.623H132.247C132.247 79.0877 132.32 78.6257 132.467 78.237C132.621 77.8483 132.848 77.5477 133.149 77.335C133.457 77.115 133.842 77.005 134.304 77.005H134.337C134.799 77.005 135.18 77.1113 135.481 77.324C135.789 77.5367 136.016 77.8373 136.163 78.226C136.317 78.6147 136.394 79.0803 136.394 79.623V83H135.569V79.436C135.569 78.9227 135.444 78.5157 135.195 78.215C134.945 77.9143 134.586 77.764 134.117 77.764C133.633 77.764 133.248 77.9217 132.962 78.237C132.683 78.545 132.544 78.963 132.544 79.491V83H131.719V79.436C131.719 78.9227 131.594 78.5157 131.345 78.215C131.095 77.9143 130.736 77.764 130.267 77.764C129.783 77.764 129.398 77.9217 129.112 78.237C128.833 78.545 128.694 78.963 128.694 79.491V83H127.869ZM140.881 83.187C140.382 83.187 139.949 83.1027 139.583 82.934C139.216 82.758 138.915 82.527 138.681 82.241C138.446 81.9477 138.27 81.6213 138.153 81.262C138.043 80.9027 137.988 80.5323 137.988 80.151V79.997C137.988 79.623 138.043 79.2563 138.153 78.897C138.27 78.5377 138.446 78.215 138.681 77.929C138.915 77.643 139.209 77.4157 139.561 77.247C139.92 77.071 140.338 76.983 140.815 76.983C141.423 76.983 141.929 77.1187 142.333 77.39C142.743 77.6613 143.051 78.0097 143.257 78.435C143.462 78.853 143.565 79.304 143.565 79.788V80.217H138.362V79.579H142.993L142.784 79.898C142.784 79.4653 142.707 79.0877 142.553 78.765C142.406 78.435 142.186 78.1783 141.893 77.995C141.607 77.8043 141.247 77.709 140.815 77.709C140.36 77.709 139.982 77.8153 139.682 78.028C139.381 78.2407 139.154 78.523 139 78.875C138.853 79.227 138.78 79.6267 138.78 80.074C138.78 80.514 138.853 80.9173 139 81.284C139.154 81.6433 139.385 81.9293 139.693 82.142C140.008 82.3547 140.404 82.461 140.881 82.461C141.387 82.461 141.797 82.3473 142.113 82.12C142.428 81.8853 142.622 81.6103 142.696 81.295H143.466C143.392 81.6837 143.238 82.021 143.004 82.307C142.769 82.5857 142.472 82.802 142.113 82.956C141.753 83.11 141.343 83.187 140.881 83.187ZM145.208 83V74.97H146.033V83H145.208ZM144.361 75.641V74.97H146.033V75.641H144.361ZM148.479 83V77.181H149.293V83H148.479ZM147.544 77.841V77.181H149.293V77.841H147.544ZM148.655 76.103C148.457 76.103 148.307 76.0517 148.204 75.949C148.109 75.839 148.061 75.7033 148.061 75.542C148.061 75.3807 148.109 75.2487 148.204 75.146C148.307 75.036 148.457 74.981 148.655 74.981C148.853 74.981 149 75.036 149.095 75.146C149.191 75.2487 149.238 75.3807 149.238 75.542C149.238 75.7033 149.191 75.839 149.095 75.949C149 76.0517 148.853 76.103 148.655 76.103ZM151.459 83V77.181H152.119V79.623H151.987C151.987 79.0803 152.067 78.6147 152.229 78.226C152.39 77.8373 152.632 77.5367 152.955 77.324C153.277 77.1113 153.684 77.005 154.176 77.005H154.209C154.942 77.005 155.488 77.236 155.848 77.698C156.207 78.1527 156.387 78.7943 156.387 79.623V83H155.573V79.447C155.573 78.941 155.433 78.534 155.155 78.226C154.876 77.918 154.487 77.764 153.989 77.764C153.475 77.764 153.061 77.9253 152.746 78.248C152.438 78.5633 152.284 78.9813 152.284 79.502V83H151.459ZM160.872 83.187C160.373 83.187 159.941 83.1027 159.574 82.934C159.207 82.758 158.907 82.527 158.672 82.241C158.437 81.9477 158.261 81.6213 158.144 81.262C158.034 80.9027 157.979 80.5323 157.979 80.151V79.997C157.979 79.623 158.034 79.2563 158.144 78.897C158.261 78.5377 158.437 78.215 158.672 77.929C158.907 77.643 159.2 77.4157 159.552 77.247C159.911 77.071 160.329 76.983 160.806 76.983C161.415 76.983 161.921 77.1187 162.324 77.39C162.735 77.6613 163.043 78.0097 163.248 78.435C163.453 78.853 163.556 79.304 163.556 79.788V80.217H158.353V79.579H162.984L162.775 79.898C162.775 79.4653 162.698 79.0877 162.544 78.765C162.397 78.435 162.177 78.1783 161.884 77.995C161.598 77.8043 161.239 77.709 160.806 77.709C160.351 77.709 159.974 77.8153 159.673 78.028C159.372 78.2407 159.145 78.523 158.991 78.875C158.844 79.227 158.771 79.6267 158.771 80.074C158.771 80.514 158.844 80.9173 158.991 81.284C159.145 81.6433 159.376 81.9293 159.684 82.142C159.999 82.3547 160.395 82.461 160.872 82.461C161.378 82.461 161.789 82.3473 162.104 82.12C162.419 81.8853 162.614 81.6103 162.687 81.295H163.457C163.384 81.6837 163.23 82.021 162.995 82.307C162.76 82.5857 162.463 82.802 162.104 82.956C161.745 83.11 161.334 83.187 160.872 83.187Z" fill="#0A323E"/>
<path d="M227 76.5L222.8 81.5L221 79.5" stroke="#1E95BB" stroke-width="1.1875" stroke-linecap="round" stroke-linejoin="round"/>
<path d="M228.5 73H219.5C218.672 73 218 73.6716 218 74.5V83.5C218 84.3284 218.672 85 219.5 85H228.5C229.328 85 230 84.3284 230 83.5V74.5C230 73.6716 229.328 73 228.5 73Z" stroke="#1E95BB" stroke-width="1.1875" stroke-linejoin="round"/>
<path d="M16 111C16 107.134 19.134 104 23 104H230.48H244.312C245.969 104 247.312 105.343 247.312 107V110.037V135C247.312 138.866 244.178 142 240.312 142H23C19.134 142 16 138.866 16 135V111Z" fill="#E3F3F8"/>
<path d="M35.254 127V118.97H36.09V127H35.254ZM35.87 123.293V122.534L39.423 122.523V123.282L35.87 123.293ZM35.87 119.718V118.97H39.632V119.718H35.87ZM43.7219 127.187C43.2232 127.187 42.7832 127.103 42.4019 126.934C42.0279 126.758 41.7089 126.527 41.4449 126.241C41.1882 125.948 40.9902 125.621 40.8509 125.262C40.7189 124.903 40.6529 124.536 40.6529 124.162V124.008C40.6529 123.634 40.7225 123.267 40.8619 122.908C41.0012 122.541 41.2029 122.215 41.4669 121.929C41.7309 121.643 42.0499 121.416 42.4239 121.247C42.8052 121.071 43.2379 120.983 43.7219 120.983C44.2132 120.983 44.6459 121.071 45.0199 121.247C45.4012 121.416 45.7239 121.643 45.9879 121.929C46.2519 122.215 46.4499 122.541 46.5819 122.908C46.7212 123.267 46.7909 123.634 46.7909 124.008V124.162C46.7909 124.536 46.7249 124.903 46.5929 125.262C46.4609 125.621 46.2629 125.948 45.9989 126.241C45.7422 126.527 45.4232 126.758 45.0419 126.934C44.6605 127.103 44.2205 127.187 43.7219 127.187ZM43.7219 126.45C44.2059 126.45 44.6129 126.344 44.9429 126.131C45.2802 125.911 45.5369 125.625 45.7129 125.273C45.8889 124.914 45.9769 124.518 45.9769 124.085C45.9769 123.645 45.8852 123.249 45.7019 122.897C45.5259 122.538 45.2692 122.255 44.9319 122.05C44.5945 121.837 44.1912 121.731 43.7219 121.731C43.2599 121.731 42.8602 121.837 42.5229 122.05C42.1855 122.255 41.9252 122.538 41.7419 122.897C41.5659 123.249 41.4779 123.645 41.4779 124.085C41.4779 124.518 41.5659 124.914 41.7419 125.273C41.9179 125.625 42.1709 125.911 42.5009 126.131C42.8382 126.344 43.2452 126.45 43.7219 126.45ZM48.5283 127V118.97H49.3533V127H48.5283ZM47.6813 119.641V118.97H49.3533V119.641H47.6813ZM51.5468 127V118.97H52.3718V127H51.5468ZM50.6998 119.641V118.97H52.3718V119.641H50.6998ZM57.1174 127.187C56.6187 127.187 56.1787 127.103 55.7974 126.934C55.4234 126.758 55.1044 126.527 54.8404 126.241C54.5837 125.948 54.3857 125.621 54.2464 125.262C54.1144 124.903 54.0484 124.536 54.0484 124.162V124.008C54.0484 123.634 54.118 123.267 54.2574 122.908C54.3967 122.541 54.5984 122.215 54.8624 121.929C55.1264 121.643 55.4454 121.416 55.8194 121.247C56.2007 121.071 56.6334 120.983 57.1174 120.983C57.6087 120.983 58.0414 121.071 58.4154 121.247C58.7967 121.416 59.1194 121.643 59.3834 121.929C59.6474 122.215 59.8454 122.541 59.9774 122.908C60.1167 123.267 60.1864 123.634 60.1864 124.008V124.162C60.1864 124.536 60.1204 124.903 59.9884 125.262C59.8564 125.621 59.6584 125.948 59.3944 126.241C59.1377 126.527 58.8187 126.758 58.4374 126.934C58.056 127.103 57.616 127.187 57.1174 127.187ZM57.1174 126.45C57.6014 126.45 58.0084 126.344 58.3384 126.131C58.6757 125.911 58.9324 125.625 59.1084 125.273C59.2844 124.914 59.3724 124.518 59.3724 124.085C59.3724 123.645 59.2807 123.249 59.0974 122.897C58.9214 122.538 58.6647 122.255 58.3274 122.05C57.99 121.837 57.5867 121.731 57.1174 121.731C56.6554 121.731 56.2557 121.837 55.9184 122.05C55.581 122.255 55.3207 122.538 55.1374 122.897C54.9614 123.249 54.8734 123.645 54.8734 124.085C54.8734 124.518 54.9614 124.914 55.1374 125.273C55.3134 125.625 55.5664 125.911 55.8964 126.131C56.2337 126.344 56.6407 126.45 57.1174 126.45ZM63.4001 127L64.6431 121.368H65.7981L67.2391 127H66.5241L65.0831 121.401H65.3471L64.0931 127H63.4001ZM62.9271 127V126.329H63.9281V127H62.9271ZM62.7291 127L61.0461 121.181H61.8381L63.4991 127H62.7291ZM66.7111 127V126.329H67.6901V127H66.7111ZM67.1401 127L68.5921 121.181H69.3511L67.8661 127H67.1401ZM75.4511 127.165C74.7544 127.165 74.2228 126.941 73.8561 126.494C73.4894 126.039 73.3061 125.409 73.3061 124.602V121.17H74.1201V124.767C74.1201 125.273 74.2521 125.676 74.5161 125.977C74.7874 126.27 75.1614 126.417 75.6381 126.417C76.1368 126.417 76.5328 126.259 76.8261 125.944C77.1268 125.629 77.2771 125.207 77.2771 124.679V121.17H78.1021V127H77.4421V124.569H77.5741C77.5741 125.112 77.4971 125.577 77.3431 125.966C77.1891 126.347 76.9581 126.644 76.6501 126.857C76.3421 127.062 75.9534 127.165 75.4841 127.165H75.4511ZM80.2594 129.2V121.181H80.9194V123.678L80.7214 123.7C80.7507 123.113 80.8754 122.618 81.0954 122.215C81.3227 121.812 81.627 121.507 82.0084 121.302C82.397 121.089 82.8297 120.983 83.3064 120.983C83.7317 120.983 84.1167 121.067 84.4614 121.236C84.8134 121.397 85.1104 121.621 85.3524 121.907C85.6017 122.186 85.7887 122.508 85.9134 122.875C86.0454 123.234 86.1114 123.612 86.1114 124.008V124.162C86.1114 124.558 86.0454 124.939 85.9134 125.306C85.7814 125.665 85.5907 125.988 85.3414 126.274C85.0994 126.553 84.8024 126.776 84.4504 126.945C84.1057 127.106 83.717 127.187 83.2844 127.187C82.8224 127.187 82.397 127.084 82.0084 126.879C81.627 126.666 81.3154 126.355 81.0734 125.944C80.8387 125.533 80.7104 125.027 80.6884 124.426L81.0844 125.251V129.2H80.2594ZM83.1744 126.461C83.6144 126.461 83.992 126.358 84.3074 126.153C84.6227 125.94 84.8647 125.654 85.0334 125.295C85.202 124.928 85.2864 124.525 85.2864 124.085C85.2864 123.63 85.1984 123.227 85.0224 122.875C84.8537 122.516 84.6117 122.233 84.2964 122.028C83.981 121.815 83.607 121.709 83.1744 121.709C82.7784 121.709 82.419 121.797 82.0964 121.973C81.7737 122.149 81.517 122.398 81.3264 122.721C81.143 123.036 81.0514 123.41 81.0514 123.843V124.382C81.0514 124.793 81.143 125.156 81.3264 125.471C81.517 125.779 81.7737 126.021 82.0964 126.197C82.419 126.373 82.7784 126.461 83.1744 126.461ZM92.9533 127.187C92.4546 127.187 92.0146 127.103 91.6333 126.934C91.2593 126.758 90.9403 126.527 90.6763 126.241C90.4196 125.948 90.2216 125.621 90.0823 125.262C89.9503 124.903 89.8843 124.536 89.8843 124.162V124.008C89.8843 123.634 89.954 123.267 90.0933 122.908C90.2326 122.541 90.4343 122.215 90.6983 121.929C90.9623 121.643 91.2813 121.416 91.6553 121.247C92.0366 121.071 92.4693 120.983 92.9533 120.983C93.4446 120.983 93.8773 121.071 94.2513 121.247C94.6326 121.416 94.9553 121.643 95.2193 121.929C95.4833 122.215 95.6813 122.541 95.8133 122.908C95.9526 123.267 96.0223 123.634 96.0223 124.008V124.162C96.0223 124.536 95.9563 124.903 95.8243 125.262C95.6923 125.621 95.4943 125.948 95.2303 126.241C94.9736 126.527 94.6546 126.758 94.2733 126.934C93.892 127.103 93.452 127.187 92.9533 127.187ZM92.9533 126.45C93.4373 126.45 93.8443 126.344 94.1743 126.131C94.5116 125.911 94.7683 125.625 94.9443 125.273C95.1203 124.914 95.2083 124.518 95.2083 124.085C95.2083 123.645 95.1166 123.249 94.9333 122.897C94.7573 122.538 94.5006 122.255 94.1633 122.05C93.826 121.837 93.4226 121.731 92.9533 121.731C92.4913 121.731 92.0916 121.837 91.7543 122.05C91.417 122.255 91.1566 122.538 90.9733 122.897C90.7973 123.249 90.7093 123.645 90.7093 124.085C90.7093 124.518 90.7973 124.914 90.9733 125.273C91.1493 125.625 91.4023 125.911 91.7323 126.131C92.0696 126.344 92.4766 126.45 92.9533 126.45ZM97.7047 127V121.181H98.3647V123.623H98.2327C98.2327 123.08 98.3134 122.615 98.4747 122.226C98.636 121.837 98.878 121.537 99.2007 121.324C99.5234 121.111 99.9304 121.005 100.422 121.005H100.455C101.188 121.005 101.734 121.236 102.094 121.698C102.453 122.153 102.633 122.794 102.633 123.623V127H101.819V123.447C101.819 122.941 101.679 122.534 101.401 122.226C101.122 121.918 100.733 121.764 100.235 121.764C99.7214 121.764 99.307 121.925 98.9917 122.248C98.6837 122.563 98.5297 122.981 98.5297 123.502V127H97.7047ZM110.797 127V125.251H110.665V123.183C110.665 122.75 110.551 122.42 110.324 122.193C110.096 121.958 109.744 121.841 109.268 121.841C109.048 121.841 108.824 121.845 108.597 121.852C108.377 121.859 108.164 121.87 107.959 121.885C107.761 121.892 107.585 121.903 107.431 121.918V121.192C107.592 121.177 107.757 121.163 107.926 121.148C108.094 121.133 108.267 121.126 108.443 121.126C108.626 121.119 108.802 121.115 108.971 121.115C109.565 121.115 110.041 121.188 110.401 121.335C110.767 121.482 111.035 121.713 111.204 122.028C111.372 122.336 111.457 122.747 111.457 123.26V127H110.797ZM108.828 127.154C108.417 127.154 108.054 127.081 107.739 126.934C107.423 126.787 107.178 126.575 107.002 126.296C106.833 126.017 106.749 125.68 106.749 125.284C106.749 124.895 106.837 124.565 107.013 124.294C107.196 124.023 107.456 123.817 107.794 123.678C108.138 123.531 108.553 123.458 109.037 123.458H110.742V124.085H108.982C108.52 124.085 108.164 124.199 107.915 124.426C107.673 124.646 107.552 124.936 107.552 125.295C107.552 125.662 107.68 125.955 107.937 126.175C108.193 126.388 108.542 126.494 108.982 126.494C109.253 126.494 109.513 126.446 109.763 126.351C110.012 126.248 110.221 126.08 110.39 125.845C110.558 125.603 110.65 125.273 110.665 124.855L110.907 125.196C110.877 125.629 110.775 125.992 110.599 126.285C110.423 126.571 110.184 126.787 109.884 126.934C109.583 127.081 109.231 127.154 108.828 127.154ZM115.97 127.187C115.479 127.187 115.05 127.103 114.683 126.934C114.324 126.758 114.023 126.523 113.781 126.23C113.539 125.929 113.356 125.599 113.231 125.24C113.114 124.881 113.055 124.518 113.055 124.151V123.997C113.055 123.623 113.114 123.26 113.231 122.908C113.356 122.549 113.539 122.226 113.781 121.94C114.023 121.647 114.324 121.416 114.683 121.247C115.05 121.071 115.472 120.983 115.948 120.983C116.432 120.983 116.861 121.071 117.235 121.247C117.617 121.423 117.925 121.672 118.159 121.995C118.394 122.318 118.533 122.699 118.577 123.139H117.785C117.719 122.736 117.529 122.402 117.213 122.138C116.905 121.867 116.484 121.731 115.948 121.731C115.486 121.731 115.101 121.837 114.793 122.05C114.493 122.255 114.265 122.538 114.111 122.897C113.957 123.249 113.88 123.641 113.88 124.074C113.88 124.499 113.957 124.895 114.111 125.262C114.265 125.621 114.496 125.911 114.804 126.131C115.112 126.344 115.501 126.45 115.97 126.45C116.33 126.45 116.641 126.388 116.905 126.263C117.177 126.131 117.393 125.955 117.554 125.735C117.723 125.515 117.822 125.273 117.851 125.009H118.643C118.614 125.449 118.475 125.834 118.225 126.164C117.983 126.487 117.668 126.74 117.279 126.923C116.891 127.099 116.454 127.187 115.97 127.187ZM122.268 127.066C121.865 127.066 121.516 127.007 121.223 126.89C120.93 126.773 120.702 126.575 120.541 126.296C120.38 126.01 120.299 125.629 120.299 125.152V119.344H121.091V125.273C121.091 125.61 121.183 125.871 121.366 126.054C121.549 126.23 121.81 126.318 122.147 126.318H123.192V127.066H122.268ZM119.254 121.808V121.181H123.192V121.808H119.254ZM125.094 127V121.181H125.908V127H125.094ZM124.159 121.841V121.181H125.908V121.841H124.159ZM125.27 120.103C125.072 120.103 124.921 120.052 124.819 119.949C124.723 119.839 124.676 119.703 124.676 119.542C124.676 119.381 124.723 119.249 124.819 119.146C124.921 119.036 125.072 118.981 125.27 118.981C125.468 118.981 125.614 119.036 125.71 119.146C125.805 119.249 125.853 119.381 125.853 119.542C125.853 119.703 125.805 119.839 125.71 119.949C125.614 120.052 125.468 120.103 125.27 120.103ZM130.68 127.187C130.181 127.187 129.741 127.103 129.36 126.934C128.986 126.758 128.667 126.527 128.403 126.241C128.146 125.948 127.948 125.621 127.809 125.262C127.677 124.903 127.611 124.536 127.611 124.162V124.008C127.611 123.634 127.681 123.267 127.82 122.908C127.959 122.541 128.161 122.215 128.425 121.929C128.689 121.643 129.008 121.416 129.382 121.247C129.763 121.071 130.196 120.983 130.68 120.983C131.171 120.983 131.604 121.071 131.978 121.247C132.359 121.416 132.682 121.643 132.946 121.929C133.21 122.215 133.408 122.541 133.54 122.908C133.679 123.267 133.749 123.634 133.749 124.008V124.162C133.749 124.536 133.683 124.903 133.551 125.262C133.419 125.621 133.221 125.948 132.957 126.241C132.7 126.527 132.381 126.758 132 126.934C131.619 127.103 131.179 127.187 130.68 127.187ZM130.68 126.45C131.164 126.45 131.571 126.344 131.901 126.131C132.238 125.911 132.495 125.625 132.671 125.273C132.847 124.914 132.935 124.518 132.935 124.085C132.935 123.645 132.843 123.249 132.66 122.897C132.484 122.538 132.227 122.255 131.89 122.05C131.553 121.837 131.149 121.731 130.68 121.731C130.218 121.731 129.818 121.837 129.481 122.05C129.144 122.255 128.883 122.538 128.7 122.897C128.524 123.249 128.436 123.645 128.436 124.085C128.436 124.518 128.524 124.914 128.7 125.273C128.876 125.625 129.129 125.911 129.459 126.131C129.796 126.344 130.203 126.45 130.68 126.45ZM135.431 127V121.181H136.091V123.623H135.959C135.959 123.08 136.04 122.615 136.201 122.226C136.363 121.837 136.605 121.537 136.927 121.324C137.25 121.111 137.657 121.005 138.148 121.005H138.181C138.915 121.005 139.461 121.236 139.82 121.698C140.18 122.153 140.359 122.794 140.359 123.623V127H139.545V123.447C139.545 122.941 139.406 122.534 139.127 122.226C138.849 121.918 138.46 121.764 137.961 121.764C137.448 121.764 137.034 121.925 136.718 122.248C136.41 122.563 136.256 122.981 136.256 123.502V127H135.431ZM145.289 127V121.181H146.103V127H145.289ZM144.354 121.841V121.181H146.103V121.841H144.354ZM145.465 120.103C145.267 120.103 145.117 120.052 145.014 119.949C144.919 119.839 144.871 119.703 144.871 119.542C144.871 119.381 144.919 119.249 145.014 119.146C145.117 119.036 145.267 118.981 145.465 118.981C145.663 118.981 145.81 119.036 145.905 119.146C146 119.249 146.048 119.381 146.048 119.542C146.048 119.703 146 119.839 145.905 119.949C145.81 120.052 145.663 120.103 145.465 120.103ZM150.38 127.066C149.977 127.066 149.629 127.007 149.335 126.89C149.042 126.773 148.815 126.575 148.653 126.296C148.492 126.01 148.411 125.629 148.411 125.152V119.344H149.203V125.273C149.203 125.61 149.295 125.871 149.478 126.054C149.662 126.23 149.922 126.318 150.259 126.318H151.304V127.066H150.38ZM147.366 121.808V121.181H151.304V121.808H147.366ZM155.275 127.187C154.777 127.187 154.344 127.103 153.977 126.934C153.611 126.758 153.31 126.527 153.075 126.241C152.841 125.948 152.665 125.621 152.547 125.262C152.437 124.903 152.382 124.532 152.382 124.151V123.997C152.382 123.623 152.437 123.256 152.547 122.897C152.665 122.538 152.841 122.215 153.075 121.929C153.31 121.643 153.603 121.416 153.955 121.247C154.315 121.071 154.733 120.983 155.209 120.983C155.818 120.983 156.324 121.119 156.727 121.39C157.138 121.661 157.446 122.01 157.651 122.435C157.857 122.853 157.959 123.304 157.959 123.788V124.217H152.756V123.579H157.387L157.178 123.898C157.178 123.465 157.101 123.088 156.947 122.765C156.801 122.435 156.581 122.178 156.287 121.995C156.001 121.804 155.642 121.709 155.209 121.709C154.755 121.709 154.377 121.815 154.076 122.028C153.776 122.241 153.548 122.523 153.394 122.875C153.248 123.227 153.174 123.627 153.174 124.074C153.174 124.514 153.248 124.917 153.394 125.284C153.548 125.643 153.779 125.929 154.087 126.142C154.403 126.355 154.799 126.461 155.275 126.461C155.781 126.461 156.192 126.347 156.507 126.12C156.823 125.885 157.017 125.61 157.09 125.295H157.86C157.787 125.684 157.633 126.021 157.398 126.307C157.164 126.586 156.867 126.802 156.507 126.956C156.148 127.11 155.737 127.187 155.275 127.187ZM159.547 127V121.17H160.207V123.623H160.075C160.075 123.088 160.149 122.626 160.295 122.237C160.449 121.848 160.677 121.548 160.977 121.335C161.278 121.115 161.659 121.005 162.121 121.005H162.154C162.616 121.005 162.998 121.111 163.298 121.324C163.599 121.537 163.823 121.837 163.969 122.226C164.116 122.615 164.189 123.08 164.189 123.623H163.925C163.925 123.088 163.999 122.626 164.145 122.237C164.299 121.848 164.527 121.548 164.827 121.335C165.135 121.115 165.52 121.005 165.982 121.005H166.015C166.477 121.005 166.859 121.111 167.159 121.324C167.467 121.537 167.695 121.837 167.841 122.226C167.995 122.615 168.072 123.08 168.072 123.623V127H167.247V123.436C167.247 122.923 167.123 122.516 166.873 122.215C166.624 121.914 166.265 121.764 165.795 121.764C165.311 121.764 164.926 121.922 164.64 122.237C164.362 122.545 164.222 122.963 164.222 123.491V127H163.397V123.436C163.397 122.923 163.273 122.516 163.023 122.215C162.774 121.914 162.415 121.764 161.945 121.764C161.461 121.764 161.076 121.922 160.79 122.237C160.512 122.545 160.372 122.963 160.372 123.491V127H159.547ZM171.966 127.165C171.218 127.165 170.642 127.004 170.239 126.681C169.835 126.351 169.63 125.911 169.623 125.361H170.393C170.407 125.64 170.532 125.893 170.767 126.12C171.009 126.347 171.408 126.461 171.966 126.461C172.486 126.461 172.875 126.355 173.132 126.142C173.396 125.922 173.528 125.658 173.528 125.35C173.528 125.064 173.418 124.844 173.198 124.69C172.985 124.529 172.673 124.426 172.263 124.382L171.603 124.316C171.075 124.257 170.646 124.096 170.316 123.832C169.993 123.561 169.832 123.19 169.832 122.721C169.832 122.376 169.92 122.076 170.096 121.819C170.272 121.562 170.517 121.364 170.833 121.225C171.155 121.078 171.533 121.005 171.966 121.005C172.589 121.005 173.095 121.152 173.484 121.445C173.88 121.738 174.081 122.156 174.089 122.699H173.319C173.311 122.42 173.194 122.186 172.967 121.995C172.739 121.804 172.406 121.709 171.966 121.709C171.511 121.709 171.17 121.808 170.943 122.006C170.723 122.204 170.613 122.446 170.613 122.732C170.613 122.974 170.697 123.176 170.866 123.337C171.034 123.491 171.298 123.586 171.658 123.623L172.318 123.689C172.904 123.755 173.381 123.924 173.748 124.195C174.122 124.466 174.309 124.855 174.309 125.361C174.309 125.706 174.21 126.017 174.012 126.296C173.821 126.567 173.55 126.78 173.198 126.934C172.846 127.088 172.435 127.165 171.966 127.165Z" fill="#0A323E"/>
<path d="M228.5 117H219.5C218.672 117 218 117.672 218 118.5V127.5C218 128.328 218.672 129 219.5 129H228.5C229.328 129 230 128.328 230 127.5V118.5C230 117.672 229.328 117 228.5 117Z" stroke="#1E95BB" stroke-width="1.1875" stroke-linejoin="round"/>
<defs>
<filter id="filter0_iii_639_3296" x="256" y="16" width="38" height="38.5519" filterUnits="userSpaceOnUse" color-interpolation-filters="sRGB">
<feFlood flood-opacity="0" result="BackgroundImageFix"/>
<feBlend mode="normal" in="SourceGraphic" in2="BackgroundImageFix" result="shape"/>
<feColorMatrix in="SourceAlpha" type="matrix" values="0 0 0 0 0 0 0 0 0 0 0 0 0 0 0 0 0 0 127 0" result="hardAlpha"/>
<feOffset dy="0.315353"/>
<feGaussianBlur stdDeviation="0.630705"/>
<feComposite in2="hardAlpha" operator="arithmetic" k2="-1" k3="1"/>
<feColorMatrix type="matrix" values="0 0 0 0 1 0 0 0 0 1 0 0 0 0 1 0 0 0 1 0"/>
<feBlend mode="normal" in2="shape" result="effect1_innerShadow_639_3296"/>
<feColorMatrix in="SourceAlpha" type="matrix" values="0 0 0 0 0 0 0 0 0 0 0 0 0 0 0 0 0 0 127 0" result="hardAlpha"/>
<feOffset dy="0.551867"/>
<feGaussianBlur stdDeviation="0.394191"/>
<feComposite in2="hardAlpha" operator="arithmetic" k2="-1" k3="1"/>
<feColorMatrix type="matrix" values="0 0 0 0 1 0 0 0 0 1 0 0 0 0 1 0 0 0 1 0"/>
<feBlend mode="normal" in2="effect1_innerShadow_639_3296" result="effect2_innerShadow_639_3296"/>
<feColorMatrix in="SourceAlpha" type="matrix" values="0 0 0 0 0 0 0 0 0 0 0 0 0 0 0 0 0 0 127 0" result="hardAlpha"/>
<feOffset dy="0.315353"/>
<feGaussianBlur stdDeviation="0.946058"/>
<feComposite in2="hardAlpha" operator="arithmetic" k2="-1" k3="1"/>
<feColorMatrix type="matrix" values="0 0 0 0 1 0 0 0 0 1 0 0 0 0 1 0 0 0 1 0"/>
<feBlend mode="normal" in2="effect2_innerShadow_639_3296" result="effect3_innerShadow_639_3296"/>
</filter>
<linearGradient id="paint0_linear_639_3296" x1="262.859" y1="19.5871" x2="289.349" y2="47.6929" gradientUnits="userSpaceOnUse">
<stop stop-color="#775ADA"/>
<stop offset="0.470968" stop-color="#FF304F"/>
<stop offset="1" stop-color="#28C7FA"/>
</linearGradient>
<linearGradient id="paint1_linear_639_3296" x1="282.2" y1="39.2858" x2="272.693" y2="34.37" gradientUnits="userSpaceOnUse">
<stop stop-color="#002651"/>
<stop offset="1" stop-color="#775ADA"/>
</linearGradient>
<linearGradient id="paint2_linear_639_3296" x1="282.139" y1="30.2896" x2="274.945" y2="24.5554" gradientUnits="userSpaceOnUse">
<stop stop-color="#002651"/>
<stop offset="1" stop-color="#775ADA"/>
</linearGradient>
<linearGradient id="paint3_linear_639_3296" x1="267.645" y1="39.2858" x2="258.138" y2="34.37" gradientUnits="userSpaceOnUse">
<stop stop-color="#002651"/>
<stop offset="1" stop-color="#775ADA"/>
</linearGradient>
<linearGradient id="paint4_linear_639_3296" x1="274.922" y1="41.2244" x2="271.333" y2="35.7024" gradientUnits="userSpaceOnUse">
<stop stop-color="#002651"/>
<stop offset="1" stop-color="#775ADA"/>
</linearGradient>
<linearGradient id="paint5_linear_639_3296" x1="274.922" y1="34.536" x2="264.394" y2="30.4897" gradientUnits="userSpaceOnUse">
<stop stop-color="#002651"/>
<stop offset="1" stop-color="#775ADA"/>
</linearGradient>
<linearGradient id="paint6_linear_639_3296" x1="267.71" y1="30.2896" x2="260.516" y2="24.5554" gradientUnits="userSpaceOnUse">
<stop stop-color="#002651"/>
<stop offset="1" stop-color="#775ADA"/>
</linearGradient>
<linearGradient id="paint7_linear_639_3296" x1="273.374" y1="44.7038" x2="274.842" y2="50.1367" gradientUnits="userSpaceOnUse">
<stop stop-color="#002651"/>
<stop offset="1" stop-color="#775ADA"/>
</linearGradient>
<linearGradient id="paint8_linear_639_3296" x1="268" y1="122" x2="268" y2="144" gradientUnits="userSpaceOnUse">
<stop stop-color="#28C7FA"/>
<stop offset="0.73" stop-color="#775ADA"/>
<stop offset="1" stop-color="#991D2F"/>
</linearGradient>
</defs>
</svg>
