<svg width="310" height="170" viewBox="0 0 310 170" fill="none" xmlns="http://www.w3.org/2000/svg">
<path d="M1.5 40C1.5 30.5295 1.50319 23.5775 2.21886 18.2544C2.92873 12.9745 4.31475 9.5223 6.91852 6.91852C9.5223 4.31475 12.9745 2.92873 18.2544 2.21886C23.5775 1.50319 30.5295 1.5 40 1.5H270C279.47 1.5 286.422 1.50319 291.746 2.21886C297.026 2.92873 300.478 4.31475 303.081 6.91853C305.685 9.5223 307.071 12.9745 307.781 18.2544C308.497 23.5775 308.5 30.5295 308.5 40V168.5H1.5V40Z" fill="white" stroke="#4D30AF" stroke-width="3"/>
<g filter="url(#filter0_iii_639_3320)">
<circle cx="275" cy="35" r="19" fill="#F3FCFF"/>
</g>
<circle cx="275" cy="35" r="18.9212" stroke="url(#paint0_linear_639_3320)" stroke-width="0.157676"/>
<path d="M284.934 35.4105C284.833 36.9824 284.221 38.4175 283.264 39.5513V34.7202H281.306V41.1729C280.782 41.469 280.217 41.7009 279.621 41.8574V35.6909C279.621 34.222 280.816 33.027 282.285 33.027C283.642 33.027 284.793 34.069 284.934 35.4105Z" fill="url(#paint1_linear_639_3320)"/>
<path d="M279.621 26.3253C280.217 26.4818 280.782 26.7137 281.306 27.0098V30.1188H283.264V28.6314C284.024 29.5319 284.567 30.622 284.808 31.8201C284.062 31.333 283.19 31.0698 282.285 31.0698C281.293 31.0698 280.375 31.3847 279.621 31.9185V26.3253H279.621Z" fill="url(#paint2_linear_639_3320)"/>
<path d="M270.379 35.6909V41.8574C269.783 41.7009 269.218 41.469 268.694 41.1729V34.7201H266.736V39.5513C265.779 38.4174 265.167 36.9823 265.066 35.4103C265.207 34.069 266.358 33.027 267.715 33.027C269.184 33.027 270.379 34.222 270.379 35.6909Z" fill="url(#paint3_linear_639_3320)"/>
<path d="M277.664 39.1146V42.0913H275.979V40.9142H274.021V42.0913H272.336V39.1146C273.09 39.6482 274.008 39.9632 275 39.9632C275.992 39.9632 276.91 39.6482 277.664 39.1146Z" fill="url(#paint4_linear_639_3320)"/>
<path d="M275.979 26.0913H277.664V35.3419C277.664 36.8109 276.469 38.0059 275 38.0059C273.531 38.0059 272.336 36.8109 272.336 35.3419V26.0914H274.021V36.3127H275.978V26.0913H275.979Z" fill="url(#paint5_linear_639_3320)"/>
<path d="M268.694 27.0098C269.218 26.7137 269.783 26.4819 270.379 26.3253V31.9185C269.625 31.3847 268.706 31.0698 267.715 31.0698C266.81 31.0698 265.937 31.3331 265.192 31.8201C265.433 30.6221 265.976 29.5319 266.736 28.6314V30.1188H268.693V27.0098H268.694Z" fill="url(#paint6_linear_639_3320)"/>
<path d="M275.087 45.9515C277.597 45.9515 279.17 44.1978 279.17 43.5312C279.17 43.3979 279.066 43.3364 278.962 43.4184C278.202 44.044 276.92 44.6593 275.087 44.6593C273.243 44.6593 271.93 44.0029 271.201 43.4286C271.097 43.3364 270.993 43.3979 270.993 43.5312C270.993 44.1978 272.566 45.9515 275.087 45.9515Z" fill="url(#paint7_linear_639_3320)"/>
<path d="M16 23C16 19.134 19.134 16 23 16H230.48H251.584C253.703 16 255.154 18.1359 254.373 20.1051L247.805 36.6829C247.479 37.5037 247.312 38.3786 247.312 39.2616V147C247.312 150.866 244.178 154 240.312 154H23C19.134 154 16 150.866 16 147V23Z" fill="#E3F3F8"/>
<path d="M275 122L273.74 124.75L271 126L273.74 127.26L275 130L276.25 127.26L279 126L276.25 124.75M265 125L262.5 130.5L257 133L262.5 135.5L265 141L267.5 135.5L273 133L267.5 130.5M275 136L273.74 138.74L271 140L273.74 141.25L275 144L276.25 141.25L279 140L276.25 138.74" fill="url(#paint8_linear_639_3320)"/>
<path d="M40.776 41V32.97H41.612V41H40.776ZM35.254 41V32.97H36.09V41H35.254ZM35.903 37.392V36.644H40.963V37.392H35.903ZM44.2373 41V35.181H45.0513V41H44.2373ZM43.3023 35.841V35.181H45.0513V35.841H43.3023ZM44.4133 34.103C44.2153 34.103 44.065 34.0517 43.9623 33.949C43.867 33.839 43.8193 33.7033 43.8193 33.542C43.8193 33.3807 43.867 33.2487 43.9623 33.146C44.065 33.036 44.2153 32.981 44.4133 32.981C44.6113 32.981 44.758 33.036 44.8533 33.146C44.9486 33.2487 44.9963 33.3807 44.9963 33.542C44.9963 33.7033 44.9486 33.839 44.8533 33.949C44.758 34.0517 44.6113 34.103 44.4133 34.103ZM50.0258 43.002V32.464H50.8178V43.002H50.0258ZM50.3448 43.002V42.342H52.1268V43.002H50.3448ZM50.3448 33.124V32.464H52.1268V33.124H50.3448ZM54.6473 38.063V37.326H56.5173C56.95 37.326 57.302 37.2453 57.5733 37.084C57.8447 36.9153 58.0463 36.6953 58.1783 36.424C58.3103 36.1453 58.3763 35.8373 58.3763 35.5C58.3763 35.1553 58.3103 34.8473 58.1783 34.576C58.0463 34.2973 57.8447 34.0773 57.5733 33.916C57.302 33.7547 56.95 33.674 56.5173 33.674H54.6473V32.937H56.3743C57.0197 32.937 57.5513 33.0433 57.9693 33.256C58.3947 33.4687 58.71 33.762 58.9153 34.136C59.128 34.51 59.2343 34.939 59.2343 35.423V35.577C59.2343 36.0537 59.128 36.4827 58.9153 36.864C58.71 37.238 58.3947 37.5313 57.9693 37.744C57.5513 37.9567 57.0197 38.063 56.3743 38.063H54.6473ZM54.0313 41V32.937H54.8673V41H54.0313ZM60.7945 41V35.181H61.4545V37.612H61.3885C61.3885 36.7613 61.5755 36.1343 61.9495 35.731C62.3235 35.3203 62.9102 35.115 63.7095 35.115H63.8965V35.863H63.5555C62.9249 35.863 62.4445 36.028 62.1145 36.358C61.7845 36.6807 61.6195 37.1573 61.6195 37.788V41H60.7945ZM67.7629 41.187C67.2642 41.187 66.8242 41.1027 66.4429 40.934C66.0689 40.758 65.7499 40.527 65.4859 40.241C65.2292 39.9477 65.0312 39.6213 64.8919 39.262C64.7599 38.9027 64.6939 38.536 64.6939 38.162V38.008C64.6939 37.634 64.7635 37.2673 64.9029 36.908C65.0422 36.5413 65.2439 36.215 65.5079 35.929C65.7719 35.643 66.0909 35.4157 66.4649 35.247C66.8462 35.071 67.2789 34.983 67.7629 34.983C68.2542 34.983 68.6869 35.071 69.0609 35.247C69.4422 35.4157 69.7649 35.643 70.0289 35.929C70.2929 36.215 70.4909 36.5413 70.6229 36.908C70.7622 37.2673 70.8319 37.634 70.8319 38.008V38.162C70.8319 38.536 70.7659 38.9027 70.6339 39.262C70.5019 39.6213 70.3039 39.9477 70.0399 40.241C69.7832 40.527 69.4642 40.758 69.0829 40.934C68.7015 41.1027 68.2615 41.187 67.7629 41.187ZM67.7629 40.45C68.2469 40.45 68.6539 40.3437 68.9839 40.131C69.3212 39.911 69.5779 39.625 69.7539 39.273C69.9299 38.9137 70.0179 38.5177 70.0179 38.085C70.0179 37.645 69.9262 37.249 69.7429 36.897C69.5669 36.5377 69.3102 36.2553 68.9729 36.05C68.6355 35.8373 68.2322 35.731 67.7629 35.731C67.3009 35.731 66.9012 35.8373 66.5639 36.05C66.2265 36.2553 65.9662 36.5377 65.7829 36.897C65.6069 37.249 65.5189 37.645 65.5189 38.085C65.5189 38.5177 65.6069 38.9137 65.7829 39.273C65.9589 39.625 66.2119 39.911 66.5419 40.131C66.8792 40.3437 67.2862 40.45 67.7629 40.45ZM74.3513 41.165C73.6033 41.165 73.0276 41.0037 72.6243 40.681C72.2209 40.351 72.0156 39.911 72.0083 39.361H72.7783C72.7929 39.6397 72.9176 39.8927 73.1523 40.12C73.3943 40.3473 73.7939 40.461 74.3513 40.461C74.8719 40.461 75.2606 40.3547 75.5173 40.142C75.7813 39.922 75.9133 39.658 75.9133 39.35C75.9133 39.064 75.8033 38.844 75.5833 38.69C75.3706 38.5287 75.0589 38.426 74.6483 38.382L73.9883 38.316C73.4603 38.2573 73.0313 38.096 72.7013 37.832C72.3786 37.5607 72.2173 37.1903 72.2173 36.721C72.2173 36.3763 72.3053 36.0757 72.4813 35.819C72.6573 35.5623 72.9029 35.3643 73.2183 35.225C73.5409 35.0783 73.9186 35.005 74.3513 35.005C74.9746 35.005 75.4806 35.1517 75.8693 35.445C76.2653 35.7383 76.4669 36.1563 76.4743 36.699H75.7043C75.6969 36.4203 75.5796 36.1857 75.3523 35.995C75.1249 35.8043 74.7913 35.709 74.3513 35.709C73.8966 35.709 73.5556 35.808 73.3283 36.006C73.1083 36.204 72.9983 36.446 72.9983 36.732C72.9983 36.974 73.0826 37.1757 73.2513 37.337C73.4199 37.491 73.6839 37.5863 74.0433 37.623L74.7033 37.689C75.2899 37.755 75.7666 37.9237 76.1333 38.195C76.5073 38.4663 76.6943 38.855 76.6943 39.361C76.6943 39.7057 76.5953 40.0173 76.3973 40.296C76.2066 40.5673 75.9353 40.78 75.5833 40.934C75.2313 41.088 74.8206 41.165 74.3513 41.165ZM78.3365 43.2V35.181H78.9965V37.678L78.7985 37.7C78.8279 37.1133 78.9525 36.6183 79.1725 36.215C79.3999 35.8117 79.7042 35.5073 80.0855 35.302C80.4742 35.0893 80.9069 34.983 81.3835 34.983C81.8089 34.983 82.1939 35.0673 82.5385 35.236C82.8905 35.3973 83.1875 35.621 83.4295 35.907C83.6789 36.1857 83.8659 36.5083 83.9905 36.875C84.1225 37.2343 84.1885 37.612 84.1885 38.008V38.162C84.1885 38.558 84.1225 38.9393 83.9905 39.306C83.8585 39.6653 83.6679 39.988 83.4185 40.274C83.1765 40.5527 82.8795 40.7763 82.5275 40.945C82.1829 41.1063 81.7942 41.187 81.3615 41.187C80.8995 41.187 80.4742 41.0843 80.0855 40.879C79.7042 40.6663 79.3925 40.3547 79.1505 39.944C78.9159 39.5333 78.7875 39.0273 78.7655 38.426L79.1615 39.251V43.2H78.3365ZM81.2515 40.461C81.6915 40.461 82.0692 40.3583 82.3845 40.153C82.6999 39.9403 82.9419 39.6543 83.1105 39.295C83.2792 38.9283 83.3635 38.525 83.3635 38.085C83.3635 37.6303 83.2755 37.227 83.0995 36.875C82.9309 36.5157 82.6889 36.2333 82.3735 36.028C82.0582 35.8153 81.6842 35.709 81.2515 35.709C80.8555 35.709 80.4962 35.797 80.1735 35.973C79.8509 36.149 79.5942 36.3983 79.4035 36.721C79.2202 37.0363 79.1285 37.4103 79.1285 37.843V38.382C79.1285 38.7927 79.2202 39.1557 79.4035 39.471C79.5942 39.779 79.8509 40.021 80.1735 40.197C80.4962 40.373 80.8555 40.461 81.2515 40.461ZM88.2871 41.187C87.7884 41.187 87.3557 41.1027 86.9891 40.934C86.6224 40.758 86.3217 40.527 86.0871 40.241C85.8524 39.9477 85.6764 39.6213 85.5591 39.262C85.4491 38.9027 85.3941 38.5323 85.3941 38.151V37.997C85.3941 37.623 85.4491 37.2563 85.5591 36.897C85.6764 36.5377 85.8524 36.215 86.0871 35.929C86.3217 35.643 86.6151 35.4157 86.9671 35.247C87.3264 35.071 87.7444 34.983 88.2211 34.983C88.8297 34.983 89.3357 35.1187 89.7391 35.39C90.1497 35.6613 90.4577 36.0097 90.6631 36.435C90.8684 36.853 90.9711 37.304 90.9711 37.788V38.217H85.7681V37.579H90.3991L90.1901 37.898C90.1901 37.4653 90.1131 37.0877 89.9591 36.765C89.8124 36.435 89.5924 36.1783 89.2991 35.995C89.0131 35.8043 88.6537 35.709 88.2211 35.709C87.7664 35.709 87.3887 35.8153 87.0881 36.028C86.7874 36.2407 86.5601 36.523 86.4061 36.875C86.2594 37.227 86.1861 37.6267 86.1861 38.074C86.1861 38.514 86.2594 38.9173 86.4061 39.284C86.5601 39.6433 86.7911 39.9293 87.0991 40.142C87.4144 40.3547 87.8104 40.461 88.2871 40.461C88.7931 40.461 89.2037 40.3473 89.5191 40.12C89.8344 39.8853 90.0287 39.6103 90.1021 39.295H90.8721C90.7987 39.6837 90.6447 40.021 90.4101 40.307C90.1754 40.5857 89.8784 40.802 89.5191 40.956C89.1597 41.11 88.7491 41.187 88.2871 41.187ZM95.0122 41.187C94.5209 41.187 94.0919 41.1027 93.7252 40.934C93.3659 40.758 93.0652 40.5233 92.8232 40.23C92.5812 39.9293 92.3979 39.5993 92.2732 39.24C92.1559 38.8807 92.0972 38.5177 92.0972 38.151V37.997C92.0972 37.623 92.1559 37.26 92.2732 36.908C92.3979 36.5487 92.5812 36.226 92.8232 35.94C93.0652 35.6467 93.3659 35.4157 93.7252 35.247C94.0919 35.071 94.5135 34.983 94.9902 34.983C95.4742 34.983 95.9032 35.071 96.2772 35.247C96.6585 35.423 96.9665 35.6723 97.2012 35.995C97.4359 36.3177 97.5752 36.699 97.6192 37.139H96.8272C96.7612 36.7357 96.5705 36.402 96.2552 36.138C95.9472 35.8667 95.5255 35.731 94.9902 35.731C94.5282 35.731 94.1432 35.8373 93.8352 36.05C93.5345 36.2553 93.3072 36.5377 93.1532 36.897C92.9992 37.249 92.9222 37.6413 92.9222 38.074C92.9222 38.4993 92.9992 38.8953 93.1532 39.262C93.3072 39.6213 93.5382 39.911 93.8462 40.131C94.1542 40.3437 94.5429 40.45 95.0122 40.45C95.3715 40.45 95.6832 40.3877 95.9472 40.263C96.2185 40.131 96.4349 39.955 96.5962 39.735C96.7649 39.515 96.8639 39.273 96.8932 39.009H97.6852C97.6559 39.449 97.5165 39.834 97.2672 40.164C97.0252 40.4867 96.7099 40.7397 96.3212 40.923C95.9325 41.099 95.4962 41.187 95.0122 41.187ZM101.31 41.066C100.907 41.066 100.558 41.0073 100.265 40.89C99.9715 40.7727 99.7442 40.5747 99.5829 40.296C99.4215 40.01 99.3409 39.6287 99.3409 39.152V33.344H100.133V39.273C100.133 39.6103 100.225 39.8707 100.408 40.054C100.591 40.23 100.852 40.318 101.189 40.318H102.234V41.066H101.31ZM98.2959 35.808V35.181H102.234V35.808H98.2959ZM103.635 35.852V32.97H104.35V35.852H103.635ZM107.931 41.165C107.183 41.165 106.608 41.0037 106.204 40.681C105.801 40.351 105.596 39.911 105.588 39.361H106.358C106.373 39.6397 106.498 39.8927 106.732 40.12C106.974 40.3473 107.374 40.461 107.931 40.461C108.452 40.461 108.841 40.3547 109.097 40.142C109.361 39.922 109.493 39.658 109.493 39.35C109.493 39.064 109.383 38.844 109.163 38.69C108.951 38.5287 108.639 38.426 108.228 38.382L107.568 38.316C107.04 38.2573 106.611 38.096 106.281 37.832C105.959 37.5607 105.797 37.1903 105.797 36.721C105.797 36.3763 105.885 36.0757 106.061 35.819C106.237 35.5623 106.483 35.3643 106.798 35.225C107.121 35.0783 107.499 35.005 107.931 35.005C108.555 35.005 109.061 35.1517 109.449 35.445C109.845 35.7383 110.047 36.1563 110.054 36.699H109.284C109.277 36.4203 109.16 36.1857 108.932 35.995C108.705 35.8043 108.371 35.709 107.931 35.709C107.477 35.709 107.136 35.808 106.908 36.006C106.688 36.204 106.578 36.446 106.578 36.732C106.578 36.974 106.663 37.1757 106.831 37.337C107 37.491 107.264 37.5863 107.623 37.623L108.283 37.689C108.87 37.755 109.347 37.9237 109.713 38.195C110.087 38.4663 110.274 38.855 110.274 39.361C110.274 39.7057 110.175 40.0173 109.977 40.296C109.787 40.5673 109.515 40.78 109.163 40.934C108.811 41.088 108.401 41.165 107.931 41.165ZM114.671 41V32.97H116.068L120.468 40.241H120.82L120.6 40.417V32.97H121.403V41H119.995L115.595 33.729H115.243L115.463 33.553V41H114.671ZM127.264 41V39.251H127.132V37.183C127.132 36.7503 127.019 36.4203 126.791 36.193C126.564 35.9583 126.212 35.841 125.735 35.841C125.515 35.841 125.292 35.8447 125.064 35.852C124.844 35.8593 124.632 35.8703 124.426 35.885C124.228 35.8923 124.052 35.9033 123.898 35.918V35.192C124.06 35.1773 124.225 35.1627 124.393 35.148C124.562 35.1333 124.734 35.126 124.91 35.126C125.094 35.1187 125.27 35.115 125.438 35.115C126.032 35.115 126.509 35.1883 126.868 35.335C127.235 35.4817 127.503 35.7127 127.671 36.028C127.84 36.336 127.924 36.7467 127.924 37.26V41H127.264ZM125.295 41.154C124.885 41.154 124.522 41.0807 124.206 40.934C123.891 40.7873 123.645 40.5747 123.469 40.296C123.301 40.0173 123.216 39.68 123.216 39.284C123.216 38.8953 123.304 38.5653 123.48 38.294C123.664 38.0227 123.924 37.8173 124.261 37.678C124.606 37.5313 125.02 37.458 125.504 37.458H127.209V38.085H125.449C124.987 38.085 124.632 38.1987 124.382 38.426C124.14 38.646 124.019 38.9357 124.019 39.295C124.019 39.6617 124.148 39.955 124.404 40.175C124.661 40.3877 125.009 40.494 125.449 40.494C125.721 40.494 125.981 40.4463 126.23 40.351C126.48 40.2483 126.689 40.0797 126.857 39.845C127.026 39.603 127.118 39.273 127.132 38.855L127.374 39.196C127.345 39.6287 127.242 39.9917 127.066 40.285C126.89 40.571 126.652 40.7873 126.351 40.934C126.051 41.0807 125.699 41.154 125.295 41.154ZM129.985 41V35.17H130.645V37.623H130.513C130.513 37.0877 130.586 36.6257 130.733 36.237C130.887 35.8483 131.114 35.5477 131.415 35.335C131.716 35.115 132.097 35.005 132.559 35.005H132.592C133.054 35.005 133.435 35.1113 133.736 35.324C134.037 35.5367 134.26 35.8373 134.407 36.226C134.554 36.6147 134.627 37.0803 134.627 37.623H134.363C134.363 37.0877 134.436 36.6257 134.583 36.237C134.737 35.8483 134.964 35.5477 135.265 35.335C135.573 35.115 135.958 35.005 136.42 35.005H136.453C136.915 35.005 137.296 35.1113 137.597 35.324C137.905 35.5367 138.132 35.8373 138.279 36.226C138.433 36.6147 138.51 37.0803 138.51 37.623V41H137.685V37.436C137.685 36.9227 137.56 36.5157 137.311 36.215C137.062 35.9143 136.702 35.764 136.233 35.764C135.749 35.764 135.364 35.9217 135.078 36.237C134.799 36.545 134.66 36.963 134.66 37.491V41H133.835V37.436C133.835 36.9227 133.71 36.5157 133.461 36.215C133.212 35.9143 132.852 35.764 132.383 35.764C131.899 35.764 131.514 35.9217 131.228 36.237C130.949 36.545 130.81 36.963 130.81 37.491V41H129.985ZM142.997 41.187C142.498 41.187 142.066 41.1027 141.699 40.934C141.332 40.758 141.032 40.527 140.797 40.241C140.562 39.9477 140.386 39.6213 140.269 39.262C140.159 38.9027 140.104 38.5323 140.104 38.151V37.997C140.104 37.623 140.159 37.2563 140.269 36.897C140.386 36.5377 140.562 36.215 140.797 35.929C141.032 35.643 141.325 35.4157 141.677 35.247C142.036 35.071 142.454 34.983 142.931 34.983C143.54 34.983 144.046 35.1187 144.449 35.39C144.86 35.6613 145.168 36.0097 145.373 36.435C145.578 36.853 145.681 37.304 145.681 37.788V38.217H140.478V37.579H145.109L144.9 37.898C144.9 37.4653 144.823 37.0877 144.669 36.765C144.522 36.435 144.302 36.1783 144.009 35.995C143.723 35.8043 143.364 35.709 142.931 35.709C142.476 35.709 142.099 35.8153 141.798 36.028C141.497 36.2407 141.27 36.523 141.116 36.875C140.969 37.227 140.896 37.6267 140.896 38.074C140.896 38.514 140.969 38.9173 141.116 39.284C141.27 39.6433 141.501 39.9293 141.809 40.142C142.124 40.3547 142.52 40.461 142.997 40.461C143.503 40.461 143.914 40.3473 144.229 40.12C144.544 39.8853 144.739 39.6103 144.812 39.295H145.582C145.509 39.6837 145.355 40.021 145.12 40.307C144.885 40.5857 144.588 40.802 144.229 40.956C143.87 41.11 143.459 41.187 142.997 41.187ZM148.759 43.002H147.967V32.464H148.759V43.002ZM148.44 43.002H146.658V42.342H148.44V43.002ZM148.44 33.124H146.658V32.464H148.44V33.124ZM151.125 42.683L150.454 42.441L151.411 39.79L152.104 40.043L151.125 42.683ZM156.749 41V32.97H157.585V41H156.749ZM164.328 41.165C163.58 41.165 163.004 41.0037 162.601 40.681C162.197 40.351 161.992 39.911 161.985 39.361H162.755C162.769 39.6397 162.894 39.8927 163.129 40.12C163.371 40.3473 163.77 40.461 164.328 40.461C164.848 40.461 165.237 40.3547 165.494 40.142C165.758 39.922 165.89 39.658 165.89 39.35C165.89 39.064 165.78 38.844 165.56 38.69C165.347 38.5287 165.035 38.426 164.625 38.382L163.965 38.316C163.437 38.2573 163.008 38.096 162.678 37.832C162.355 37.5607 162.194 37.1903 162.194 36.721C162.194 36.3763 162.282 36.0757 162.458 35.819C162.634 35.5623 162.879 35.3643 163.195 35.225C163.517 35.0783 163.895 35.005 164.328 35.005C164.951 35.005 165.457 35.1517 165.846 35.445C166.242 35.7383 166.443 36.1563 166.451 36.699H165.681C165.673 36.4203 165.556 36.1857 165.329 35.995C165.101 35.8043 164.768 35.709 164.328 35.709C163.873 35.709 163.532 35.808 163.305 36.006C163.085 36.204 162.975 36.446 162.975 36.732C162.975 36.974 163.059 37.1757 163.228 37.337C163.396 37.491 163.66 37.5863 164.02 37.623L164.68 37.689C165.266 37.755 165.743 37.9237 166.11 38.195C166.484 38.4663 166.671 38.855 166.671 39.361C166.671 39.7057 166.572 40.0173 166.374 40.296C166.183 40.5673 165.912 40.78 165.56 40.934C165.208 41.088 164.797 41.165 164.328 41.165ZM171.855 41V39.251H171.723V37.183C171.723 36.7503 171.609 36.4203 171.382 36.193C171.155 35.9583 170.803 35.841 170.326 35.841C170.106 35.841 169.882 35.8447 169.655 35.852C169.435 35.8593 169.222 35.8703 169.017 35.885C168.819 35.8923 168.643 35.9033 168.489 35.918V35.192C168.65 35.1773 168.815 35.1627 168.984 35.148C169.153 35.1333 169.325 35.126 169.501 35.126C169.684 35.1187 169.86 35.115 170.029 35.115C170.623 35.115 171.1 35.1883 171.459 35.335C171.826 35.4817 172.093 35.7127 172.262 36.028C172.431 36.336 172.515 36.7467 172.515 37.26V41H171.855ZM169.886 41.154C169.475 41.154 169.112 41.0807 168.797 40.934C168.482 40.7873 168.236 40.5747 168.06 40.296C167.891 40.0173 167.807 39.68 167.807 39.284C167.807 38.8953 167.895 38.5653 168.071 38.294C168.254 38.0227 168.515 37.8173 168.852 37.678C169.197 37.5313 169.611 37.458 170.095 37.458H171.8V38.085H170.04C169.578 38.085 169.222 38.1987 168.973 38.426C168.731 38.646 168.61 38.9357 168.61 39.295C168.61 39.6617 168.738 39.955 168.995 40.175C169.252 40.3877 169.6 40.494 170.04 40.494C170.311 40.494 170.572 40.4463 170.821 40.351C171.07 40.2483 171.279 40.0797 171.448 39.845C171.617 39.603 171.708 39.273 171.723 38.855L171.965 39.196C171.936 39.6287 171.833 39.9917 171.657 40.285C171.481 40.571 171.243 40.7873 170.942 40.934C170.641 41.0807 170.289 41.154 169.886 41.154ZM176.193 41L177.436 35.368H178.591L180.032 41H179.317L177.876 35.401H178.14L176.886 41H176.193ZM175.72 41V40.329H176.721V41H175.72ZM175.522 41L173.839 35.181H174.631L176.292 41H175.522ZM179.504 41V40.329H180.483V41H179.504ZM179.933 41L181.385 35.181H182.144L180.659 41H179.933ZM185.714 43.266V42.529H186.462C186.719 42.529 186.939 42.496 187.122 42.43C187.305 42.3713 187.459 42.265 187.584 42.111C187.709 41.957 187.815 41.7443 187.903 41.473L189.861 35.181H190.664L188.618 41.704C188.501 42.078 188.339 42.3787 188.134 42.606C187.929 42.8407 187.683 43.0093 187.397 43.112C187.111 43.2147 186.785 43.266 186.418 43.266H185.714ZM187.606 40.857V40.164H188.651V40.857H187.606ZM187.507 40.857L185.395 35.181H186.242L188.277 40.857H187.507ZM194.617 41.187C194.119 41.187 193.679 41.1027 193.297 40.934C192.923 40.758 192.604 40.527 192.34 40.241C192.084 39.9477 191.886 39.6213 191.746 39.262C191.614 38.9027 191.548 38.536 191.548 38.162V38.008C191.548 37.634 191.618 37.2673 191.757 36.908C191.897 36.5413 192.098 36.215 192.362 35.929C192.626 35.643 192.945 35.4157 193.319 35.247C193.701 35.071 194.133 34.983 194.617 34.983C195.109 34.983 195.541 35.071 195.915 35.247C196.297 35.4157 196.619 35.643 196.883 35.929C197.147 36.215 197.345 36.5413 197.477 36.908C197.617 37.2673 197.686 37.634 197.686 38.008V38.162C197.686 38.536 197.62 38.9027 197.488 39.262C197.356 39.6213 197.158 39.9477 196.894 40.241C196.638 40.527 196.319 40.758 195.937 40.934C195.556 41.1027 195.116 41.187 194.617 41.187ZM194.617 40.45C195.101 40.45 195.508 40.3437 195.838 40.131C196.176 39.911 196.432 39.625 196.608 39.273C196.784 38.9137 196.872 38.5177 196.872 38.085C196.872 37.645 196.781 37.249 196.597 36.897C196.421 36.5377 196.165 36.2553 195.827 36.05C195.49 35.8373 195.087 35.731 194.617 35.731C194.155 35.731 193.756 35.8373 193.418 36.05C193.081 36.2553 192.821 36.5377 192.637 36.897C192.461 37.249 192.373 37.645 192.373 38.085C192.373 38.5177 192.461 38.9137 192.637 39.273C192.813 39.625 193.066 39.911 193.396 40.131C193.734 40.3437 194.141 40.45 194.617 40.45ZM201.382 41.165C200.685 41.165 200.153 40.9413 199.787 40.494C199.42 40.0393 199.237 39.4087 199.237 38.602V35.17H200.051V38.767C200.051 39.273 200.183 39.6763 200.447 39.977C200.718 40.2703 201.092 40.417 201.569 40.417C202.067 40.417 202.463 40.2593 202.757 39.944C203.057 39.6287 203.208 39.207 203.208 38.679V35.17H204.033V41H203.373V38.569H203.505C203.505 39.1117 203.428 39.5773 203.274 39.966C203.12 40.3473 202.889 40.6443 202.581 40.857C202.273 41.0623 201.884 41.165 201.415 41.165H201.382ZM206.19 41V35.181H206.85V37.612H206.784C206.784 36.7613 206.971 36.1343 207.345 35.731C207.719 35.3203 208.306 35.115 209.105 35.115H209.292V35.863H208.951C208.32 35.863 207.84 36.028 207.51 36.358C207.18 36.6807 207.015 37.1573 207.015 37.788V41H206.19ZM35.375 60V54.181H36.189V60H35.375ZM34.44 54.841V54.181H36.189V54.841H34.44ZM35.551 53.103C35.353 53.103 35.2027 53.0517 35.1 52.949C35.0047 52.839 34.957 52.7033 34.957 52.542C34.957 52.3807 35.0047 52.2487 35.1 52.146C35.2027 52.036 35.353 51.981 35.551 51.981C35.749 51.981 35.8957 52.036 35.991 52.146C36.0863 52.2487 36.134 52.3807 36.134 52.542C36.134 52.7033 36.0863 52.839 35.991 52.949C35.8957 53.0517 35.749 53.103 35.551 53.103ZM38.3541 60V54.181H39.0141V56.623H38.8821C38.8821 56.0803 38.9628 55.6147 39.1241 55.226C39.2854 54.8373 39.5274 54.5367 39.8501 54.324C40.1728 54.1113 40.5798 54.005 41.0711 54.005H41.1041C41.8374 54.005 42.3838 54.236 42.7431 54.698C43.1024 55.1527 43.2821 55.7943 43.2821 56.623V60H42.4681V56.447C42.4681 55.941 42.3288 55.534 42.0501 55.226C41.7714 54.918 41.3828 54.764 40.8841 54.764C40.3708 54.764 39.9564 54.9253 39.6411 55.248C39.3331 55.5633 39.1791 55.9813 39.1791 56.502V60H38.3541ZM47.4485 60.066C47.0452 60.066 46.6969 60.0073 46.4035 59.89C46.1102 59.7727 45.8829 59.5747 45.7215 59.296C45.5602 59.01 45.4795 58.6287 45.4795 58.152V52.344H46.2715V58.273C46.2715 58.6103 46.3632 58.8707 46.5465 59.054C46.7299 59.23 46.9902 59.318 47.3275 59.318H48.3725V60.066H47.4485ZM44.4345 54.808V54.181H48.3725V54.808H44.4345ZM52.3437 60.187C51.845 60.187 51.4124 60.1027 51.0457 59.934C50.679 59.758 50.3784 59.527 50.1437 59.241C49.909 58.9477 49.733 58.6213 49.6157 58.262C49.5057 57.9027 49.4507 57.5323 49.4507 57.151V56.997C49.4507 56.623 49.5057 56.2563 49.6157 55.897C49.733 55.5377 49.909 55.215 50.1437 54.929C50.3784 54.643 50.6717 54.4157 51.0237 54.247C51.383 54.071 51.801 53.983 52.2777 53.983C52.8864 53.983 53.3924 54.1187 53.7957 54.39C54.2064 54.6613 54.5144 55.0097 54.7197 55.435C54.925 55.853 55.0277 56.304 55.0277 56.788V57.217H49.8247V56.579H54.4557L54.2467 56.898C54.2467 56.4653 54.1697 56.0877 54.0157 55.765C53.869 55.435 53.649 55.1783 53.3557 54.995C53.0697 54.8043 52.7104 54.709 52.2777 54.709C51.823 54.709 51.4454 54.8153 51.1447 55.028C50.844 55.2407 50.6167 55.523 50.4627 55.875C50.316 56.227 50.2427 56.6267 50.2427 57.074C50.2427 57.514 50.316 57.9173 50.4627 58.284C50.6167 58.6433 50.8477 58.9293 51.1557 59.142C51.471 59.3547 51.867 59.461 52.3437 59.461C52.8497 59.461 53.2604 59.3473 53.5757 59.12C53.891 58.8853 54.0854 58.6103 54.1587 58.295H54.9287C54.8554 58.6837 54.7014 59.021 54.4667 59.307C54.232 59.5857 53.935 59.802 53.5757 59.956C53.2164 60.11 52.8057 60.187 52.3437 60.187ZM56.6158 60V54.181H57.2758V56.612H57.2098C57.2098 55.7613 57.3968 55.1343 57.7708 54.731C58.1448 54.3203 58.7315 54.115 59.5308 54.115H59.7178V54.863H59.3768C58.7462 54.863 58.2658 55.028 57.9358 55.358C57.6058 55.6807 57.4408 56.1573 57.4408 56.788V60H56.6158ZM63.4082 60.187C62.9095 60.187 62.4768 60.1027 62.1102 59.934C61.7435 59.758 61.4428 59.527 61.2082 59.241C60.9735 58.9477 60.7975 58.6213 60.6802 58.262C60.5702 57.9027 60.5152 57.5323 60.5152 57.151V56.997C60.5152 56.623 60.5702 56.2563 60.6802 55.897C60.7975 55.5377 60.9735 55.215 61.2082 54.929C61.4428 54.643 61.7362 54.4157 62.0882 54.247C62.4475 54.071 62.8655 53.983 63.3422 53.983C63.9508 53.983 64.4568 54.1187 64.8602 54.39C65.2708 54.6613 65.5788 55.0097 65.7842 55.435C65.9895 55.853 66.0922 56.304 66.0922 56.788V57.217H60.8892V56.579H65.5202L65.3112 56.898C65.3112 56.4653 65.2342 56.0877 65.0802 55.765C64.9335 55.435 64.7135 55.1783 64.4202 54.995C64.1342 54.8043 63.7748 54.709 63.3422 54.709C62.8875 54.709 62.5098 54.8153 62.2092 55.028C61.9085 55.2407 61.6812 55.523 61.5272 55.875C61.3805 56.227 61.3072 56.6267 61.3072 57.074C61.3072 57.514 61.3805 57.9173 61.5272 58.284C61.6812 58.6433 61.9122 58.9293 62.2202 59.142C62.5355 59.3547 62.9315 59.461 63.4082 59.461C63.9142 59.461 64.3248 59.3473 64.6402 59.12C64.9555 58.8853 65.1498 58.6103 65.2232 58.295H65.9932C65.9198 58.6837 65.7658 59.021 65.5312 59.307C65.2965 59.5857 64.9995 59.802 64.6402 59.956C64.2808 60.11 63.8702 60.187 63.4082 60.187ZM69.5173 60.165C68.7693 60.165 68.1936 60.0037 67.7903 59.681C67.3869 59.351 67.1816 58.911 67.1743 58.361H67.9443C67.9589 58.6397 68.0836 58.8927 68.3183 59.12C68.5603 59.3473 68.9599 59.461 69.5173 59.461C70.0379 59.461 70.4266 59.3547 70.6833 59.142C70.9473 58.922 71.0793 58.658 71.0793 58.35C71.0793 58.064 70.9693 57.844 70.7493 57.69C70.5366 57.5287 70.2249 57.426 69.8143 57.382L69.1543 57.316C68.6263 57.2573 68.1973 57.096 67.8673 56.832C67.5446 56.5607 67.3833 56.1903 67.3833 55.721C67.3833 55.3763 67.4713 55.0757 67.6473 54.819C67.8233 54.5623 68.0689 54.3643 68.3843 54.225C68.7069 54.0783 69.0846 54.005 69.5173 54.005C70.1406 54.005 70.6466 54.1517 71.0353 54.445C71.4313 54.7383 71.6329 55.1563 71.6403 55.699H70.8703C70.8629 55.4203 70.7456 55.1857 70.5183 54.995C70.2909 54.8043 69.9573 54.709 69.5173 54.709C69.0626 54.709 68.7216 54.808 68.4943 55.006C68.2743 55.204 68.1643 55.446 68.1643 55.732C68.1643 55.974 68.2486 56.1757 68.4173 56.337C68.5859 56.491 68.8499 56.5863 69.2093 56.623L69.8693 56.689C70.4559 56.755 70.9326 56.9237 71.2993 57.195C71.6733 57.4663 71.8603 57.855 71.8603 58.361C71.8603 58.7057 71.7613 59.0173 71.5633 59.296C71.3726 59.5673 71.1013 59.78 70.7493 59.934C70.3973 60.088 69.9866 60.165 69.5173 60.165ZM75.6145 60.066C75.2112 60.066 74.8629 60.0073 74.5695 59.89C74.2762 59.7727 74.0489 59.5747 73.8875 59.296C73.7262 59.01 73.6455 58.6287 73.6455 58.152V52.344H74.4375V58.273C74.4375 58.6103 74.5292 58.8707 74.7125 59.054C74.8959 59.23 75.1562 59.318 75.4935 59.318H76.5385V60.066H75.6145ZM72.6005 54.808V54.181H76.5385V54.808H72.6005ZM81.0078 60V54.181H81.8218V60H81.0078ZM80.0728 54.841V54.181H81.8218V54.841H80.0728ZM81.1838 53.103C80.9858 53.103 80.8355 53.0517 80.7328 52.949C80.6375 52.839 80.5898 52.7033 80.5898 52.542C80.5898 52.3807 80.6375 52.2487 80.7328 52.146C80.8355 52.036 80.9858 51.981 81.1838 51.981C81.3818 51.981 81.5285 52.036 81.6238 52.146C81.7191 52.2487 81.7668 52.3807 81.7668 52.542C81.7668 52.7033 81.7191 52.839 81.6238 52.949C81.5285 53.0517 81.3818 53.103 81.1838 53.103ZM83.9869 60V54.181H84.6469V56.623H84.5149C84.5149 56.0803 84.5956 55.6147 84.7569 55.226C84.9183 54.8373 85.1603 54.5367 85.4829 54.324C85.8056 54.1113 86.2126 54.005 86.7039 54.005H86.7369C87.4703 54.005 88.0166 54.236 88.3759 54.698C88.7353 55.1527 88.9149 55.7943 88.9149 56.623V60H88.1009V56.447C88.1009 55.941 87.9616 55.534 87.6829 55.226C87.4043 54.918 87.0156 54.764 86.5169 54.764C86.0036 54.764 85.5893 54.9253 85.2739 55.248C84.9659 55.5633 84.8119 55.9813 84.8119 56.502V60H83.9869ZM93.7787 62.002V51.464H94.5707V62.002H93.7787ZM94.0977 62.002V61.342H95.8797V62.002H94.0977ZM94.0977 52.124V51.464H95.8797V52.124H94.0977ZM98.4003 57.063V56.326H100.27C100.703 56.326 101.055 56.2453 101.326 56.084C101.598 55.9153 101.799 55.6953 101.931 55.424C102.063 55.1453 102.129 54.8373 102.129 54.5C102.129 54.1553 102.063 53.8473 101.931 53.576C101.799 53.2973 101.598 53.0773 101.326 52.916C101.055 52.7547 100.703 52.674 100.27 52.674H98.4003V51.937H100.127C100.773 51.937 101.304 52.0433 101.722 52.256C102.148 52.4687 102.463 52.762 102.668 53.136C102.881 53.51 102.987 53.939 102.987 54.423V54.577C102.987 55.0537 102.881 55.4827 102.668 55.864C102.463 56.238 102.148 56.5313 101.722 56.744C101.304 56.9567 100.773 57.063 100.127 57.063H98.4003ZM97.7843 60V51.937H98.6203V60H97.7843ZM104.547 60V54.181H105.207V56.612H105.141C105.141 55.7613 105.328 55.1343 105.702 54.731C106.076 54.3203 106.663 54.115 107.462 54.115H107.649V54.863H107.308C106.678 54.863 106.197 55.028 105.867 55.358C105.537 55.6807 105.372 56.1573 105.372 56.788V60H104.547ZM111.516 60.187C111.017 60.187 110.577 60.1027 110.196 59.934C109.822 59.758 109.503 59.527 109.239 59.241C108.982 58.9477 108.784 58.6213 108.645 58.262C108.513 57.9027 108.447 57.536 108.447 57.162V57.008C108.447 56.634 108.516 56.2673 108.656 55.908C108.795 55.5413 108.997 55.215 109.261 54.929C109.525 54.643 109.844 54.4157 110.218 54.247C110.599 54.071 111.032 53.983 111.516 53.983C112.007 53.983 112.44 54.071 112.814 54.247C113.195 54.4157 113.518 54.643 113.782 54.929C114.046 55.215 114.244 55.5413 114.376 55.908C114.515 56.2673 114.585 56.634 114.585 57.008V57.162C114.585 57.536 114.519 57.9027 114.387 58.262C114.255 58.6213 114.057 58.9477 113.793 59.241C113.536 59.527 113.217 59.758 112.836 59.934C112.454 60.1027 112.014 60.187 111.516 60.187ZM111.516 59.45C112 59.45 112.407 59.3437 112.737 59.131C113.074 58.911 113.331 58.625 113.507 58.273C113.683 57.9137 113.771 57.5177 113.771 57.085C113.771 56.645 113.679 56.249 113.496 55.897C113.32 55.5377 113.063 55.2553 112.726 55.05C112.388 54.8373 111.985 54.731 111.516 54.731C111.054 54.731 110.654 54.8373 110.317 55.05C109.979 55.2553 109.719 55.5377 109.536 55.897C109.36 56.249 109.272 56.645 109.272 57.085C109.272 57.5177 109.36 57.9137 109.536 58.273C109.712 58.625 109.965 58.911 110.295 59.131C110.632 59.3437 111.039 59.45 111.516 59.45ZM118.654 60.187C118.229 60.187 117.84 60.11 117.488 59.956C117.144 59.7947 116.843 59.5747 116.586 59.296C116.337 59.01 116.143 58.6873 116.003 58.328C115.871 57.9613 115.805 57.5727 115.805 57.162V57.008C115.805 56.612 115.871 56.2343 116.003 55.875C116.135 55.5083 116.322 55.1857 116.564 54.907C116.814 54.621 117.111 54.3973 117.455 54.236C117.807 54.0673 118.2 53.983 118.632 53.983C119.124 53.983 119.556 54.0893 119.93 54.302C120.304 54.5147 120.605 54.8227 120.832 55.226C121.06 55.622 121.181 56.1097 121.195 56.689L120.832 56.007V51.97H121.657V60H120.997V57.415H121.261C121.247 58.0237 121.118 58.537 120.876 58.955C120.642 59.3657 120.33 59.6737 119.941 59.879C119.56 60.0843 119.131 60.187 118.654 60.187ZM118.764 59.461C119.16 59.461 119.516 59.373 119.831 59.197C120.154 59.021 120.407 58.7717 120.59 58.449C120.774 58.119 120.865 57.7413 120.865 57.316V56.788C120.865 56.3773 120.774 56.018 120.59 55.71C120.407 55.3947 120.154 55.149 119.831 54.973C119.516 54.797 119.157 54.709 118.753 54.709C118.321 54.709 117.943 54.8153 117.62 55.028C117.305 55.2333 117.059 55.5157 116.883 55.875C116.715 56.2343 116.63 56.6377 116.63 57.085C116.63 57.547 116.718 57.9577 116.894 58.317C117.07 58.6763 117.32 58.9587 117.642 59.164C117.965 59.362 118.339 59.461 118.764 59.461ZM125.8 60.165C125.103 60.165 124.571 59.9413 124.205 59.494C123.838 59.0393 123.655 58.4087 123.655 57.602V54.17H124.469V57.767C124.469 58.273 124.601 58.6763 124.865 58.977C125.136 59.2703 125.51 59.417 125.987 59.417C126.485 59.417 126.881 59.2593 127.175 58.944C127.475 58.6287 127.626 58.207 127.626 57.679V54.17H128.451V60H127.791V57.569H127.923C127.923 58.1117 127.846 58.5773 127.692 58.966C127.538 59.3473 127.307 59.6443 126.999 59.857C126.691 60.0623 126.302 60.165 125.833 60.165H125.8ZM133.061 60.187C132.57 60.187 132.141 60.1027 131.774 59.934C131.415 59.758 131.114 59.5233 130.872 59.23C130.63 58.9293 130.447 58.5993 130.322 58.24C130.205 57.8807 130.146 57.5177 130.146 57.151V56.997C130.146 56.623 130.205 56.26 130.322 55.908C130.447 55.5487 130.63 55.226 130.872 54.94C131.114 54.6467 131.415 54.4157 131.774 54.247C132.141 54.071 132.562 53.983 133.039 53.983C133.523 53.983 133.952 54.071 134.326 54.247C134.707 54.423 135.015 54.6723 135.25 54.995C135.485 55.3177 135.624 55.699 135.668 56.139H134.876C134.81 55.7357 134.619 55.402 134.304 55.138C133.996 54.8667 133.574 54.731 133.039 54.731C132.577 54.731 132.192 54.8373 131.884 55.05C131.583 55.2553 131.356 55.5377 131.202 55.897C131.048 56.249 130.971 56.6413 130.971 57.074C130.971 57.4993 131.048 57.8953 131.202 58.262C131.356 58.6213 131.587 58.911 131.895 59.131C132.203 59.3437 132.592 59.45 133.061 59.45C133.42 59.45 133.732 59.3877 133.996 59.263C134.267 59.131 134.484 58.955 134.645 58.735C134.814 58.515 134.913 58.273 134.942 58.009H135.734C135.705 58.449 135.565 58.834 135.316 59.164C135.074 59.4867 134.759 59.7397 134.37 59.923C133.981 60.099 133.545 60.187 133.061 60.187ZM139.359 60.066C138.955 60.066 138.607 60.0073 138.314 59.89C138.02 59.7727 137.793 59.5747 137.632 59.296C137.47 59.01 137.39 58.6287 137.39 58.152V52.344H138.182V58.273C138.182 58.6103 138.273 58.8707 138.457 59.054C138.64 59.23 138.9 59.318 139.238 59.318H140.283V60.066H139.359ZM136.345 54.808V54.181H140.283V54.808H136.345ZM141.085 60.66L143.329 51.42H144.099L141.855 60.66H141.085ZM148.193 60.187C147.519 60.187 146.95 60.0807 146.488 59.868C146.026 59.648 145.674 59.3473 145.432 58.966C145.198 58.5773 145.08 58.141 145.08 57.657H145.916C145.916 57.965 145.99 58.2547 146.136 58.526C146.29 58.79 146.532 59.0063 146.862 59.175C147.2 59.3363 147.643 59.417 148.193 59.417C148.699 59.417 149.117 59.3437 149.447 59.197C149.785 59.0503 150.034 58.8523 150.195 58.603C150.364 58.3537 150.448 58.075 150.448 57.767C150.448 57.3783 150.294 57.0557 149.986 56.799C149.686 56.535 149.231 56.3773 148.622 56.326L147.698 56.238C147.009 56.1793 146.459 55.9667 146.048 55.6C145.645 55.226 145.443 54.7347 145.443 54.126C145.443 53.664 145.553 53.257 145.773 52.905C145.993 52.553 146.305 52.2743 146.708 52.069C147.119 51.8637 147.61 51.761 148.182 51.761C148.762 51.761 149.257 51.8673 149.667 52.08C150.085 52.2853 150.404 52.5713 150.624 52.938C150.844 53.3047 150.954 53.73 150.954 54.214H150.118C150.118 53.9207 150.052 53.6457 149.92 53.389C149.788 53.1323 149.579 52.927 149.293 52.773C149.007 52.6117 148.637 52.531 148.182 52.531C147.75 52.531 147.39 52.6043 147.104 52.751C146.826 52.8977 146.617 53.092 146.477 53.334C146.345 53.576 146.279 53.84 146.279 54.126C146.279 54.4853 146.408 54.7897 146.664 55.039C146.921 55.2883 147.291 55.4313 147.775 55.468L148.699 55.556C149.242 55.6 149.704 55.721 150.085 55.919C150.474 56.1097 150.771 56.3627 150.976 56.678C151.182 56.986 151.284 57.349 151.284 57.767C151.284 58.2363 151.156 58.6543 150.899 59.021C150.65 59.3877 150.294 59.6737 149.832 59.879C149.37 60.0843 148.824 60.187 148.193 60.187ZM155.533 60.187C155.034 60.187 154.602 60.1027 154.235 59.934C153.868 59.758 153.568 59.527 153.333 59.241C153.098 58.9477 152.922 58.6213 152.805 58.262C152.695 57.9027 152.64 57.5323 152.64 57.151V56.997C152.64 56.623 152.695 56.2563 152.805 55.897C152.922 55.5377 153.098 55.215 153.333 54.929C153.568 54.643 153.861 54.4157 154.213 54.247C154.572 54.071 154.99 53.983 155.467 53.983C156.076 53.983 156.582 54.1187 156.985 54.39C157.396 54.6613 157.704 55.0097 157.909 55.435C158.114 55.853 158.217 56.304 158.217 56.788V57.217H153.014V56.579H157.645L157.436 56.898C157.436 56.4653 157.359 56.0877 157.205 55.765C157.058 55.435 156.838 55.1783 156.545 54.995C156.259 54.8043 155.9 54.709 155.467 54.709C155.012 54.709 154.635 54.8153 154.334 55.028C154.033 55.2407 153.806 55.523 153.652 55.875C153.505 56.227 153.432 56.6267 153.432 57.074C153.432 57.514 153.505 57.9173 153.652 58.284C153.806 58.6433 154.037 58.9293 154.345 59.142C154.66 59.3547 155.056 59.461 155.533 59.461C156.039 59.461 156.45 59.3473 156.765 59.12C157.08 58.8853 157.275 58.6103 157.348 58.295H158.118C158.045 58.6837 157.891 59.021 157.656 59.307C157.421 59.5857 157.124 59.802 156.765 59.956C156.406 60.11 155.995 60.187 155.533 60.187ZM159.805 60V54.181H160.465V56.612H160.399C160.399 55.7613 160.586 55.1343 160.96 54.731C161.334 54.3203 161.921 54.115 162.72 54.115H162.907V54.863H162.566C161.936 54.863 161.455 55.028 161.125 55.358C160.795 55.6807 160.63 56.1573 160.63 56.788V60H159.805ZM165.733 60L163.687 54.181H164.534L166.558 60H165.733ZM165.953 60V59.329H166.998V60H165.953ZM166.404 60L168.175 54.181H168.989L167.185 60H166.404ZM170.759 60V54.181H171.573V60H170.759ZM169.824 54.841V54.181H171.573V54.841H169.824ZM170.935 53.103C170.737 53.103 170.586 53.0517 170.484 52.949C170.388 52.839 170.341 52.7033 170.341 52.542C170.341 52.3807 170.388 52.2487 170.484 52.146C170.586 52.036 170.737 51.981 170.935 51.981C171.133 51.981 171.279 52.036 171.375 52.146C171.47 52.2487 171.518 52.3807 171.518 52.542C171.518 52.7033 171.47 52.839 171.375 52.949C171.279 53.0517 171.133 53.103 170.935 53.103ZM176.191 60.187C175.7 60.187 175.271 60.1027 174.904 59.934C174.545 59.758 174.244 59.5233 174.002 59.23C173.76 58.9293 173.577 58.5993 173.452 58.24C173.335 57.8807 173.276 57.5177 173.276 57.151V56.997C173.276 56.623 173.335 56.26 173.452 55.908C173.577 55.5487 173.76 55.226 174.002 54.94C174.244 54.6467 174.545 54.4157 174.904 54.247C175.271 54.071 175.692 53.983 176.169 53.983C176.653 53.983 177.082 54.071 177.456 54.247C177.837 54.423 178.145 54.6723 178.38 54.995C178.615 55.3177 178.754 55.699 178.798 56.139H178.006C177.94 55.7357 177.749 55.402 177.434 55.138C177.126 54.8667 176.704 54.731 176.169 54.731C175.707 54.731 175.322 54.8373 175.014 55.05C174.713 55.2553 174.486 55.5377 174.332 55.897C174.178 56.249 174.101 56.6413 174.101 57.074C174.101 57.4993 174.178 57.8953 174.332 58.262C174.486 58.6213 174.717 58.911 175.025 59.131C175.333 59.3437 175.722 59.45 176.191 59.45C176.55 59.45 176.862 59.3877 177.126 59.263C177.397 59.131 177.614 58.955 177.775 58.735C177.944 58.515 178.043 58.273 178.072 58.009H178.864C178.835 58.449 178.695 58.834 178.446 59.164C178.204 59.4867 177.889 59.7397 177.5 59.923C177.111 60.099 176.675 60.187 176.191 60.187ZM182.808 60.187C182.309 60.187 181.876 60.1027 181.51 59.934C181.143 59.758 180.842 59.527 180.608 59.241C180.373 58.9477 180.197 58.6213 180.08 58.262C179.97 57.9027 179.915 57.5323 179.915 57.151V56.997C179.915 56.623 179.97 56.2563 180.08 55.897C180.197 55.5377 180.373 55.215 180.608 54.929C180.842 54.643 181.136 54.4157 181.488 54.247C181.847 54.071 182.265 53.983 182.742 53.983C183.35 53.983 183.856 54.1187 184.26 54.39C184.67 54.6613 184.978 55.0097 185.184 55.435C185.389 55.853 185.492 56.304 185.492 56.788V57.217H180.289V56.579H184.92L184.711 56.898C184.711 56.4653 184.634 56.0877 184.48 55.765C184.333 55.435 184.113 55.1783 183.82 54.995C183.534 54.8043 183.174 54.709 182.742 54.709C182.287 54.709 181.909 54.8153 181.609 55.028C181.308 55.2407 181.081 55.523 180.927 55.875C180.78 56.227 180.707 56.6267 180.707 57.074C180.707 57.514 180.78 57.9173 180.927 58.284C181.081 58.6433 181.312 58.9293 181.62 59.142C181.935 59.3547 182.331 59.461 182.808 59.461C183.314 59.461 183.724 59.3473 184.04 59.12C184.355 58.8853 184.549 58.6103 184.623 58.295H185.393C185.319 58.6837 185.165 59.021 184.931 59.307C184.696 59.5857 184.399 59.802 184.04 59.956C183.68 60.11 183.27 60.187 182.808 60.187ZM188.569 62.002H187.777V51.464H188.569V62.002ZM188.25 62.002H186.468V61.342H188.25V62.002ZM188.25 52.124H186.468V51.464H188.25V52.124ZM190.782 60V58.911H191.816V60H190.782ZM199.958 60.187C199.24 60.187 198.624 60.0623 198.11 59.813C197.604 59.5563 197.19 59.2227 196.867 58.812C196.552 58.4013 196.321 57.9577 196.174 57.481C196.028 56.997 195.954 56.5277 195.954 56.073V55.864C195.954 55.3727 196.028 54.885 196.174 54.401C196.328 53.9097 196.563 53.466 196.878 53.07C197.201 52.674 197.612 52.3587 198.11 52.124C198.609 51.882 199.199 51.761 199.881 51.761C200.571 51.761 201.165 51.882 201.663 52.124C202.169 52.366 202.573 52.707 202.873 53.147C203.174 53.5797 203.357 54.093 203.423 54.687H202.576C202.518 54.2103 202.364 53.8143 202.114 53.499C201.865 53.1763 201.546 52.9343 201.157 52.773C200.776 52.6117 200.351 52.531 199.881 52.531C199.375 52.531 198.928 52.6227 198.539 52.806C198.158 52.982 197.839 53.2313 197.582 53.554C197.326 53.8693 197.131 54.236 196.999 54.654C196.867 55.0647 196.801 55.5047 196.801 55.974C196.801 56.4213 196.864 56.8503 196.988 57.261C197.12 57.6717 197.318 58.042 197.582 58.372C197.846 58.6947 198.176 58.9513 198.572 59.142C198.968 59.3253 199.43 59.417 199.958 59.417C200.692 59.417 201.308 59.2337 201.806 58.867C202.305 58.493 202.613 57.9577 202.73 57.261H203.577C203.497 57.811 203.306 58.3097 203.005 58.757C202.705 59.197 202.298 59.5453 201.784 59.802C201.278 60.0587 200.67 60.187 199.958 60.187ZM208.626 60V58.251H208.494V56.183C208.494 55.7503 208.38 55.4203 208.153 55.193C207.925 54.9583 207.573 54.841 207.097 54.841C206.877 54.841 206.653 54.8447 206.426 54.852C206.206 54.8593 205.993 54.8703 205.788 54.885C205.59 54.8923 205.414 54.9033 205.26 54.918V54.192C205.421 54.1773 205.586 54.1627 205.755 54.148C205.923 54.1333 206.096 54.126 206.272 54.126C206.455 54.1187 206.631 54.115 206.8 54.115C207.394 54.115 207.87 54.1883 208.23 54.335C208.596 54.4817 208.864 54.7127 209.033 55.028C209.201 55.336 209.286 55.7467 209.286 56.26V60H208.626ZM206.657 60.154C206.246 60.154 205.883 60.0807 205.568 59.934C205.252 59.7873 205.007 59.5747 204.831 59.296C204.662 59.0173 204.578 58.68 204.578 58.284C204.578 57.8953 204.666 57.5653 204.842 57.294C205.025 57.0227 205.285 56.8173 205.623 56.678C205.967 56.5313 206.382 56.458 206.866 56.458H208.571V57.085H206.811C206.349 57.085 205.993 57.1987 205.744 57.426C205.502 57.646 205.381 57.9357 205.381 58.295C205.381 58.6617 205.509 58.955 205.766 59.175C206.022 59.3877 206.371 59.494 206.811 59.494C207.082 59.494 207.342 59.4463 207.592 59.351C207.841 59.2483 208.05 59.0797 208.219 58.845C208.387 58.603 208.479 58.273 208.494 57.855L208.736 58.196C208.706 58.6287 208.604 58.9917 208.428 59.285C208.252 59.571 208.013 59.7873 207.713 59.934C207.412 60.0807 207.06 60.154 206.657 60.154ZM211.346 60V54.181H212.006V56.623H211.874C211.874 56.0803 211.955 55.6147 212.116 55.226C212.278 54.8373 212.52 54.5367 212.842 54.324C213.165 54.1113 213.572 54.005 214.063 54.005H214.096C214.83 54.005 215.376 54.236 215.735 54.698C216.095 55.1527 216.274 55.7943 216.274 56.623V60H215.46V56.447C215.46 55.941 215.321 55.534 215.042 55.226C214.764 54.918 214.375 54.764 213.876 54.764C213.363 54.764 212.949 54.9253 212.633 55.248C212.325 55.5633 212.171 55.9813 212.171 56.502V60H211.346ZM222.524 60L223.767 54.368H224.922L226.363 60H225.648L224.207 54.401H224.471L223.217 60H222.524ZM222.051 60V59.329H223.052V60H222.051ZM221.853 60L220.17 54.181H220.962L222.623 60H221.853ZM225.835 60V59.329H226.814V60H225.835ZM226.264 60L227.716 54.181H228.475L226.99 60H226.264ZM232.329 60.187C231.83 60.187 231.398 60.1027 231.031 59.934C230.664 59.758 230.364 59.527 230.129 59.241C229.894 58.9477 229.718 58.6213 229.601 58.262C229.491 57.9027 229.436 57.5323 229.436 57.151V56.997C229.436 56.623 229.491 56.2563 229.601 55.897C229.718 55.5377 229.894 55.215 230.129 54.929C230.364 54.643 230.657 54.4157 231.009 54.247C231.368 54.071 231.786 53.983 232.263 53.983C232.872 53.983 233.378 54.1187 233.781 54.39C234.192 54.6613 234.5 55.0097 234.705 55.435C234.91 55.853 235.013 56.304 235.013 56.788V57.217H229.81V56.579H234.441L234.232 56.898C234.232 56.4653 234.155 56.0877 234.001 55.765C233.854 55.435 233.634 55.1783 233.341 54.995C233.055 54.8043 232.696 54.709 232.263 54.709C231.808 54.709 231.431 54.8153 231.13 55.028C230.829 55.2407 230.602 55.523 230.448 55.875C230.301 56.227 230.228 56.6267 230.228 57.074C230.228 57.514 230.301 57.9173 230.448 58.284C230.602 58.6433 230.833 58.9293 231.141 59.142C231.456 59.3547 231.852 59.461 232.329 59.461C232.835 59.461 233.246 59.3473 233.561 59.12C233.876 58.8853 234.071 58.6103 234.144 58.295H234.914C234.841 58.6837 234.687 59.021 234.452 59.307C234.217 59.5857 233.92 59.802 233.561 59.956C233.202 60.11 232.791 60.187 232.329 60.187ZM36.904 79.165C36.156 79.165 35.5803 79.0037 35.177 78.681C34.7737 78.351 34.5683 77.911 34.561 77.361H35.331C35.3457 77.6397 35.4703 77.8927 35.705 78.12C35.947 78.3473 36.3467 78.461 36.904 78.461C37.4247 78.461 37.8133 78.3547 38.07 78.142C38.334 77.922 38.466 77.658 38.466 77.35C38.466 77.064 38.356 76.844 38.136 76.69C37.9233 76.5287 37.6117 76.426 37.201 76.382L36.541 76.316C36.013 76.2573 35.584 76.096 35.254 75.832C34.9313 75.5607 34.77 75.1903 34.77 74.721C34.77 74.3763 34.858 74.0757 35.034 73.819C35.21 73.5623 35.4557 73.3643 35.771 73.225C36.0937 73.0783 36.4713 73.005 36.904 73.005C37.5273 73.005 38.0333 73.1517 38.422 73.445C38.818 73.7383 39.0197 74.1563 39.027 74.699H38.257C38.2497 74.4203 38.1323 74.1857 37.905 73.995C37.6777 73.8043 37.344 73.709 36.904 73.709C36.4493 73.709 36.1083 73.808 35.881 74.006C35.661 74.204 35.551 74.446 35.551 74.732C35.551 74.974 35.6353 75.1757 35.804 75.337C35.9727 75.491 36.2367 75.5863 36.596 75.623L37.256 75.689C37.8427 75.755 38.3193 75.9237 38.686 76.195C39.06 76.4663 39.247 76.855 39.247 77.361C39.247 77.7057 39.148 78.0173 38.95 78.296C38.7593 78.5673 38.488 78.78 38.136 78.934C37.784 79.088 37.3733 79.165 36.904 79.165ZM43.3423 79.187C42.8509 79.187 42.4219 79.1027 42.0553 78.934C41.6959 78.758 41.3953 78.5233 41.1533 78.23C40.9113 77.9293 40.7279 77.5993 40.6033 77.24C40.4859 76.8807 40.4273 76.5177 40.4273 76.151V75.997C40.4273 75.623 40.4859 75.26 40.6033 74.908C40.7279 74.5487 40.9113 74.226 41.1533 73.94C41.3953 73.6467 41.6959 73.4157 42.0553 73.247C42.4219 73.071 42.8436 72.983 43.3203 72.983C43.8043 72.983 44.2333 73.071 44.6073 73.247C44.9886 73.423 45.2966 73.6723 45.5313 73.995C45.7659 74.3177 45.9053 74.699 45.9493 75.139H45.1573C45.0913 74.7357 44.9006 74.402 44.5853 74.138C44.2773 73.8667 43.8556 73.731 43.3203 73.731C42.8583 73.731 42.4733 73.8373 42.1653 74.05C41.8646 74.2553 41.6373 74.5377 41.4833 74.897C41.3293 75.249 41.2523 75.6413 41.2523 76.074C41.2523 76.4993 41.3293 76.8953 41.4833 77.262C41.6373 77.6213 41.8683 77.911 42.1763 78.131C42.4843 78.3437 42.8729 78.45 43.3423 78.45C43.7016 78.45 44.0133 78.3877 44.2773 78.263C44.5486 78.131 44.7649 77.955 44.9263 77.735C45.0949 77.515 45.1939 77.273 45.2233 77.009H46.0153C45.9859 77.449 45.8466 77.834 45.5973 78.164C45.3553 78.4867 45.0399 78.7397 44.6513 78.923C44.2626 79.099 43.8263 79.187 43.3423 79.187ZM47.5279 79V70.97H48.3529V75.513L48.1109 75.7C48.1109 75.1573 48.1879 74.6843 48.3419 74.281C48.5033 73.8777 48.7416 73.566 49.0569 73.346C49.3796 73.1187 49.7829 73.005 50.2669 73.005H50.3109C51.0149 73.005 51.5466 73.236 51.9059 73.698C52.2726 74.16 52.4559 74.8017 52.4559 75.623V79H51.6419V75.447C51.6419 74.9263 51.4989 74.5157 51.2129 74.215C50.9269 73.9143 50.5419 73.764 50.0579 73.764C49.5373 73.764 49.1229 73.9327 48.8149 74.27C48.5069 74.6 48.3529 75.0363 48.3529 75.579V79H47.5279ZM56.9414 79.187C56.4427 79.187 56.01 79.1027 55.6434 78.934C55.2767 78.758 54.976 78.527 54.7414 78.241C54.5067 77.9477 54.3307 77.6213 54.2134 77.262C54.1034 76.9027 54.0484 76.5323 54.0484 76.151V75.997C54.0484 75.623 54.1034 75.2563 54.2134 74.897C54.3307 74.5377 54.5067 74.215 54.7414 73.929C54.976 73.643 55.2694 73.4157 55.6214 73.247C55.9807 73.071 56.3987 72.983 56.8754 72.983C57.484 72.983 57.99 73.1187 58.3934 73.39C58.804 73.6613 59.112 74.0097 59.3174 74.435C59.5227 74.853 59.6254 75.304 59.6254 75.788V76.217H54.4224V75.579H59.0534L58.8444 75.898C58.8444 75.4653 58.7674 75.0877 58.6134 74.765C58.4667 74.435 58.2467 74.1783 57.9534 73.995C57.6674 73.8043 57.308 73.709 56.8754 73.709C56.4207 73.709 56.043 73.8153 55.7424 74.028C55.4417 74.2407 55.2144 74.523 55.0604 74.875C54.9137 75.227 54.8404 75.6267 54.8404 76.074C54.8404 76.514 54.9137 76.9173 55.0604 77.284C55.2144 77.6433 55.4454 77.9293 55.7534 78.142C56.0687 78.3547 56.4647 78.461 56.9414 78.461C57.4474 78.461 57.858 78.3473 58.1734 78.12C58.4887 77.8853 58.683 77.6103 58.7564 77.295H59.5264C59.453 77.6837 59.299 78.021 59.0644 78.307C58.8297 78.5857 58.5327 78.802 58.1734 78.956C57.814 79.11 57.4034 79.187 56.9414 79.187ZM63.6005 79.187C63.1752 79.187 62.7865 79.11 62.4345 78.956C62.0898 78.7947 61.7892 78.5747 61.5325 78.296C61.2832 78.01 61.0888 77.6873 60.9495 77.328C60.8175 76.9613 60.7515 76.5727 60.7515 76.162V76.008C60.7515 75.612 60.8175 75.2343 60.9495 74.875C61.0815 74.5083 61.2685 74.1857 61.5105 73.907C61.7598 73.621 62.0568 73.3973 62.4015 73.236C62.7535 73.0673 63.1458 72.983 63.5785 72.983C64.0698 72.983 64.5025 73.0893 64.8765 73.302C65.2505 73.5147 65.5512 73.8227 65.7785 74.226C66.0058 74.622 66.1268 75.1097 66.1415 75.689L65.7785 75.007V70.97H66.6035V79H65.9435V76.415H66.2075C66.1928 77.0237 66.0645 77.537 65.8225 77.955C65.5878 78.3657 65.2762 78.6737 64.8875 78.879C64.5062 79.0843 64.0772 79.187 63.6005 79.187ZM63.7105 78.461C64.1065 78.461 64.4622 78.373 64.7775 78.197C65.1002 78.021 65.3532 77.7717 65.5365 77.449C65.7198 77.119 65.8115 76.7413 65.8115 76.316V75.788C65.8115 75.3773 65.7198 75.018 65.5365 74.71C65.3532 74.3947 65.1002 74.149 64.7775 73.973C64.4622 73.797 64.1028 73.709 63.6995 73.709C63.2668 73.709 62.8892 73.8153 62.5665 74.028C62.2512 74.2333 62.0055 74.5157 61.8295 74.875C61.6608 75.2343 61.5765 75.6377 61.5765 76.085C61.5765 76.547 61.6645 76.9577 61.8405 77.317C62.0165 77.6763 62.2658 77.9587 62.5885 78.164C62.9112 78.362 63.2852 78.461 63.7105 78.461ZM70.746 79.165C70.0493 79.165 69.5177 78.9413 69.151 78.494C68.7843 78.0393 68.601 77.4087 68.601 76.602V73.17H69.415V76.767C69.415 77.273 69.547 77.6763 69.811 77.977C70.0823 78.2703 70.4563 78.417 70.933 78.417C71.4317 78.417 71.8277 78.2593 72.121 77.944C72.4217 77.6287 72.572 77.207 72.572 76.679V73.17H73.397V79H72.737V76.569H72.869C72.869 77.1117 72.792 77.5773 72.638 77.966C72.484 78.3473 72.253 78.6443 71.945 78.857C71.637 79.0623 71.2483 79.165 70.779 79.165H70.746ZM75.6093 79V70.97H76.4343V79H75.6093ZM74.7623 71.641V70.97H76.4343V71.641H74.7623ZM81.0039 79.187C80.5052 79.187 80.0725 79.1027 79.7059 78.934C79.3392 78.758 79.0385 78.527 78.8039 78.241C78.5692 77.9477 78.3932 77.6213 78.2759 77.262C78.1659 76.9027 78.1109 76.5323 78.1109 76.151V75.997C78.1109 75.623 78.1659 75.2563 78.2759 74.897C78.3932 74.5377 78.5692 74.215 78.8039 73.929C79.0385 73.643 79.3319 73.4157 79.6839 73.247C80.0432 73.071 80.4612 72.983 80.9379 72.983C81.5465 72.983 82.0525 73.1187 82.4559 73.39C82.8665 73.6613 83.1745 74.0097 83.3799 74.435C83.5852 74.853 83.6879 75.304 83.6879 75.788V76.217H78.4849V75.579H83.1159L82.9069 75.898C82.9069 75.4653 82.8299 75.0877 82.6759 74.765C82.5292 74.435 82.3092 74.1783 82.0159 73.995C81.7299 73.8043 81.3705 73.709 80.9379 73.709C80.4832 73.709 80.1055 73.8153 79.8049 74.028C79.5042 74.2407 79.2769 74.523 79.1229 74.875C78.9762 75.227 78.9029 75.6267 78.9029 76.074C78.9029 76.514 78.9762 76.9173 79.1229 77.284C79.2769 77.6433 79.5079 77.9293 79.8159 78.142C80.1312 78.3547 80.5272 78.461 81.0039 78.461C81.5099 78.461 81.9205 78.3473 82.2359 78.12C82.5512 77.8853 82.7455 77.6103 82.8189 77.295H83.5889C83.5155 77.6837 83.3615 78.021 83.1269 78.307C82.8922 78.5857 82.5952 78.802 82.2359 78.956C81.8765 79.11 81.4659 79.187 81.0039 79.187ZM91.3854 79V77.251H91.2534V75.183C91.2534 74.7503 91.1397 74.4203 90.9124 74.193C90.685 73.9583 90.333 73.841 89.8564 73.841C89.6364 73.841 89.4127 73.8447 89.1854 73.852C88.9654 73.8593 88.7527 73.8703 88.5474 73.885C88.3494 73.8923 88.1734 73.9033 88.0194 73.918V73.192C88.1807 73.1773 88.3457 73.1627 88.5144 73.148C88.683 73.1333 88.8554 73.126 89.0314 73.126C89.2147 73.1187 89.3907 73.115 89.5594 73.115C90.1534 73.115 90.63 73.1883 90.9894 73.335C91.356 73.4817 91.6237 73.7127 91.7924 74.028C91.961 74.336 92.0454 74.7467 92.0454 75.26V79H91.3854ZM89.4164 79.154C89.0057 79.154 88.6427 79.0807 88.3274 78.934C88.012 78.7873 87.7664 78.5747 87.5904 78.296C87.4217 78.0173 87.3374 77.68 87.3374 77.284C87.3374 76.8953 87.4254 76.5653 87.6014 76.294C87.7847 76.0227 88.045 75.8173 88.3824 75.678C88.727 75.5313 89.1414 75.458 89.6254 75.458H91.3304V76.085H89.5704C89.1084 76.085 88.7527 76.1987 88.5034 76.426C88.2614 76.646 88.1404 76.9357 88.1404 77.295C88.1404 77.6617 88.2687 77.955 88.5254 78.175C88.782 78.3877 89.1304 78.494 89.5704 78.494C89.8417 78.494 90.102 78.4463 90.3514 78.351C90.6007 78.2483 90.8097 78.0797 90.9784 77.845C91.147 77.603 91.2387 77.273 91.2534 76.855L91.4954 77.196C91.466 77.6287 91.3634 77.9917 91.1874 78.285C91.0114 78.571 90.773 78.7873 90.4724 78.934C90.1717 79.0807 89.8197 79.154 89.4164 79.154ZM101.238 81.2V77.251L101.59 76.426C101.576 77.02 101.455 77.5223 101.227 77.933C101 78.3437 100.696 78.6553 100.314 78.868C99.9404 79.0807 99.5151 79.187 99.0384 79.187C98.6131 79.187 98.2244 79.1063 97.8724 78.945C97.5278 78.7837 97.2308 78.56 96.9814 78.274C96.7394 77.988 96.5488 77.6617 96.4094 77.295C96.2774 76.9283 96.2114 76.5433 96.2114 76.14V75.986C96.2114 75.5827 96.2774 75.205 96.4094 74.853C96.5414 74.4937 96.7321 74.1747 96.9814 73.896C97.2308 73.61 97.5278 73.3863 97.8724 73.225C98.2244 73.0637 98.6204 72.983 99.0604 72.983C99.5811 72.983 100.032 73.1003 100.413 73.335C100.802 73.5623 101.103 73.8777 101.315 74.281C101.535 74.6843 101.653 75.1573 101.667 75.7L101.403 75.634V73.181H102.063V81.2H101.238ZM99.1704 78.439C99.5664 78.439 99.9221 78.351 100.237 78.175C100.56 77.9917 100.813 77.7387 100.996 77.416C101.18 77.0933 101.271 76.7193 101.271 76.294V75.755C101.271 75.3443 101.18 74.985 100.996 74.677C100.813 74.3617 100.56 74.1197 100.237 73.951C99.9221 73.775 99.5664 73.687 99.1704 73.687C98.7304 73.687 98.3491 73.7933 98.0264 74.006C97.7111 74.2113 97.4654 74.4937 97.2894 74.853C97.1208 75.2123 97.0364 75.6157 97.0364 76.063C97.0364 76.5177 97.1244 76.9247 97.3004 77.284C97.4764 77.6433 97.7258 77.9257 98.0484 78.131C98.3711 78.3363 98.7451 78.439 99.1704 78.439ZM106.206 79.165C105.509 79.165 104.978 78.9413 104.611 78.494C104.244 78.0393 104.061 77.4087 104.061 76.602V73.17H104.875V76.767C104.875 77.273 105.007 77.6763 105.271 77.977C105.542 78.2703 105.916 78.417 106.393 78.417C106.892 78.417 107.288 78.2593 107.581 77.944C107.882 77.6287 108.032 77.207 108.032 76.679V73.17H108.857V79H108.197V76.569H108.329C108.329 77.1117 108.252 77.5773 108.098 77.966C107.944 78.3473 107.713 78.6443 107.405 78.857C107.097 79.0623 106.708 79.165 106.239 79.165H106.206ZM111.322 79V73.181H112.136V79H111.322ZM110.387 73.841V73.181H112.136V73.841H110.387ZM111.498 72.103C111.3 72.103 111.15 72.0517 111.047 71.949C110.952 71.839 110.904 71.7033 110.904 71.542C110.904 71.3807 110.952 71.2487 111.047 71.146C111.15 71.036 111.3 70.981 111.498 70.981C111.696 70.981 111.843 71.036 111.938 71.146C112.034 71.2487 112.081 71.3807 112.081 71.542C112.081 71.7033 112.034 71.839 111.938 71.949C111.843 72.0517 111.696 72.103 111.498 72.103ZM116.754 79.187C116.263 79.187 115.834 79.1027 115.467 78.934C115.108 78.758 114.807 78.5233 114.565 78.23C114.323 77.9293 114.14 77.5993 114.015 77.24C113.898 76.8807 113.839 76.5177 113.839 76.151V75.997C113.839 75.623 113.898 75.26 114.015 74.908C114.14 74.5487 114.323 74.226 114.565 73.94C114.807 73.6467 115.108 73.4157 115.467 73.247C115.834 73.071 116.256 72.983 116.732 72.983C117.216 72.983 117.645 73.071 118.019 73.247C118.401 73.423 118.709 73.6723 118.943 73.995C119.178 74.3177 119.317 74.699 119.361 75.139H118.569C118.503 74.7357 118.313 74.402 117.997 74.138C117.689 73.8667 117.268 73.731 116.732 73.731C116.27 73.731 115.885 73.8373 115.577 74.05C115.277 74.2553 115.049 74.5377 114.895 74.897C114.741 75.249 114.664 75.6413 114.664 76.074C114.664 76.4993 114.741 76.8953 114.895 77.262C115.049 77.6213 115.28 77.911 115.588 78.131C115.896 78.3437 116.285 78.45 116.754 78.45C117.114 78.45 117.425 78.3877 117.689 78.263C117.961 78.131 118.177 77.955 118.338 77.735C118.507 77.515 118.606 77.273 118.635 77.009H119.427C119.398 77.449 119.259 77.834 119.009 78.164C118.767 78.4867 118.452 78.7397 118.063 78.923C117.675 79.099 117.238 79.187 116.754 79.187ZM124.9 79L122.557 76.272H121.611L124.372 73.181H125.252L122.777 75.942L122.832 75.491L125.868 79H124.9ZM120.94 79V70.97H121.765V79H120.94ZM131.998 79.187C131.506 79.187 131.077 79.1027 130.711 78.934C130.351 78.758 130.051 78.5233 129.809 78.23C129.567 77.9293 129.383 77.5993 129.259 77.24C129.141 76.8807 129.083 76.5177 129.083 76.151V75.997C129.083 75.623 129.141 75.26 129.259 74.908C129.383 74.5487 129.567 74.226 129.809 73.94C130.051 73.6467 130.351 73.4157 130.711 73.247C131.077 73.071 131.499 72.983 131.976 72.983C132.46 72.983 132.889 73.071 133.263 73.247C133.644 73.423 133.952 73.6723 134.187 73.995C134.421 74.3177 134.561 74.699 134.605 75.139H133.813C133.747 74.7357 133.556 74.402 133.241 74.138C132.933 73.8667 132.511 73.731 131.976 73.731C131.514 73.731 131.129 73.8373 130.821 74.05C130.52 74.2553 130.293 74.5377 130.139 74.897C129.985 75.249 129.908 75.6413 129.908 76.074C129.908 76.4993 129.985 76.8953 130.139 77.262C130.293 77.6213 130.524 77.911 130.832 78.131C131.14 78.3437 131.528 78.45 131.998 78.45C132.357 78.45 132.669 78.3877 132.933 78.263C133.204 78.131 133.42 77.955 133.582 77.735C133.75 77.515 133.849 77.273 133.879 77.009H134.671C134.641 77.449 134.502 77.834 134.253 78.164C134.011 78.4867 133.695 78.7397 133.307 78.923C132.918 79.099 132.482 79.187 131.998 79.187ZM139.725 79V77.251H139.593V75.183C139.593 74.7503 139.48 74.4203 139.252 74.193C139.025 73.9583 138.673 73.841 138.196 73.841C137.976 73.841 137.753 73.8447 137.525 73.852C137.305 73.8593 137.093 73.8703 136.887 73.885C136.689 73.8923 136.513 73.9033 136.359 73.918V73.192C136.521 73.1773 136.686 73.1627 136.854 73.148C137.023 73.1333 137.195 73.126 137.371 73.126C137.555 73.1187 137.731 73.115 137.899 73.115C138.493 73.115 138.97 73.1883 139.329 73.335C139.696 73.4817 139.964 73.7127 140.132 74.028C140.301 74.336 140.385 74.7467 140.385 75.26V79H139.725ZM137.756 79.154C137.346 79.154 136.983 79.0807 136.667 78.934C136.352 78.7873 136.106 78.5747 135.93 78.296C135.762 78.0173 135.677 77.68 135.677 77.284C135.677 76.8953 135.765 76.5653 135.941 76.294C136.125 76.0227 136.385 75.8173 136.722 75.678C137.067 75.5313 137.481 75.458 137.965 75.458H139.67V76.085H137.91C137.448 76.085 137.093 76.1987 136.843 76.426C136.601 76.646 136.48 76.9357 136.48 77.295C136.48 77.6617 136.609 77.955 136.865 78.175C137.122 78.3877 137.47 78.494 137.91 78.494C138.182 78.494 138.442 78.4463 138.691 78.351C138.941 78.2483 139.15 78.0797 139.318 77.845C139.487 77.603 139.579 77.273 139.593 76.855L139.835 77.196C139.806 77.6287 139.703 77.9917 139.527 78.285C139.351 78.571 139.113 78.7873 138.812 78.934C138.512 79.0807 138.16 79.154 137.756 79.154ZM142.501 79V70.97H143.326V79H142.501ZM141.654 71.641V70.97H143.326V71.641H141.654ZM145.519 79V70.97H146.344V79H145.519ZM144.672 71.641V70.97H146.344V71.641H144.672ZM153.162 79.066C152.759 79.066 152.411 79.0073 152.117 78.89C151.824 78.7727 151.597 78.5747 151.435 78.296C151.274 78.01 151.193 77.6287 151.193 77.152V71.344H151.985V77.273C151.985 77.6103 152.077 77.8707 152.26 78.054C152.444 78.23 152.704 78.318 153.041 78.318H154.086V79.066H153.162ZM150.148 73.808V73.181H154.086V73.808H150.148ZM158.234 79.187C157.735 79.187 157.295 79.1027 156.914 78.934C156.54 78.758 156.221 78.527 155.957 78.241C155.7 77.9477 155.502 77.6213 155.363 77.262C155.231 76.9027 155.165 76.536 155.165 76.162V76.008C155.165 75.634 155.234 75.2673 155.374 74.908C155.513 74.5413 155.715 74.215 155.979 73.929C156.243 73.643 156.562 73.4157 156.936 73.247C157.317 73.071 157.75 72.983 158.234 72.983C158.725 72.983 159.158 73.071 159.532 73.247C159.913 73.4157 160.236 73.643 160.5 73.929C160.764 74.215 160.962 74.5413 161.094 74.908C161.233 75.2673 161.303 75.634 161.303 76.008V76.162C161.303 76.536 161.237 76.9027 161.105 77.262C160.973 77.6213 160.775 77.9477 160.511 78.241C160.254 78.527 159.935 78.758 159.554 78.934C159.172 79.1027 158.732 79.187 158.234 79.187ZM158.234 78.45C158.718 78.45 159.125 78.3437 159.455 78.131C159.792 77.911 160.049 77.625 160.225 77.273C160.401 76.9137 160.489 76.5177 160.489 76.085C160.489 75.645 160.397 75.249 160.214 74.897C160.038 74.5377 159.781 74.2553 159.444 74.05C159.106 73.8373 158.703 73.731 158.234 73.731C157.772 73.731 157.372 73.8373 157.035 74.05C156.697 74.2553 156.437 74.5377 156.254 74.897C156.078 75.249 155.99 75.645 155.99 76.085C155.99 76.5177 156.078 76.9137 156.254 77.273C156.43 77.625 156.683 77.911 157.013 78.131C157.35 78.3437 157.757 78.45 158.234 78.45ZM167.939 79.187C167.514 79.187 167.125 79.11 166.773 78.956C166.429 78.7947 166.128 78.5747 165.871 78.296C165.622 78.01 165.428 77.6873 165.288 77.328C165.156 76.9613 165.09 76.5727 165.09 76.162V76.008C165.09 75.612 165.156 75.2343 165.288 74.875C165.42 74.5083 165.607 74.1857 165.849 73.907C166.099 73.621 166.396 73.3973 166.74 73.236C167.092 73.0673 167.485 72.983 167.917 72.983C168.409 72.983 168.841 73.0893 169.215 73.302C169.589 73.5147 169.89 73.8227 170.117 74.226C170.345 74.622 170.466 75.1097 170.48 75.689L170.117 75.007V70.97H170.942V79H170.282V76.415H170.546C170.532 77.0237 170.403 77.537 170.161 77.955C169.927 78.3657 169.615 78.6737 169.226 78.879C168.845 79.0843 168.416 79.187 167.939 79.187ZM168.049 78.461C168.445 78.461 168.801 78.373 169.116 78.197C169.439 78.021 169.692 77.7717 169.875 77.449C170.059 77.119 170.15 76.7413 170.15 76.316V75.788C170.15 75.3773 170.059 75.018 169.875 74.71C169.692 74.3947 169.439 74.149 169.116 73.973C168.801 73.797 168.442 73.709 168.038 73.709C167.606 73.709 167.228 73.8153 166.905 74.028C166.59 74.2333 166.344 74.5157 166.168 74.875C166 75.2343 165.915 75.6377 165.915 76.085C165.915 76.547 166.003 76.9577 166.179 77.317C166.355 77.6763 166.605 77.9587 166.927 78.164C167.25 78.362 167.624 78.461 168.049 78.461ZM173.38 79V73.181H174.194V79H173.38ZM172.445 73.841V73.181H174.194V73.841H172.445ZM173.556 72.103C173.358 72.103 173.208 72.0517 173.105 71.949C173.01 71.839 172.962 71.7033 172.962 71.542C172.962 71.3807 173.01 71.2487 173.105 71.146C173.208 71.036 173.358 70.981 173.556 70.981C173.754 70.981 173.901 71.036 173.996 71.146C174.091 71.2487 174.139 71.3807 174.139 71.542C174.139 71.7033 174.091 71.839 173.996 71.949C173.901 72.0517 173.754 72.103 173.556 72.103ZM178.196 79.165C177.448 79.165 176.872 79.0037 176.469 78.681C176.066 78.351 175.86 77.911 175.853 77.361H176.623C176.638 77.6397 176.762 77.8927 176.997 78.12C177.239 78.3473 177.639 78.461 178.196 78.461C178.717 78.461 179.105 78.3547 179.362 78.142C179.626 77.922 179.758 77.658 179.758 77.35C179.758 77.064 179.648 76.844 179.428 76.69C179.215 76.5287 178.904 76.426 178.493 76.382L177.833 76.316C177.305 76.2573 176.876 76.096 176.546 75.832C176.223 75.5607 176.062 75.1903 176.062 74.721C176.062 74.3763 176.15 74.0757 176.326 73.819C176.502 73.5623 176.748 73.3643 177.063 73.225C177.386 73.0783 177.763 73.005 178.196 73.005C178.819 73.005 179.325 73.1517 179.714 73.445C180.11 73.7383 180.312 74.1563 180.319 74.699H179.549C179.542 74.4203 179.424 74.1857 179.197 73.995C178.97 73.8043 178.636 73.709 178.196 73.709C177.741 73.709 177.4 73.808 177.173 74.006C176.953 74.204 176.843 74.446 176.843 74.732C176.843 74.974 176.927 75.1757 177.096 75.337C177.265 75.491 177.529 75.5863 177.888 75.623L178.548 75.689C179.135 75.755 179.611 75.9237 179.978 76.195C180.352 76.4663 180.539 76.855 180.539 77.361C180.539 77.7057 180.44 78.0173 180.242 78.296C180.051 78.5673 179.78 78.78 179.428 78.934C179.076 79.088 178.665 79.165 178.196 79.165ZM184.634 79.187C184.143 79.187 183.714 79.1027 183.347 78.934C182.988 78.758 182.687 78.5233 182.445 78.23C182.203 77.9293 182.02 77.5993 181.895 77.24C181.778 76.8807 181.719 76.5177 181.719 76.151V75.997C181.719 75.623 181.778 75.26 181.895 74.908C182.02 74.5487 182.203 74.226 182.445 73.94C182.687 73.6467 182.988 73.4157 183.347 73.247C183.714 73.071 184.136 72.983 184.612 72.983C185.096 72.983 185.525 73.071 185.899 73.247C186.281 73.423 186.589 73.6723 186.823 73.995C187.058 74.3177 187.197 74.699 187.241 75.139H186.449C186.383 74.7357 186.193 74.402 185.877 74.138C185.569 73.8667 185.148 73.731 184.612 73.731C184.15 73.731 183.765 73.8373 183.457 74.05C183.157 74.2553 182.929 74.5377 182.775 74.897C182.621 75.249 182.544 75.6413 182.544 76.074C182.544 76.4993 182.621 76.8953 182.775 77.262C182.929 77.6213 183.16 77.911 183.468 78.131C183.776 78.3437 184.165 78.45 184.634 78.45C184.994 78.45 185.305 78.3877 185.569 78.263C185.841 78.131 186.057 77.955 186.218 77.735C186.387 77.515 186.486 77.273 186.515 77.009H187.307C187.278 77.449 187.139 77.834 186.889 78.164C186.647 78.4867 186.332 78.7397 185.943 78.923C185.555 79.099 185.118 79.187 184.634 79.187ZM190.833 79.165C190.136 79.165 189.605 78.9413 189.238 78.494C188.871 78.0393 188.688 77.4087 188.688 76.602V73.17H189.502V76.767C189.502 77.273 189.634 77.6763 189.898 77.977C190.169 78.2703 190.543 78.417 191.02 78.417C191.519 78.417 191.915 78.2593 192.208 77.944C192.509 77.6287 192.659 77.207 192.659 76.679V73.17H193.484V79H192.824V76.569H192.956C192.956 77.1117 192.879 77.5773 192.725 77.966C192.571 78.3473 192.34 78.6443 192.032 78.857C191.724 79.0623 191.335 79.165 190.866 79.165H190.833ZM197.478 79.165C196.73 79.165 196.155 79.0037 195.751 78.681C195.348 78.351 195.143 77.911 195.135 77.361H195.905C195.92 77.6397 196.045 77.8927 196.279 78.12C196.521 78.3473 196.921 78.461 197.478 78.461C197.999 78.461 198.388 78.3547 198.644 78.142C198.908 77.922 199.04 77.658 199.04 77.35C199.04 77.064 198.93 76.844 198.71 76.69C198.498 76.5287 198.186 76.426 197.775 76.382L197.115 76.316C196.587 76.2573 196.158 76.096 195.828 75.832C195.506 75.5607 195.344 75.1903 195.344 74.721C195.344 74.3763 195.432 74.0757 195.608 73.819C195.784 73.5623 196.03 73.3643 196.345 73.225C196.668 73.0783 197.046 73.005 197.478 73.005C198.102 73.005 198.608 73.1517 198.996 73.445C199.392 73.7383 199.594 74.1563 199.601 74.699H198.831C198.824 74.4203 198.707 74.1857 198.479 73.995C198.252 73.8043 197.918 73.709 197.478 73.709C197.024 73.709 196.683 73.808 196.455 74.006C196.235 74.204 196.125 74.446 196.125 74.732C196.125 74.974 196.21 75.1757 196.378 75.337C196.547 75.491 196.811 75.5863 197.17 75.623L197.83 75.689C198.417 75.755 198.894 75.9237 199.26 76.195C199.634 76.4663 199.821 76.855 199.821 77.361C199.821 77.7057 199.722 78.0173 199.524 78.296C199.334 78.5673 199.062 78.78 198.71 78.934C198.358 79.088 197.948 79.165 197.478 79.165ZM203.3 79.165C202.552 79.165 201.977 79.0037 201.573 78.681C201.17 78.351 200.965 77.911 200.957 77.361H201.727C201.742 77.6397 201.867 77.8927 202.101 78.12C202.343 78.3473 202.743 78.461 203.3 78.461C203.821 78.461 204.21 78.3547 204.466 78.142C204.73 77.922 204.862 77.658 204.862 77.35C204.862 77.064 204.752 76.844 204.532 76.69C204.32 76.5287 204.008 76.426 203.597 76.382L202.937 76.316C202.409 76.2573 201.98 76.096 201.65 75.832C201.328 75.5607 201.166 75.1903 201.166 74.721C201.166 74.3763 201.254 74.0757 201.43 73.819C201.606 73.5623 201.852 73.3643 202.167 73.225C202.49 73.0783 202.868 73.005 203.3 73.005C203.924 73.005 204.43 73.1517 204.818 73.445C205.214 73.7383 205.416 74.1563 205.423 74.699H204.653C204.646 74.4203 204.529 74.1857 204.301 73.995C204.074 73.8043 203.74 73.709 203.3 73.709C202.846 73.709 202.505 73.808 202.277 74.006C202.057 74.204 201.947 74.446 201.947 74.732C201.947 74.974 202.032 75.1757 202.2 75.337C202.369 75.491 202.633 75.5863 202.992 75.623L203.652 75.689C204.239 75.755 204.716 75.9237 205.082 76.195C205.456 76.4663 205.643 76.855 205.643 77.361C205.643 77.7057 205.544 78.0173 205.346 78.296C205.156 78.5673 204.884 78.78 204.532 78.934C204.18 79.088 203.77 79.165 203.3 79.165ZM209.853 79V70.97H210.678V75.513L210.436 75.7C210.436 75.1573 210.513 74.6843 210.667 74.281C210.828 73.8777 211.067 73.566 211.382 73.346C211.705 73.1187 212.108 73.005 212.592 73.005H212.636C213.34 73.005 213.872 73.236 214.231 73.698C214.598 74.16 214.781 74.8017 214.781 75.623V79H213.967V75.447C213.967 74.9263 213.824 74.5157 213.538 74.215C213.252 73.9143 212.867 73.764 212.383 73.764C211.862 73.764 211.448 73.9327 211.14 74.27C210.832 74.6 210.678 75.0363 210.678 75.579V79H209.853ZM219.443 79.187C218.944 79.187 218.504 79.1027 218.123 78.934C217.749 78.758 217.43 78.527 217.166 78.241C216.909 77.9477 216.711 77.6213 216.572 77.262C216.44 76.9027 216.374 76.536 216.374 76.162V76.008C216.374 75.634 216.443 75.2673 216.583 74.908C216.722 74.5413 216.924 74.215 217.188 73.929C217.452 73.643 217.771 73.4157 218.145 73.247C218.526 73.071 218.959 72.983 219.443 72.983C219.934 72.983 220.367 73.071 220.741 73.247C221.122 73.4157 221.445 73.643 221.709 73.929C221.973 74.215 222.171 74.5413 222.303 74.908C222.442 75.2673 222.512 75.634 222.512 76.008V76.162C222.512 76.536 222.446 76.9027 222.314 77.262C222.182 77.6213 221.984 77.9477 221.72 78.241C221.463 78.527 221.144 78.758 220.763 78.934C220.381 79.1027 219.941 79.187 219.443 79.187ZM219.443 78.45C219.927 78.45 220.334 78.3437 220.664 78.131C221.001 77.911 221.258 77.625 221.434 77.273C221.61 76.9137 221.698 76.5177 221.698 76.085C221.698 75.645 221.606 75.249 221.423 74.897C221.247 74.5377 220.99 74.2553 220.653 74.05C220.315 73.8373 219.912 73.731 219.443 73.731C218.981 73.731 218.581 73.8373 218.244 74.05C217.906 74.2553 217.646 74.5377 217.463 74.897C217.287 75.249 217.199 75.645 217.199 76.085C217.199 76.5177 217.287 76.9137 217.463 77.273C217.639 77.625 217.892 77.911 218.222 78.131C218.559 78.3437 218.966 78.45 219.443 78.45ZM225.725 79L226.968 73.368H228.123L229.564 79H228.849L227.408 73.401H227.672L226.418 79H225.725ZM225.252 79V78.329H226.253V79H225.252ZM225.054 79L223.371 73.181H224.163L225.824 79H225.054ZM229.036 79V78.329H230.015V79H229.036ZM229.465 79L230.917 73.181H231.676L230.191 79H229.465ZM36.695 98L37.938 92.368H39.093L40.534 98H39.819L38.378 92.401H38.642L37.388 98H36.695ZM36.222 98V97.329H37.223V98H36.222ZM36.024 98L34.341 92.181H35.133L36.794 98H36.024ZM40.006 98V97.329H40.985V98H40.006ZM40.435 98L41.887 92.181H42.646L41.161 98H40.435ZM46.5 98.187C46.0013 98.187 45.5686 98.1027 45.202 97.934C44.8353 97.758 44.5346 97.527 44.3 97.241C44.0653 96.9477 43.8893 96.6213 43.772 96.262C43.662 95.9027 43.607 95.5323 43.607 95.151V94.997C43.607 94.623 43.662 94.2563 43.772 93.897C43.8893 93.5377 44.0653 93.215 44.3 92.929C44.5346 92.643 44.828 92.4157 45.18 92.247C45.5393 92.071 45.9573 91.983 46.434 91.983C47.0426 91.983 47.5486 92.1187 47.952 92.39C48.3626 92.6613 48.6706 93.0097 48.876 93.435C49.0813 93.853 49.184 94.304 49.184 94.788V95.217H43.981V94.579H48.612L48.403 94.898C48.403 94.4653 48.326 94.0877 48.172 93.765C48.0253 93.435 47.8053 93.1783 47.512 92.995C47.226 92.8043 46.8666 92.709 46.434 92.709C45.9793 92.709 45.6016 92.8153 45.301 93.028C45.0003 93.2407 44.773 93.523 44.619 93.875C44.4723 94.227 44.399 94.6267 44.399 95.074C44.399 95.514 44.4723 95.9173 44.619 96.284C44.773 96.6433 45.004 96.9293 45.312 97.142C45.6273 97.3547 46.0233 97.461 46.5 97.461C47.006 97.461 47.4166 97.3473 47.732 97.12C48.0473 96.8853 48.2416 96.6103 48.315 96.295H49.085C49.0116 96.6837 48.8576 97.021 48.623 97.307C48.3883 97.5857 48.0913 97.802 47.732 97.956C47.3726 98.11 46.962 98.187 46.5 98.187ZM55.7925 98.187C55.3011 98.187 54.8721 98.1027 54.5055 97.934C54.1461 97.758 53.8455 97.5233 53.6035 97.23C53.3615 96.9293 53.1781 96.5993 53.0535 96.24C52.9361 95.8807 52.8775 95.5177 52.8775 95.151V94.997C52.8775 94.623 52.9361 94.26 53.0535 93.908C53.1781 93.5487 53.3615 93.226 53.6035 92.94C53.8455 92.6467 54.1461 92.4157 54.5055 92.247C54.8721 92.071 55.2938 91.983 55.7705 91.983C56.2545 91.983 56.6835 92.071 57.0575 92.247C57.4388 92.423 57.7468 92.6723 57.9815 92.995C58.2161 93.3177 58.3555 93.699 58.3995 94.139H57.6075C57.5415 93.7357 57.3508 93.402 57.0355 93.138C56.7275 92.8667 56.3058 92.731 55.7705 92.731C55.3085 92.731 54.9235 92.8373 54.6155 93.05C54.3148 93.2553 54.0875 93.5377 53.9335 93.897C53.7795 94.249 53.7025 94.6413 53.7025 95.074C53.7025 95.4993 53.7795 95.8953 53.9335 96.262C54.0875 96.6213 54.3185 96.911 54.6265 97.131C54.9345 97.3437 55.3231 97.45 55.7925 97.45C56.1518 97.45 56.4635 97.3877 56.7275 97.263C56.9988 97.131 57.2151 96.955 57.3765 96.735C57.5451 96.515 57.6441 96.273 57.6735 96.009H58.4655C58.4361 96.449 58.2968 96.834 58.0475 97.164C57.8055 97.4867 57.4901 97.7397 57.1015 97.923C56.7128 98.099 56.2765 98.187 55.7925 98.187ZM63.5201 98V96.251H63.3881V94.183C63.3881 93.7503 63.2745 93.4203 63.0471 93.193C62.8198 92.9583 62.4678 92.841 61.9911 92.841C61.7711 92.841 61.5475 92.8447 61.3201 92.852C61.1001 92.8593 60.8875 92.8703 60.6821 92.885C60.4841 92.8923 60.3081 92.9033 60.1541 92.918V92.192C60.3155 92.1773 60.4805 92.1627 60.6491 92.148C60.8178 92.1333 60.9901 92.126 61.1661 92.126C61.3495 92.1187 61.5255 92.115 61.6941 92.115C62.2881 92.115 62.7648 92.1883 63.1241 92.335C63.4908 92.4817 63.7585 92.7127 63.9271 93.028C64.0958 93.336 64.1801 93.7467 64.1801 94.26V98H63.5201ZM61.5511 98.154C61.1405 98.154 60.7775 98.0807 60.4621 97.934C60.1468 97.7873 59.9011 97.5747 59.7251 97.296C59.5565 97.0173 59.4721 96.68 59.4721 96.284C59.4721 95.8953 59.5601 95.5653 59.7361 95.294C59.9195 95.0227 60.1798 94.8173 60.5171 94.678C60.8618 94.5313 61.2761 94.458 61.7601 94.458H63.4651V95.085H61.7051C61.2431 95.085 60.8875 95.1987 60.6381 95.426C60.3961 95.646 60.2751 95.9357 60.2751 96.295C60.2751 96.6617 60.4035 96.955 60.6601 97.175C60.9168 97.3877 61.2651 97.494 61.7051 97.494C61.9765 97.494 62.2368 97.4463 62.4861 97.351C62.7355 97.2483 62.9445 97.0797 63.1131 96.845C63.2818 96.603 63.3735 96.273 63.3881 95.855L63.6301 96.196C63.6008 96.6287 63.4981 96.9917 63.3221 97.285C63.1461 97.571 62.9078 97.7873 62.6071 97.934C62.3065 98.0807 61.9545 98.154 61.5511 98.154ZM66.2408 98V92.181H66.9008V94.623H66.7688C66.7688 94.0803 66.8495 93.6147 67.0108 93.226C67.1722 92.8373 67.4142 92.5367 67.7368 92.324C68.0595 92.1113 68.4665 92.005 68.9578 92.005H68.9908C69.7242 92.005 70.2705 92.236 70.6298 92.698C70.9892 93.1527 71.1688 93.7943 71.1688 94.623V98H70.3548V94.447C70.3548 93.941 70.2155 93.534 69.9368 93.226C69.6582 92.918 69.2695 92.764 68.7708 92.764C68.2575 92.764 67.8432 92.9253 67.5278 93.248C67.2198 93.5633 67.0658 93.9813 67.0658 94.502V98H66.2408ZM75.7906 98V89.97H76.6156V94.513L76.3736 94.7C76.3736 94.1573 76.4506 93.6843 76.6046 93.281C76.766 92.8777 77.0043 92.566 77.3196 92.346C77.6423 92.1187 78.0456 92.005 78.5296 92.005H78.5736C79.2776 92.005 79.8093 92.236 80.1686 92.698C80.5353 93.16 80.7186 93.8017 80.7186 94.623V98H79.9046V94.447C79.9046 93.9263 79.7616 93.5157 79.4756 93.215C79.1896 92.9143 78.8046 92.764 78.3206 92.764C77.8 92.764 77.3856 92.9327 77.0776 93.27C76.7696 93.6 76.6156 94.0363 76.6156 94.579V98H75.7906ZM85.2041 98.187C84.7054 98.187 84.2727 98.1027 83.9061 97.934C83.5394 97.758 83.2387 97.527 83.0041 97.241C82.7694 96.9477 82.5934 96.6213 82.4761 96.262C82.3661 95.9027 82.3111 95.5323 82.3111 95.151V94.997C82.3111 94.623 82.3661 94.2563 82.4761 93.897C82.5934 93.5377 82.7694 93.215 83.0041 92.929C83.2387 92.643 83.5321 92.4157 83.8841 92.247C84.2434 92.071 84.6614 91.983 85.1381 91.983C85.7467 91.983 86.2527 92.1187 86.6561 92.39C87.0667 92.6613 87.3747 93.0097 87.5801 93.435C87.7854 93.853 87.8881 94.304 87.8881 94.788V95.217H82.6851V94.579H87.3161L87.1071 94.898C87.1071 94.4653 87.0301 94.0877 86.8761 93.765C86.7294 93.435 86.5094 93.1783 86.2161 92.995C85.9301 92.8043 85.5707 92.709 85.1381 92.709C84.6834 92.709 84.3057 92.8153 84.0051 93.028C83.7044 93.2407 83.4771 93.523 83.3231 93.875C83.1764 94.227 83.1031 94.6267 83.1031 95.074C83.1031 95.514 83.1764 95.9173 83.3231 96.284C83.4771 96.6433 83.7081 96.9293 84.0161 97.142C84.3314 97.3547 84.7274 97.461 85.2041 97.461C85.7101 97.461 86.1207 97.3473 86.4361 97.12C86.7514 96.8853 86.9457 96.6103 87.0191 96.295H87.7891C87.7157 96.6837 87.5617 97.021 87.3271 97.307C87.0924 97.5857 86.7954 97.802 86.4361 97.956C86.0767 98.11 85.6661 98.187 85.2041 98.187ZM89.5312 98V89.97H90.3562V98H89.5312ZM88.6842 90.641V89.97H90.3562V90.641H88.6842ZM92.4947 100.2V92.181H93.1547V94.678L92.9567 94.7C92.9861 94.1133 93.1107 93.6183 93.3307 93.215C93.5581 92.8117 93.8624 92.5073 94.2437 92.302C94.6324 92.0893 95.0651 91.983 95.5417 91.983C95.9671 91.983 96.3521 92.0673 96.6967 92.236C97.0487 92.3973 97.3457 92.621 97.5877 92.907C97.8371 93.1857 98.0241 93.5083 98.1487 93.875C98.2807 94.2343 98.3467 94.612 98.3467 95.008V95.162C98.3467 95.558 98.2807 95.9393 98.1487 96.306C98.0167 96.6653 97.8261 96.988 97.5767 97.274C97.3347 97.5527 97.0377 97.7763 96.6857 97.945C96.3411 98.1063 95.9524 98.187 95.5197 98.187C95.0577 98.187 94.6324 98.0843 94.2437 97.879C93.8624 97.6663 93.5507 97.3547 93.3087 96.944C93.0741 96.5333 92.9457 96.0273 92.9237 95.426L93.3197 96.251V100.2H92.4947ZM95.4097 97.461C95.8497 97.461 96.2274 97.3583 96.5427 97.153C96.8581 96.9403 97.1001 96.6543 97.2687 96.295C97.4374 95.9283 97.5217 95.525 97.5217 95.085C97.5217 94.6303 97.4337 94.227 97.2577 93.875C97.0891 93.5157 96.8471 93.2333 96.5317 93.028C96.2164 92.8153 95.8424 92.709 95.4097 92.709C95.0137 92.709 94.6544 92.797 94.3317 92.973C94.0091 93.149 93.7524 93.3983 93.5617 93.721C93.3784 94.0363 93.2867 94.4103 93.2867 94.843V95.382C93.2867 95.7927 93.3784 96.1557 93.5617 96.471C93.7524 96.779 94.0091 97.021 94.3317 97.197C94.6544 97.373 95.0137 97.461 95.4097 97.461ZM101.074 95.778V93.743H101.712C102.27 93.743 102.691 93.589 102.977 93.281C103.263 92.9657 103.406 92.577 103.406 92.115C103.406 91.7777 103.337 91.488 103.197 91.246C103.058 91.004 102.864 90.817 102.614 90.685C102.372 90.553 102.094 90.487 101.778 90.487C101.426 90.487 101.118 90.5603 100.854 90.707C100.598 90.8537 100.396 91.059 100.249 91.323C100.11 91.587 100.04 91.8913 100.04 92.236H99.2484C99.2484 91.7887 99.3437 91.378 99.5344 91.004C99.7324 90.63 100.018 90.3293 100.392 90.102C100.774 89.8747 101.236 89.761 101.778 89.761C102.27 89.761 102.695 89.8673 103.054 90.08C103.421 90.2853 103.703 90.5603 103.901 90.905C104.099 91.2497 104.198 91.631 104.198 92.049V92.17C104.198 92.5807 104.103 92.9583 103.912 93.303C103.722 93.6477 103.436 93.9227 103.054 94.128C102.673 94.3333 102.2 94.436 101.635 94.436L101.91 94.029L101.899 95.778H101.074ZM100.975 98V96.911H101.998V98H100.975ZM110.185 98V90.52H111.021V98H110.185ZM107.677 90.729V89.97H113.529V90.729H107.677ZM114.903 98V89.97H115.728V94.513L115.486 94.7C115.486 94.1573 115.563 93.6843 115.717 93.281C115.878 92.8777 116.117 92.566 116.432 92.346C116.755 92.1187 117.158 92.005 117.642 92.005H117.686C118.39 92.005 118.922 92.236 119.281 92.698C119.648 93.16 119.831 93.8017 119.831 94.623V98H119.017V94.447C119.017 93.9263 118.874 93.5157 118.588 93.215C118.302 92.9143 117.917 92.764 117.433 92.764C116.912 92.764 116.498 92.9327 116.19 93.27C115.882 93.6 115.728 94.0363 115.728 94.579V98H114.903ZM125.427 98V96.251H125.295V94.183C125.295 93.7503 125.182 93.4203 124.954 93.193C124.727 92.9583 124.375 92.841 123.898 92.841C123.678 92.841 123.455 92.8447 123.227 92.852C123.007 92.8593 122.795 92.8703 122.589 92.885C122.391 92.8923 122.215 92.9033 122.061 92.918V92.192C122.223 92.1773 122.388 92.1627 122.556 92.148C122.725 92.1333 122.897 92.126 123.073 92.126C123.257 92.1187 123.433 92.115 123.601 92.115C124.195 92.115 124.672 92.1883 125.031 92.335C125.398 92.4817 125.666 92.7127 125.834 93.028C126.003 93.336 126.087 93.7467 126.087 94.26V98H125.427ZM123.458 98.154C123.048 98.154 122.685 98.0807 122.369 97.934C122.054 97.7873 121.808 97.5747 121.632 97.296C121.464 97.0173 121.379 96.68 121.379 96.284C121.379 95.8953 121.467 95.5653 121.643 95.294C121.827 95.0227 122.087 94.8173 122.424 94.678C122.769 94.5313 123.183 94.458 123.667 94.458H125.372V95.085H123.612C123.15 95.085 122.795 95.1987 122.545 95.426C122.303 95.646 122.182 95.9357 122.182 96.295C122.182 96.6617 122.311 96.955 122.567 97.175C122.824 97.3877 123.172 97.494 123.612 97.494C123.884 97.494 124.144 97.4463 124.393 97.351C124.643 97.2483 124.852 97.0797 125.02 96.845C125.189 96.603 125.281 96.273 125.295 95.855L125.537 96.196C125.508 96.6287 125.405 96.9917 125.229 97.285C125.053 97.571 124.815 97.7873 124.514 97.934C124.214 98.0807 123.862 98.154 123.458 98.154ZM128.148 98V92.181H128.808V94.623H128.676C128.676 94.0803 128.757 93.6147 128.918 93.226C129.079 92.8373 129.321 92.5367 129.644 92.324C129.967 92.1113 130.374 92.005 130.865 92.005H130.898C131.631 92.005 132.178 92.236 132.537 92.698C132.896 93.1527 133.076 93.7943 133.076 94.623V98H132.262V94.447C132.262 93.941 132.123 93.534 131.844 93.226C131.565 92.918 131.177 92.764 130.678 92.764C130.165 92.764 129.75 92.9253 129.435 93.248C129.127 93.5633 128.973 93.9813 128.973 94.502V98H128.148ZM139.09 98L136.747 95.272H135.801L138.562 92.181H139.442L136.967 94.942L137.022 94.491L140.058 98H139.09ZM135.13 98V89.97H135.955V98H135.13ZM142.94 98.165C142.192 98.165 141.616 98.0037 141.213 97.681C140.81 97.351 140.604 96.911 140.597 96.361H141.367C141.382 96.6397 141.506 96.8927 141.741 97.12C141.983 97.3473 142.383 97.461 142.94 97.461C143.461 97.461 143.849 97.3547 144.106 97.142C144.37 96.922 144.502 96.658 144.502 96.35C144.502 96.064 144.392 95.844 144.172 95.69C143.959 95.5287 143.648 95.426 143.237 95.382L142.577 95.316C142.049 95.2573 141.62 95.096 141.29 94.832C140.967 94.5607 140.806 94.1903 140.806 93.721C140.806 93.3763 140.894 93.0757 141.07 92.819C141.246 92.5623 141.492 92.3643 141.807 92.225C142.13 92.0783 142.507 92.005 142.94 92.005C143.563 92.005 144.069 92.1517 144.458 92.445C144.854 92.7383 145.056 93.1563 145.063 93.699H144.293C144.286 93.4203 144.168 93.1857 143.941 92.995C143.714 92.8043 143.38 92.709 142.94 92.709C142.485 92.709 142.144 92.808 141.917 93.006C141.697 93.204 141.587 93.446 141.587 93.732C141.587 93.974 141.671 94.1757 141.84 94.337C142.009 94.491 142.273 94.5863 142.632 94.623L143.292 94.689C143.879 94.755 144.355 94.9237 144.722 95.195C145.096 95.4663 145.283 95.855 145.283 96.361C145.283 96.7057 145.184 97.0173 144.986 97.296C144.795 97.5673 144.524 97.78 144.172 97.934C143.82 98.088 143.409 98.165 142.94 98.165ZM146.991 95.778V89.97H147.827V95.778H146.991ZM146.903 98V96.911H147.926V98H146.903ZM152.366 95.294V94.59H156.227V95.294H152.366ZM160.928 100.002V89.464H161.72V100.002H160.928ZM161.247 100.002V99.342H163.029V100.002H161.247ZM161.247 90.124V89.464H163.029V90.124H161.247ZM166.485 94.854L163.9 89.97H164.78L167.057 94.337L166.705 94.194H167.926L167.563 94.337L169.719 89.97H170.544L168.113 94.854H166.485ZM166.881 98V94.667H167.706V98H166.881ZM173.885 98.187C173.386 98.187 172.946 98.1027 172.565 97.934C172.191 97.758 171.872 97.527 171.608 97.241C171.351 96.9477 171.153 96.6213 171.014 96.262C170.882 95.9027 170.816 95.536 170.816 95.162V95.008C170.816 94.634 170.886 94.2673 171.025 93.908C171.164 93.5413 171.366 93.215 171.63 92.929C171.894 92.643 172.213 92.4157 172.587 92.247C172.968 92.071 173.401 91.983 173.885 91.983C174.376 91.983 174.809 92.071 175.183 92.247C175.564 92.4157 175.887 92.643 176.151 92.929C176.415 93.215 176.613 93.5413 176.745 93.908C176.884 94.2673 176.954 94.634 176.954 95.008V95.162C176.954 95.536 176.888 95.9027 176.756 96.262C176.624 96.6213 176.426 96.9477 176.162 97.241C175.905 97.527 175.586 97.758 175.205 97.934C174.824 98.1027 174.384 98.187 173.885 98.187ZM173.885 97.45C174.369 97.45 174.776 97.3437 175.106 97.131C175.443 96.911 175.7 96.625 175.876 96.273C176.052 95.9137 176.14 95.5177 176.14 95.085C176.14 94.645 176.048 94.249 175.865 93.897C175.689 93.5377 175.432 93.2553 175.095 93.05C174.758 92.8373 174.354 92.731 173.885 92.731C173.423 92.731 173.023 92.8373 172.686 93.05C172.349 93.2553 172.088 93.5377 171.905 93.897C171.729 94.249 171.641 94.645 171.641 95.085C171.641 95.5177 171.729 95.9137 171.905 96.273C172.081 96.625 172.334 96.911 172.664 97.131C173.001 97.3437 173.408 97.45 173.885 97.45ZM180.649 98.165C179.953 98.165 179.421 97.9413 179.054 97.494C178.688 97.0393 178.504 96.4087 178.504 95.602V92.17H179.318V95.767C179.318 96.273 179.45 96.6763 179.714 96.977C179.986 97.2703 180.36 97.417 180.836 97.417C181.335 97.417 181.731 97.2593 182.024 96.944C182.325 96.6287 182.475 96.207 182.475 95.679V92.17H183.3V98H182.64V95.569H182.772C182.772 96.1117 182.695 96.5773 182.541 96.966C182.387 97.3473 182.156 97.6443 181.848 97.857C181.54 98.0623 181.152 98.165 180.682 98.165H180.649ZM185.458 98V92.181H186.118V94.612H186.052C186.052 93.7613 186.239 93.1343 186.613 92.731C186.987 92.3203 187.573 92.115 188.373 92.115H188.56V92.863H188.219C187.588 92.863 187.108 93.028 186.778 93.358C186.448 93.6807 186.283 94.1573 186.283 94.788V98H185.458ZM192.649 98V89.97H194.046L198.446 97.241H198.798L198.578 97.417V89.97H199.381V98H197.973L193.573 90.729H193.221L193.441 90.553V98H192.649ZM205.242 98V96.251H205.11V94.183C205.11 93.7503 204.996 93.4203 204.769 93.193C204.541 92.9583 204.189 92.841 203.713 92.841C203.493 92.841 203.269 92.8447 203.042 92.852C202.822 92.8593 202.609 92.8703 202.404 92.885C202.206 92.8923 202.03 92.9033 201.876 92.918V92.192C202.037 92.1773 202.202 92.1627 202.371 92.148C202.539 92.1333 202.712 92.126 202.888 92.126C203.071 92.1187 203.247 92.115 203.416 92.115C204.01 92.115 204.486 92.1883 204.846 92.335C205.212 92.4817 205.48 92.7127 205.649 93.028C205.817 93.336 205.902 93.7467 205.902 94.26V98H205.242ZM203.273 98.154C202.862 98.154 202.499 98.0807 202.184 97.934C201.868 97.7873 201.623 97.5747 201.447 97.296C201.278 97.0173 201.194 96.68 201.194 96.284C201.194 95.8953 201.282 95.5653 201.458 95.294C201.641 95.0227 201.901 94.8173 202.239 94.678C202.583 94.5313 202.998 94.458 203.482 94.458H205.187V95.085H203.427C202.965 95.085 202.609 95.1987 202.36 95.426C202.118 95.646 201.997 95.9357 201.997 96.295C201.997 96.6617 202.125 96.955 202.382 97.175C202.638 97.3877 202.987 97.494 203.427 97.494C203.698 97.494 203.958 97.4463 204.208 97.351C204.457 97.2483 204.666 97.0797 204.835 96.845C205.003 96.603 205.095 96.273 205.11 95.855L205.352 96.196C205.322 96.6287 205.22 96.9917 205.044 97.285C204.868 97.571 204.629 97.7873 204.329 97.934C204.028 98.0807 203.676 98.154 203.273 98.154ZM207.963 98V92.17H208.623V94.623H208.491C208.491 94.0877 208.564 93.6257 208.711 93.237C208.865 92.8483 209.092 92.5477 209.393 92.335C209.693 92.115 210.075 92.005 210.537 92.005H210.57C211.032 92.005 211.413 92.1113 211.714 92.324C212.014 92.5367 212.238 92.8373 212.385 93.226C212.531 93.6147 212.605 94.0803 212.605 94.623H212.341C212.341 94.0877 212.414 93.6257 212.561 93.237C212.715 92.8483 212.942 92.5477 213.243 92.335C213.551 92.115 213.936 92.005 214.398 92.005H214.431C214.893 92.005 215.274 92.1113 215.575 92.324C215.883 92.5367 216.11 92.8373 216.257 93.226C216.411 93.6147 216.488 94.0803 216.488 94.623V98H215.663V94.436C215.663 93.9227 215.538 93.5157 215.289 93.215C215.039 92.9143 214.68 92.764 214.211 92.764C213.727 92.764 213.342 92.9217 213.056 93.237C212.777 93.545 212.638 93.963 212.638 94.491V98H211.813V94.436C211.813 93.9227 211.688 93.5157 211.439 93.215C211.189 92.9143 210.83 92.764 210.361 92.764C209.877 92.764 209.492 92.9217 209.206 93.237C208.927 93.545 208.788 93.963 208.788 94.491V98H207.963ZM220.975 98.187C220.476 98.187 220.043 98.1027 219.677 97.934C219.31 97.758 219.009 97.527 218.775 97.241C218.54 96.9477 218.364 96.6213 218.247 96.262C218.137 95.9027 218.082 95.5323 218.082 95.151V94.997C218.082 94.623 218.137 94.2563 218.247 93.897C218.364 93.5377 218.54 93.215 218.775 92.929C219.009 92.643 219.303 92.4157 219.655 92.247C220.014 92.071 220.432 91.983 220.909 91.983C221.517 91.983 222.023 92.1187 222.427 92.39C222.837 92.6613 223.145 93.0097 223.351 93.435C223.556 93.853 223.659 94.304 223.659 94.788V95.217H218.456V94.579H223.087L222.878 94.898C222.878 94.4653 222.801 94.0877 222.647 93.765C222.5 93.435 222.28 93.1783 221.987 92.995C221.701 92.8043 221.341 92.709 220.909 92.709C220.454 92.709 220.076 92.8153 219.776 93.028C219.475 93.2407 219.248 93.523 219.094 93.875C218.947 94.227 218.874 94.6267 218.874 95.074C218.874 95.514 218.947 95.9173 219.094 96.284C219.248 96.6433 219.479 96.9293 219.787 97.142C220.102 97.3547 220.498 97.461 220.975 97.461C221.481 97.461 221.891 97.3473 222.207 97.12C222.522 96.8853 222.716 96.6103 222.79 96.295H223.56C223.486 96.6837 223.332 97.021 223.098 97.307C222.863 97.5857 222.566 97.802 222.207 97.956C221.847 98.11 221.437 98.187 220.975 98.187ZM226.736 100.002H225.944V89.464H226.736V100.002ZM226.417 100.002H224.635V99.342H226.417V100.002ZM226.417 90.124H224.635V89.464H226.417V90.124ZM229.103 99.683L228.432 99.441L229.389 96.79L230.082 97.043L229.103 99.683ZM37.828 117.187C37.1533 117.187 36.585 117.081 36.123 116.868C35.661 116.648 35.309 116.347 35.067 115.966C34.8323 115.577 34.715 115.141 34.715 114.657H35.551C35.551 114.965 35.6243 115.255 35.771 115.526C35.925 115.79 36.167 116.006 36.497 116.175C36.8343 116.336 37.278 116.417 37.828 116.417C38.334 116.417 38.752 116.344 39.082 116.197C39.4193 116.05 39.6687 115.852 39.83 115.603C39.9987 115.354 40.083 115.075 40.083 114.767C40.083 114.378 39.929 114.056 39.621 113.799C39.3203 113.535 38.8657 113.377 38.257 113.326L37.333 113.238C36.6437 113.179 36.0937 112.967 35.683 112.6C35.2797 112.226 35.078 111.735 35.078 111.126C35.078 110.664 35.188 110.257 35.408 109.905C35.628 109.553 35.9397 109.274 36.343 109.069C36.7537 108.864 37.245 108.761 37.817 108.761C38.3963 108.761 38.8913 108.867 39.302 109.08C39.72 109.285 40.039 109.571 40.259 109.938C40.479 110.305 40.589 110.73 40.589 111.214H39.753C39.753 110.921 39.687 110.646 39.555 110.389C39.423 110.132 39.214 109.927 38.928 109.773C38.642 109.612 38.2717 109.531 37.817 109.531C37.3843 109.531 37.025 109.604 36.739 109.751C36.4603 109.898 36.2513 110.092 36.112 110.334C35.98 110.576 35.914 110.84 35.914 111.126C35.914 111.485 36.0423 111.79 36.299 112.039C36.5557 112.288 36.926 112.431 37.41 112.468L38.334 112.556C38.8767 112.6 39.3387 112.721 39.72 112.919C40.1087 113.11 40.4057 113.363 40.611 113.678C40.8163 113.986 40.919 114.349 40.919 114.767C40.919 115.236 40.7907 115.654 40.534 116.021C40.2847 116.388 39.929 116.674 39.467 116.879C39.005 117.084 38.4587 117.187 37.828 117.187ZM46.2789 117V115.251H46.1469V113.183C46.1469 112.75 46.0333 112.42 45.8059 112.193C45.5786 111.958 45.2266 111.841 44.7499 111.841C44.5299 111.841 44.3063 111.845 44.0789 111.852C43.8589 111.859 43.6463 111.87 43.4409 111.885C43.2429 111.892 43.0669 111.903 42.9129 111.918V111.192C43.0743 111.177 43.2393 111.163 43.4079 111.148C43.5766 111.133 43.7489 111.126 43.9249 111.126C44.1083 111.119 44.2843 111.115 44.4529 111.115C45.0469 111.115 45.5236 111.188 45.8829 111.335C46.2496 111.482 46.5173 111.713 46.6859 112.028C46.8546 112.336 46.9389 112.747 46.9389 113.26V117H46.2789ZM44.3099 117.154C43.8993 117.154 43.5363 117.081 43.2209 116.934C42.9056 116.787 42.6599 116.575 42.4839 116.296C42.3153 116.017 42.2309 115.68 42.2309 115.284C42.2309 114.895 42.3189 114.565 42.4949 114.294C42.6783 114.023 42.9386 113.817 43.2759 113.678C43.6206 113.531 44.0349 113.458 44.5189 113.458H46.2239V114.085H44.4639C44.0019 114.085 43.6463 114.199 43.3969 114.426C43.1549 114.646 43.0339 114.936 43.0339 115.295C43.0339 115.662 43.1623 115.955 43.4189 116.175C43.6756 116.388 44.0239 116.494 44.4639 116.494C44.7353 116.494 44.9956 116.446 45.2449 116.351C45.4943 116.248 45.7033 116.08 45.8719 115.845C46.0406 115.603 46.1323 115.273 46.1469 114.855L46.3889 115.196C46.3596 115.629 46.2569 115.992 46.0809 116.285C45.9049 116.571 45.6666 116.787 45.3659 116.934C45.0653 117.081 44.7133 117.154 44.3099 117.154ZM49.0546 117V108.97H49.8796V117H49.0546ZM48.2076 109.641V108.97H49.8796V109.641H48.2076ZM54.4492 117.187C53.9505 117.187 53.5178 117.103 53.1512 116.934C52.7845 116.758 52.4838 116.527 52.2492 116.241C52.0145 115.948 51.8385 115.621 51.7212 115.262C51.6112 114.903 51.5562 114.532 51.5562 114.151V113.997C51.5562 113.623 51.6112 113.256 51.7212 112.897C51.8385 112.538 52.0145 112.215 52.2492 111.929C52.4838 111.643 52.7772 111.416 53.1292 111.247C53.4885 111.071 53.9065 110.983 54.3832 110.983C54.9918 110.983 55.4978 111.119 55.9012 111.39C56.3118 111.661 56.6198 112.01 56.8252 112.435C57.0305 112.853 57.1332 113.304 57.1332 113.788V114.217H51.9302V113.579H56.5612L56.3522 113.898C56.3522 113.465 56.2752 113.088 56.1212 112.765C55.9745 112.435 55.7545 112.178 55.4612 111.995C55.1752 111.804 54.8158 111.709 54.3832 111.709C53.9285 111.709 53.5508 111.815 53.2502 112.028C52.9495 112.241 52.7222 112.523 52.5682 112.875C52.4215 113.227 52.3482 113.627 52.3482 114.074C52.3482 114.514 52.4215 114.917 52.5682 115.284C52.7222 115.643 52.9532 115.929 53.2612 116.142C53.5765 116.355 53.9725 116.461 54.4492 116.461C54.9552 116.461 55.3658 116.347 55.6812 116.12C55.9965 115.885 56.1908 115.61 56.2642 115.295H57.0342C56.9608 115.684 56.8068 116.021 56.5722 116.307C56.3375 116.586 56.0405 116.802 55.6812 116.956C55.3218 117.11 54.9112 117.187 54.4492 117.187ZM60.5583 117.165C59.8103 117.165 59.2346 117.004 58.8313 116.681C58.428 116.351 58.2226 115.911 58.2153 115.361H58.9853C59 115.64 59.1246 115.893 59.3593 116.12C59.6013 116.347 60.001 116.461 60.5583 116.461C61.079 116.461 61.4676 116.355 61.7243 116.142C61.9883 115.922 62.1203 115.658 62.1203 115.35C62.1203 115.064 62.0103 114.844 61.7903 114.69C61.5776 114.529 61.266 114.426 60.8553 114.382L60.1953 114.316C59.6673 114.257 59.2383 114.096 58.9083 113.832C58.5856 113.561 58.4243 113.19 58.4243 112.721C58.4243 112.376 58.5123 112.076 58.6883 111.819C58.8643 111.562 59.11 111.364 59.4253 111.225C59.748 111.078 60.1256 111.005 60.5583 111.005C61.1816 111.005 61.6876 111.152 62.0763 111.445C62.4723 111.738 62.674 112.156 62.6813 112.699H61.9113C61.904 112.42 61.7866 112.186 61.5593 111.995C61.332 111.804 60.9983 111.709 60.5583 111.709C60.1036 111.709 59.7626 111.808 59.5353 112.006C59.3153 112.204 59.2053 112.446 59.2053 112.732C59.2053 112.974 59.2896 113.176 59.4583 113.337C59.627 113.491 59.891 113.586 60.2503 113.623L60.9103 113.689C61.497 113.755 61.9736 113.924 62.3403 114.195C62.7143 114.466 62.9013 114.855 62.9013 115.361C62.9013 115.706 62.8023 116.017 62.6043 116.296C62.4136 116.567 62.1423 116.78 61.7903 116.934C61.4383 117.088 61.0276 117.165 60.5583 117.165Z" fill="#0A323E"/>
<defs>
<filter id="filter0_iii_639_3320" x="256" y="16" width="38" height="38.5519" filterUnits="userSpaceOnUse" color-interpolation-filters="sRGB">
<feFlood flood-opacity="0" result="BackgroundImageFix"/>
<feBlend mode="normal" in="SourceGraphic" in2="BackgroundImageFix" result="shape"/>
<feColorMatrix in="SourceAlpha" type="matrix" values="0 0 0 0 0 0 0 0 0 0 0 0 0 0 0 0 0 0 127 0" result="hardAlpha"/>
<feOffset dy="0.315353"/>
<feGaussianBlur stdDeviation="0.630705"/>
<feComposite in2="hardAlpha" operator="arithmetic" k2="-1" k3="1"/>
<feColorMatrix type="matrix" values="0 0 0 0 1 0 0 0 0 1 0 0 0 0 1 0 0 0 1 0"/>
<feBlend mode="normal" in2="shape" result="effect1_innerShadow_639_3320"/>
<feColorMatrix in="SourceAlpha" type="matrix" values="0 0 0 0 0 0 0 0 0 0 0 0 0 0 0 0 0 0 127 0" result="hardAlpha"/>
<feOffset dy="0.551867"/>
<feGaussianBlur stdDeviation="0.394191"/>
<feComposite in2="hardAlpha" operator="arithmetic" k2="-1" k3="1"/>
<feColorMatrix type="matrix" values="0 0 0 0 1 0 0 0 0 1 0 0 0 0 1 0 0 0 1 0"/>
<feBlend mode="normal" in2="effect1_innerShadow_639_3320" result="effect2_innerShadow_639_3320"/>
<feColorMatrix in="SourceAlpha" type="matrix" values="0 0 0 0 0 0 0 0 0 0 0 0 0 0 0 0 0 0 127 0" result="hardAlpha"/>
<feOffset dy="0.315353"/>
<feGaussianBlur stdDeviation="0.946058"/>
<feComposite in2="hardAlpha" operator="arithmetic" k2="-1" k3="1"/>
<feColorMatrix type="matrix" values="0 0 0 0 1 0 0 0 0 1 0 0 0 0 1 0 0 0 1 0"/>
<feBlend mode="normal" in2="effect2_innerShadow_639_3320" result="effect3_innerShadow_639_3320"/>
</filter>
<linearGradient id="paint0_linear_639_3320" x1="262.859" y1="19.5871" x2="289.349" y2="47.6929" gradientUnits="userSpaceOnUse">
<stop stop-color="#775ADA"/>
<stop offset="0.470968" stop-color="#FF304F"/>
<stop offset="1" stop-color="#28C7FA"/>
</linearGradient>
<linearGradient id="paint1_linear_639_3320" x1="282.2" y1="39.2858" x2="272.693" y2="34.37" gradientUnits="userSpaceOnUse">
<stop stop-color="#002651"/>
<stop offset="1" stop-color="#775ADA"/>
</linearGradient>
<linearGradient id="paint2_linear_639_3320" x1="282.139" y1="30.2896" x2="274.945" y2="24.5554" gradientUnits="userSpaceOnUse">
<stop stop-color="#002651"/>
<stop offset="1" stop-color="#775ADA"/>
</linearGradient>
<linearGradient id="paint3_linear_639_3320" x1="267.645" y1="39.2858" x2="258.138" y2="34.37" gradientUnits="userSpaceOnUse">
<stop stop-color="#002651"/>
<stop offset="1" stop-color="#775ADA"/>
</linearGradient>
<linearGradient id="paint4_linear_639_3320" x1="274.922" y1="41.2244" x2="271.333" y2="35.7024" gradientUnits="userSpaceOnUse">
<stop stop-color="#002651"/>
<stop offset="1" stop-color="#775ADA"/>
</linearGradient>
<linearGradient id="paint5_linear_639_3320" x1="274.922" y1="34.536" x2="264.394" y2="30.4897" gradientUnits="userSpaceOnUse">
<stop stop-color="#002651"/>
<stop offset="1" stop-color="#775ADA"/>
</linearGradient>
<linearGradient id="paint6_linear_639_3320" x1="267.71" y1="30.2896" x2="260.516" y2="24.5554" gradientUnits="userSpaceOnUse">
<stop stop-color="#002651"/>
<stop offset="1" stop-color="#775ADA"/>
</linearGradient>
<linearGradient id="paint7_linear_639_3320" x1="273.374" y1="44.7038" x2="274.842" y2="50.1367" gradientUnits="userSpaceOnUse">
<stop stop-color="#002651"/>
<stop offset="1" stop-color="#775ADA"/>
</linearGradient>
<linearGradient id="paint8_linear_639_3320" x1="268" y1="122" x2="268" y2="144" gradientUnits="userSpaceOnUse">
<stop stop-color="#28C7FA"/>
<stop offset="0.73" stop-color="#775ADA"/>
<stop offset="1" stop-color="#991D2F"/>
</linearGradient>
</defs>
</svg>
