<svg width="534" height="267" viewBox="0 0 534 267" fill="none" xmlns="http://www.w3.org/2000/svg">
<rect y="177" width="90" height="90" rx="11" fill="#775ADA"/>
<rect x="444" width="90" height="90" rx="11" fill="#002651"/>
<g filter="url(#filter0_d_507_1024)">
<rect x="35" y="35" width="464" height="197" rx="10" fill="white"/>
</g>
<rect x="79" y="59" width="93" height="31" rx="15.5" fill="#C9F1FE" fill-opacity="0.6"/>
<path d="M104.482 78.5V69.01H105.47V78.5H104.482ZM105.21 74.119V73.222L109.409 73.209V74.106L105.21 74.119ZM105.21 69.894V69.01H109.656V69.894H105.21ZM114.489 78.721C113.9 78.721 113.38 78.6213 112.929 78.422C112.487 78.214 112.11 77.941 111.798 77.603C111.495 77.2563 111.261 76.8707 111.096 76.446C110.94 76.0213 110.862 75.588 110.862 75.146V74.964C110.862 74.522 110.945 74.0887 111.109 73.664C111.274 73.2307 111.512 72.845 111.824 72.507C112.136 72.169 112.513 71.9003 112.955 71.701C113.406 71.493 113.917 71.389 114.489 71.389C115.07 71.389 115.581 71.493 116.023 71.701C116.474 71.9003 116.855 72.169 117.167 72.507C117.479 72.845 117.713 73.2307 117.869 73.664C118.034 74.0887 118.116 74.522 118.116 74.964V75.146C118.116 75.588 118.038 76.0213 117.882 76.446C117.726 76.8707 117.492 77.2563 117.18 77.603C116.877 77.941 116.5 78.214 116.049 78.422C115.599 78.6213 115.079 78.721 114.489 78.721ZM114.489 77.85C115.061 77.85 115.542 77.7243 115.932 77.473C116.331 77.213 116.634 76.875 116.842 76.459C117.05 76.0343 117.154 75.5663 117.154 75.055C117.154 74.535 117.046 74.067 116.829 73.651C116.621 73.2263 116.318 72.8927 115.919 72.65C115.521 72.3987 115.044 72.273 114.489 72.273C113.943 72.273 113.471 72.3987 113.072 72.65C112.674 72.8927 112.366 73.2263 112.149 73.651C111.941 74.067 111.837 74.535 111.837 75.055C111.837 75.5663 111.941 76.0343 112.149 76.459C112.357 76.875 112.656 77.213 113.046 77.473C113.445 77.7243 113.926 77.85 114.489 77.85ZM120.105 78.5V71.623H120.885V74.496H120.807C120.807 73.4907 121.028 72.7497 121.47 72.273C121.912 71.7877 122.605 71.545 123.55 71.545H123.771V72.429H123.368C122.622 72.429 122.055 72.624 121.665 73.014C121.275 73.3953 121.08 73.9587 121.08 74.704V78.5H120.105ZM125.348 78.5V71.61H126.128V74.509H125.972C125.972 73.8763 126.059 73.3303 126.232 72.871C126.414 72.4117 126.683 72.0563 127.038 71.805C127.393 71.545 127.844 71.415 128.39 71.415H128.429C128.975 71.415 129.426 71.5407 129.781 71.792C130.136 72.0433 130.401 72.3987 130.574 72.858C130.747 73.3173 130.834 73.8677 130.834 74.509H130.522C130.522 73.8763 130.609 73.3303 130.782 72.871C130.964 72.4117 131.233 72.0563 131.588 71.805C131.952 71.545 132.407 71.415 132.953 71.415H132.992C133.538 71.415 133.989 71.5407 134.344 71.792C134.708 72.0433 134.977 72.3987 135.15 72.858C135.332 73.3173 135.423 73.8677 135.423 74.509V78.5H134.448V74.288C134.448 73.6813 134.301 73.2003 134.006 72.845C133.711 72.4897 133.287 72.312 132.732 72.312C132.16 72.312 131.705 72.4983 131.367 72.871C131.038 73.235 130.873 73.729 130.873 74.353V78.5H129.898V74.288C129.898 73.6813 129.751 73.2003 129.456 72.845C129.161 72.4897 128.737 72.312 128.182 72.312C127.61 72.312 127.155 72.4983 126.817 72.871C126.488 73.235 126.323 73.729 126.323 74.353V78.5H125.348ZM142.039 78.5V76.433H141.883V73.989C141.883 73.4777 141.748 73.0877 141.48 72.819C141.211 72.5417 140.795 72.403 140.232 72.403C139.972 72.403 139.707 72.4073 139.439 72.416C139.179 72.4247 138.927 72.4377 138.685 72.455C138.451 72.4637 138.243 72.4767 138.061 72.494V71.636C138.251 71.6187 138.446 71.6013 138.646 71.584C138.845 71.5667 139.049 71.558 139.257 71.558C139.473 71.5493 139.681 71.545 139.881 71.545C140.583 71.545 141.146 71.6317 141.571 71.805C142.004 71.9783 142.32 72.2513 142.52 72.624C142.719 72.988 142.819 73.4733 142.819 74.08V78.5H142.039ZM139.712 78.682C139.226 78.682 138.797 78.5953 138.425 78.422C138.052 78.2487 137.762 77.9973 137.554 77.668C137.354 77.3387 137.255 76.94 137.255 76.472C137.255 76.0127 137.359 75.6227 137.567 75.302C137.783 74.9813 138.091 74.7387 138.49 74.574C138.897 74.4007 139.387 74.314 139.959 74.314H141.974V75.055H139.894C139.348 75.055 138.927 75.1893 138.633 75.458C138.347 75.718 138.204 76.0603 138.204 76.485C138.204 76.9183 138.355 77.265 138.659 77.525C138.962 77.7763 139.374 77.902 139.894 77.902C140.214 77.902 140.522 77.8457 140.817 77.733C141.111 77.6117 141.358 77.4123 141.558 77.135C141.757 76.849 141.865 76.459 141.883 75.965L142.169 76.368C142.134 76.8793 142.013 77.3083 141.805 77.655C141.597 77.993 141.315 78.2487 140.96 78.422C140.604 78.5953 140.188 78.682 139.712 78.682ZM145.319 78.5V69.01H146.294V78.5H145.319ZM144.318 69.803V69.01H146.294V69.803H144.318Z" fill="black"/>
<rect x="197" y="59" width="103" height="31" rx="15.5" fill="#C9F1FE" fill-opacity="0.6"/>
<path d="M222.508 78.5V69.01H223.496V78.5H222.508ZM226.26 78.5V71.623H227.04V74.509H226.884C226.884 73.8677 226.979 73.3173 227.17 72.858C227.361 72.3987 227.647 72.0433 228.028 71.792C228.409 71.5407 228.89 71.415 229.471 71.415H229.51C230.377 71.415 231.022 71.688 231.447 72.234C231.872 72.7713 232.084 73.5297 232.084 74.509V78.5H231.122V74.301C231.122 73.703 230.957 73.222 230.628 72.858C230.299 72.494 229.839 72.312 229.25 72.312C228.643 72.312 228.154 72.5027 227.781 72.884C227.417 73.2567 227.235 73.7507 227.235 74.366V78.5H226.26ZM234.707 78.5V71.09C234.707 70.3707 234.893 69.8377 235.266 69.491C235.639 69.1443 236.198 68.971 236.943 68.971H237.814V69.803H236.761C236.397 69.803 236.12 69.8983 235.929 70.089C235.738 70.2797 235.643 70.5483 235.643 70.895V78.5H234.707ZM233.706 72.429V71.675H237.957V72.429H233.706ZM242.405 78.721C241.815 78.721 241.295 78.6213 240.845 78.422C240.403 78.214 240.026 77.941 239.714 77.603C239.41 77.2563 239.176 76.8707 239.012 76.446C238.856 76.0213 238.778 75.588 238.778 75.146V74.964C238.778 74.522 238.86 74.0887 239.025 73.664C239.189 73.2307 239.428 72.845 239.74 72.507C240.052 72.169 240.429 71.9003 240.871 71.701C241.321 71.493 241.833 71.389 242.405 71.389C242.985 71.389 243.497 71.493 243.939 71.701C244.389 71.9003 244.771 72.169 245.083 72.507C245.395 72.845 245.629 73.2307 245.785 73.664C245.949 74.0887 246.032 74.522 246.032 74.964V75.146C246.032 75.588 245.954 76.0213 245.798 76.446C245.642 76.8707 245.408 77.2563 245.096 77.603C244.792 77.941 244.415 78.214 243.965 78.422C243.514 78.6213 242.994 78.721 242.405 78.721ZM242.405 77.85C242.977 77.85 243.458 77.7243 243.848 77.473C244.246 77.213 244.55 76.875 244.758 76.459C244.966 76.0343 245.07 75.5663 245.07 75.055C245.07 74.535 244.961 74.067 244.744 73.651C244.537 73.2263 244.233 72.8927 243.835 72.65C243.436 72.3987 242.959 72.273 242.405 72.273C241.859 72.273 241.386 72.3987 240.988 72.65C240.589 72.8927 240.281 73.2263 240.065 73.651C239.857 74.067 239.753 74.535 239.753 75.055C239.753 75.5663 239.857 76.0343 240.065 76.459C240.273 76.875 240.572 77.213 240.962 77.473C241.36 77.7243 241.841 77.85 242.405 77.85ZM248.02 78.5V71.623H248.8V74.496H248.722C248.722 73.4907 248.943 72.7497 249.385 72.273C249.827 71.7877 250.52 71.545 251.465 71.545H251.686V72.429H251.283C250.537 72.429 249.97 72.624 249.58 73.014C249.19 73.3953 248.995 73.9587 248.995 74.704V78.5H248.02ZM253.263 78.5V71.61H254.043V74.509H253.887C253.887 73.8763 253.974 73.3303 254.147 72.871C254.329 72.4117 254.598 72.0563 254.953 71.805C255.308 71.545 255.759 71.415 256.305 71.415H256.344C256.89 71.415 257.341 71.5407 257.696 71.792C258.051 72.0433 258.316 72.3987 258.489 72.858C258.662 73.3173 258.749 73.8677 258.749 74.509H258.437C258.437 73.8763 258.524 73.3303 258.697 72.871C258.879 72.4117 259.148 72.0563 259.503 71.805C259.867 71.545 260.322 71.415 260.868 71.415H260.907C261.453 71.415 261.904 71.5407 262.259 71.792C262.623 72.0433 262.892 72.3987 263.065 72.858C263.247 73.3173 263.338 73.8677 263.338 74.509V78.5H262.363V74.288C262.363 73.6813 262.216 73.2003 261.921 72.845C261.626 72.4897 261.202 72.312 260.647 72.312C260.075 72.312 259.62 72.4983 259.282 72.871C258.953 73.235 258.788 73.729 258.788 74.353V78.5H257.813V74.288C257.813 73.6813 257.666 73.2003 257.371 72.845C257.076 72.4897 256.652 72.312 256.097 72.312C255.525 72.312 255.07 72.4983 254.732 72.871C254.403 73.235 254.238 73.729 254.238 74.353V78.5H253.263ZM269.954 78.5V76.433H269.798V73.989C269.798 73.4777 269.664 73.0877 269.395 72.819C269.126 72.5417 268.71 72.403 268.147 72.403C267.887 72.403 267.623 72.4073 267.354 72.416C267.094 72.4247 266.843 72.4377 266.6 72.455C266.366 72.4637 266.158 72.4767 265.976 72.494V71.636C266.167 71.6187 266.362 71.6013 266.561 71.584C266.76 71.5667 266.964 71.558 267.172 71.558C267.389 71.5493 267.597 71.545 267.796 71.545C268.498 71.545 269.061 71.6317 269.486 71.805C269.919 71.9783 270.236 72.2513 270.435 72.624C270.634 72.988 270.734 73.4733 270.734 74.08V78.5H269.954ZM267.627 78.682C267.142 78.682 266.713 78.5953 266.34 78.422C265.967 78.2487 265.677 77.9973 265.469 77.668C265.27 77.3387 265.17 76.94 265.17 76.472C265.17 76.0127 265.274 75.6227 265.482 75.302C265.699 74.9813 266.006 74.7387 266.405 74.574C266.812 74.4007 267.302 74.314 267.874 74.314H269.889V75.055H267.809C267.263 75.055 266.843 75.1893 266.548 75.458C266.262 75.718 266.119 76.0603 266.119 76.485C266.119 76.9183 266.271 77.265 266.574 77.525C266.877 77.7763 267.289 77.902 267.809 77.902C268.13 77.902 268.437 77.8457 268.732 77.733C269.027 77.6117 269.274 77.4123 269.473 77.135C269.672 76.849 269.781 76.459 269.798 75.965L270.084 76.368C270.049 76.8793 269.928 77.3083 269.72 77.655C269.512 77.993 269.23 78.2487 268.875 78.422C268.52 78.5953 268.104 78.682 267.627 78.682ZM273.234 78.5V69.01H274.209V78.5H273.234ZM272.233 69.803V69.01H274.209V69.803H272.233Z" fill="black"/>
<rect x="325" y="59" width="129" height="31" rx="15.5" fill="#C9F1FE" fill-opacity="0.6"/>
<path d="M351.21 75.029V74.158H353.42C353.931 74.158 354.347 74.0627 354.668 73.872C354.989 73.6727 355.227 73.4127 355.383 73.092C355.539 72.7627 355.617 72.3987 355.617 72C355.617 71.5927 355.539 71.2287 355.383 70.908C355.227 70.5787 354.989 70.3187 354.668 70.128C354.347 69.9373 353.931 69.842 353.42 69.842H351.21V68.971H353.251C354.014 68.971 354.642 69.0967 355.136 69.348C355.639 69.5993 356.011 69.946 356.254 70.388C356.505 70.83 356.631 71.337 356.631 71.909V72.091C356.631 72.6543 356.505 73.1613 356.254 73.612C356.011 74.054 355.639 74.4007 355.136 74.652C354.642 74.9033 354.014 75.029 353.251 75.029H351.21ZM350.482 78.5V68.971H351.47V78.5H350.482ZM358.475 78.5V71.623H359.255V74.496H359.177C359.177 73.4907 359.398 72.7497 359.84 72.273C360.282 71.7877 360.975 71.545 361.92 71.545H362.141V72.429H361.738C360.993 72.429 360.425 72.624 360.035 73.014C359.645 73.3953 359.45 73.9587 359.45 74.704V78.5H358.475ZM366.71 78.721C366.121 78.721 365.601 78.6213 365.15 78.422C364.708 78.214 364.331 77.941 364.019 77.603C363.716 77.2563 363.482 76.8707 363.317 76.446C363.161 76.0213 363.083 75.588 363.083 75.146V74.964C363.083 74.522 363.165 74.0887 363.33 73.664C363.495 73.2307 363.733 72.845 364.045 72.507C364.357 72.169 364.734 71.9003 365.176 71.701C365.627 71.493 366.138 71.389 366.71 71.389C367.291 71.389 367.802 71.493 368.244 71.701C368.695 71.9003 369.076 72.169 369.388 72.507C369.7 72.845 369.934 73.2307 370.09 73.664C370.255 74.0887 370.337 74.522 370.337 74.964V75.146C370.337 75.588 370.259 76.0213 370.103 76.446C369.947 76.8707 369.713 77.2563 369.401 77.603C369.098 77.941 368.721 78.214 368.27 78.422C367.819 78.6213 367.299 78.721 366.71 78.721ZM366.71 77.85C367.282 77.85 367.763 77.7243 368.153 77.473C368.552 77.213 368.855 76.875 369.063 76.459C369.271 76.0343 369.375 75.5663 369.375 75.055C369.375 74.535 369.267 74.067 369.05 73.651C368.842 73.2263 368.539 72.8927 368.14 72.65C367.741 72.3987 367.265 72.273 366.71 72.273C366.164 72.273 365.692 72.3987 365.293 72.65C364.894 72.8927 364.587 73.2263 364.37 73.651C364.162 74.067 364.058 74.535 364.058 75.055C364.058 75.5663 364.162 76.0343 364.37 76.459C364.578 76.875 364.877 77.213 365.267 77.473C365.666 77.7243 366.147 77.85 366.71 77.85ZM372.52 78.5V71.09C372.52 70.3707 372.707 69.8377 373.079 69.491C373.452 69.1443 374.011 68.971 374.756 68.971H375.627V69.803H374.574C374.21 69.803 373.933 69.8983 373.742 70.089C373.552 70.2797 373.456 70.5483 373.456 70.895V78.5H372.52ZM371.519 72.429V71.675H375.77V72.429H371.519ZM380.01 78.721C379.421 78.721 378.909 78.6213 378.476 78.422C378.043 78.214 377.687 77.941 377.41 77.603C377.133 77.2563 376.925 76.8707 376.786 76.446C376.656 76.0213 376.591 75.5837 376.591 75.133V74.951C376.591 74.509 376.656 74.0757 376.786 73.651C376.925 73.2263 377.133 72.845 377.41 72.507C377.687 72.169 378.034 71.9003 378.45 71.701C378.875 71.493 379.369 71.389 379.932 71.389C380.651 71.389 381.249 71.5493 381.726 71.87C382.211 72.1907 382.575 72.6023 382.818 73.105C383.061 73.599 383.182 74.132 383.182 74.704V75.211H377.033V74.457H382.506L382.259 74.834C382.259 74.3227 382.168 73.8763 381.986 73.495C381.813 73.105 381.553 72.8017 381.206 72.585C380.868 72.3597 380.443 72.247 379.932 72.247C379.395 72.247 378.948 72.3727 378.593 72.624C378.238 72.8753 377.969 73.209 377.787 73.625C377.614 74.041 377.527 74.5133 377.527 75.042C377.527 75.562 377.614 76.0387 377.787 76.472C377.969 76.8967 378.242 77.2347 378.606 77.486C378.979 77.7373 379.447 77.863 380.01 77.863C380.608 77.863 381.093 77.7287 381.466 77.46C381.839 77.1827 382.068 76.8577 382.155 76.485H383.065C382.978 76.9443 382.796 77.343 382.519 77.681C382.242 78.0103 381.891 78.266 381.466 78.448C381.041 78.63 380.556 78.721 380.01 78.721ZM387.23 78.695C386.346 78.695 385.666 78.5043 385.189 78.123C384.712 77.733 384.47 77.213 384.461 76.563H385.371C385.388 76.8923 385.536 77.1913 385.813 77.46C386.099 77.7287 386.571 77.863 387.23 77.863C387.845 77.863 388.305 77.7373 388.608 77.486C388.92 77.226 389.076 76.914 389.076 76.55C389.076 76.212 388.946 75.952 388.686 75.77C388.435 75.5793 388.066 75.458 387.581 75.406L386.801 75.328C386.177 75.2587 385.67 75.068 385.28 74.756C384.899 74.4353 384.708 73.9977 384.708 73.443C384.708 73.0357 384.812 72.6803 385.02 72.377C385.228 72.0737 385.518 71.8397 385.891 71.675C386.272 71.5017 386.719 71.415 387.23 71.415C387.967 71.415 388.565 71.5883 389.024 71.935C389.492 72.2817 389.73 72.7757 389.739 73.417H388.829C388.82 73.0877 388.682 72.8103 388.413 72.585C388.144 72.3597 387.75 72.247 387.23 72.247C386.693 72.247 386.29 72.364 386.021 72.598C385.761 72.832 385.631 73.118 385.631 73.456C385.631 73.742 385.731 73.9803 385.93 74.171C386.129 74.353 386.441 74.4657 386.866 74.509L387.646 74.587C388.339 74.665 388.903 74.8643 389.336 75.185C389.778 75.5057 389.999 75.965 389.999 76.563C389.999 76.9703 389.882 77.3387 389.648 77.668C389.423 77.9887 389.102 78.24 388.686 78.422C388.27 78.604 387.785 78.695 387.23 78.695ZM394.111 78.695C393.227 78.695 392.546 78.5043 392.07 78.123C391.593 77.733 391.35 77.213 391.342 76.563H392.252C392.269 76.8923 392.416 77.1913 392.694 77.46C392.98 77.7287 393.452 77.863 394.111 77.863C394.726 77.863 395.185 77.7373 395.489 77.486C395.801 77.226 395.957 76.914 395.957 76.55C395.957 76.212 395.827 75.952 395.567 75.77C395.315 75.5793 394.947 75.458 394.462 75.406L393.682 75.328C393.058 75.2587 392.551 75.068 392.161 74.756C391.779 74.4353 391.589 73.9977 391.589 73.443C391.589 73.0357 391.693 72.6803 391.901 72.377C392.109 72.0737 392.399 71.8397 392.772 71.675C393.153 71.5017 393.599 71.415 394.111 71.415C394.847 71.415 395.445 71.5883 395.905 71.935C396.373 72.2817 396.611 72.7757 396.62 73.417H395.71C395.701 73.0877 395.562 72.8103 395.294 72.585C395.025 72.3597 394.631 72.247 394.111 72.247C393.573 72.247 393.17 72.364 392.902 72.598C392.642 72.832 392.512 73.118 392.512 73.456C392.512 73.742 392.611 73.9803 392.811 74.171C393.01 74.353 393.322 74.4657 393.747 74.509L394.527 74.587C395.22 74.665 395.783 74.8643 396.217 75.185C396.659 75.5057 396.88 75.965 396.88 76.563C396.88 76.9703 396.763 77.3387 396.529 77.668C396.303 77.9887 395.983 78.24 395.567 78.422C395.151 78.604 394.665 78.695 394.111 78.695ZM399.185 78.5V71.623H400.147V78.5H399.185ZM398.08 72.403V71.623H400.147V72.403H398.08ZM399.393 70.349C399.159 70.349 398.981 70.2883 398.86 70.167C398.747 70.037 398.691 69.8767 398.691 69.686C398.691 69.4953 398.747 69.3393 398.86 69.218C398.981 69.088 399.159 69.023 399.393 69.023C399.627 69.023 399.8 69.088 399.913 69.218C400.025 69.3393 400.082 69.4953 400.082 69.686C400.082 69.8767 400.025 70.037 399.913 70.167C399.8 70.2883 399.627 70.349 399.393 70.349ZM405.786 78.721C405.197 78.721 404.677 78.6213 404.226 78.422C403.784 78.214 403.407 77.941 403.095 77.603C402.792 77.2563 402.558 76.8707 402.393 76.446C402.237 76.0213 402.159 75.588 402.159 75.146V74.964C402.159 74.522 402.242 74.0887 402.406 73.664C402.571 73.2307 402.809 72.845 403.121 72.507C403.433 72.169 403.81 71.9003 404.252 71.701C404.703 71.493 405.214 71.389 405.786 71.389C406.367 71.389 406.878 71.493 407.32 71.701C407.771 71.9003 408.152 72.169 408.464 72.507C408.776 72.845 409.01 73.2307 409.166 73.664C409.331 74.0887 409.413 74.522 409.413 74.964V75.146C409.413 75.588 409.335 76.0213 409.179 76.446C409.023 76.8707 408.789 77.2563 408.477 77.603C408.174 77.941 407.797 78.214 407.346 78.422C406.896 78.6213 406.376 78.721 405.786 78.721ZM405.786 77.85C406.358 77.85 406.839 77.7243 407.229 77.473C407.628 77.213 407.931 76.875 408.139 76.459C408.347 76.0343 408.451 75.5663 408.451 75.055C408.451 74.535 408.343 74.067 408.126 73.651C407.918 73.2263 407.615 72.8927 407.216 72.65C406.818 72.3987 406.341 72.273 405.786 72.273C405.24 72.273 404.768 72.3987 404.369 72.65C403.971 72.8927 403.663 73.2263 403.446 73.651C403.238 74.067 403.134 74.535 403.134 75.055C403.134 75.5663 403.238 76.0343 403.446 76.459C403.654 76.875 403.953 77.213 404.343 77.473C404.742 77.7243 405.223 77.85 405.786 77.85ZM411.402 78.5V71.623H412.182V74.509H412.026C412.026 73.8677 412.121 73.3173 412.312 72.858C412.502 72.3987 412.788 72.0433 413.17 71.792C413.551 71.5407 414.032 71.415 414.613 71.415H414.652C415.518 71.415 416.164 71.688 416.589 72.234C417.013 72.7713 417.226 73.5297 417.226 74.509V78.5H416.264V74.301C416.264 73.703 416.099 73.222 415.77 72.858C415.44 72.494 414.981 72.312 414.392 72.312C413.785 72.312 413.295 72.5027 412.923 72.884C412.559 73.2567 412.377 73.7507 412.377 74.366V78.5H411.402ZM423.84 78.5V76.433H423.684V73.989C423.684 73.4777 423.549 73.0877 423.281 72.819C423.012 72.5417 422.596 72.403 422.033 72.403C421.773 72.403 421.508 72.4073 421.24 72.416C420.98 72.4247 420.728 72.4377 420.486 72.455C420.252 72.4637 420.044 72.4767 419.862 72.494V71.636C420.052 71.6187 420.247 71.6013 420.447 71.584C420.646 71.5667 420.85 71.558 421.058 71.558C421.274 71.5493 421.482 71.545 421.682 71.545C422.384 71.545 422.947 71.6317 423.372 71.805C423.805 71.9783 424.121 72.2513 424.321 72.624C424.52 72.988 424.62 73.4733 424.62 74.08V78.5H423.84ZM421.513 78.682C421.027 78.682 420.598 78.5953 420.226 78.422C419.853 78.2487 419.563 77.9973 419.355 77.668C419.155 77.3387 419.056 76.94 419.056 76.472C419.056 76.0127 419.16 75.6227 419.368 75.302C419.584 74.9813 419.892 74.7387 420.291 74.574C420.698 74.4007 421.188 74.314 421.76 74.314H423.775V75.055H421.695C421.149 75.055 420.728 75.1893 420.434 75.458C420.148 75.718 420.005 76.0603 420.005 76.485C420.005 76.9183 420.156 77.265 420.46 77.525C420.763 77.7763 421.175 77.902 421.695 77.902C422.015 77.902 422.323 77.8457 422.618 77.733C422.912 77.6117 423.159 77.4123 423.359 77.135C423.558 76.849 423.666 76.459 423.684 75.965L423.97 76.368C423.935 76.8793 423.814 77.3083 423.606 77.655C423.398 77.993 423.116 78.2487 422.761 78.422C422.405 78.5953 421.989 78.682 421.513 78.682ZM427.12 78.5V69.01H428.095V78.5H427.12ZM426.119 69.803V69.01H428.095V69.803H426.119Z" fill="black"/>
<rect x="62" y="114" width="118" height="31" rx="15.5" fill="#C9F1FE" fill-opacity="0.6"/>
<path d="M88.21 130.029V129.158H90.42C90.9313 129.158 91.3473 129.063 91.668 128.872C91.9887 128.673 92.227 128.413 92.383 128.092C92.539 127.763 92.617 127.399 92.617 127C92.617 126.593 92.539 126.229 92.383 125.908C92.227 125.579 91.9887 125.319 91.668 125.128C91.3473 124.937 90.9313 124.842 90.42 124.842H88.21V123.971H90.251C91.0137 123.971 91.642 124.097 92.136 124.348C92.6387 124.599 93.0113 124.946 93.254 125.388C93.5053 125.83 93.631 126.337 93.631 126.909V127.091C93.631 127.654 93.5053 128.161 93.254 128.612C93.0113 129.054 92.6387 129.401 92.136 129.652C91.642 129.903 91.0137 130.029 90.251 130.029H88.21ZM87.482 133.5V123.971H88.47V133.5H87.482ZM98.1828 133.721C97.5935 133.721 97.0822 133.621 96.6488 133.422C96.2155 133.214 95.8602 132.941 95.5828 132.603C95.3055 132.256 95.0975 131.871 94.9588 131.446C94.8288 131.021 94.7638 130.584 94.7638 130.133V129.951C94.7638 129.509 94.8288 129.076 94.9588 128.651C95.0975 128.226 95.3055 127.845 95.5828 127.507C95.8602 127.169 96.2068 126.9 96.6228 126.701C97.0475 126.493 97.5415 126.389 98.1048 126.389C98.8242 126.389 99.4222 126.549 99.8988 126.87C100.384 127.191 100.748 127.602 100.991 128.105C101.233 128.599 101.355 129.132 101.355 129.704V130.211H95.2058V129.457H100.679L100.432 129.834C100.432 129.323 100.341 128.876 100.159 128.495C99.9855 128.105 99.7255 127.802 99.3788 127.585C99.0408 127.36 98.6162 127.247 98.1048 127.247C97.5675 127.247 97.1212 127.373 96.7658 127.624C96.4105 127.875 96.1418 128.209 95.9598 128.625C95.7865 129.041 95.6998 129.513 95.6998 130.042C95.6998 130.562 95.7865 131.039 95.9598 131.472C96.1418 131.897 96.4148 132.235 96.7788 132.486C97.1515 132.737 97.6195 132.863 98.1828 132.863C98.7808 132.863 99.2662 132.729 99.6388 132.46C100.011 132.183 100.241 131.858 100.328 131.485H101.238C101.151 131.944 100.969 132.343 100.692 132.681C100.414 133.01 100.063 133.266 99.6388 133.448C99.2142 133.63 98.7288 133.721 98.1828 133.721ZM103.232 133.5V126.623H104.012V129.496H103.934C103.934 128.491 104.155 127.75 104.597 127.273C105.039 126.788 105.732 126.545 106.677 126.545H106.898V127.429H106.495C105.749 127.429 105.182 127.624 104.792 128.014C104.402 128.395 104.207 128.959 104.207 129.704V133.5H103.232ZM110.646 133.695C109.762 133.695 109.082 133.504 108.605 133.123C108.128 132.733 107.886 132.213 107.877 131.563H108.787C108.804 131.892 108.952 132.191 109.229 132.46C109.515 132.729 109.987 132.863 110.646 132.863C111.261 132.863 111.721 132.737 112.024 132.486C112.336 132.226 112.492 131.914 112.492 131.55C112.492 131.212 112.362 130.952 112.102 130.77C111.851 130.579 111.482 130.458 110.997 130.406L110.217 130.328C109.593 130.259 109.086 130.068 108.696 129.756C108.315 129.435 108.124 128.998 108.124 128.443C108.124 128.036 108.228 127.68 108.436 127.377C108.644 127.074 108.934 126.84 109.307 126.675C109.688 126.502 110.135 126.415 110.646 126.415C111.383 126.415 111.981 126.588 112.44 126.935C112.908 127.282 113.146 127.776 113.155 128.417H112.245C112.236 128.088 112.098 127.81 111.829 127.585C111.56 127.36 111.166 127.247 110.646 127.247C110.109 127.247 109.706 127.364 109.437 127.598C109.177 127.832 109.047 128.118 109.047 128.456C109.047 128.742 109.147 128.98 109.346 129.171C109.545 129.353 109.857 129.466 110.282 129.509L111.062 129.587C111.755 129.665 112.319 129.864 112.752 130.185C113.194 130.506 113.415 130.965 113.415 131.563C113.415 131.97 113.298 132.339 113.064 132.668C112.839 132.989 112.518 133.24 112.102 133.422C111.686 133.604 111.201 133.695 110.646 133.695ZM117.735 133.695C116.911 133.695 116.283 133.431 115.85 132.902C115.416 132.365 115.2 131.619 115.2 130.666V126.61H116.162V130.861C116.162 131.459 116.318 131.936 116.63 132.291C116.95 132.638 117.392 132.811 117.956 132.811C118.545 132.811 119.013 132.625 119.36 132.252C119.715 131.879 119.893 131.381 119.893 130.757V126.61H120.868V133.5H120.088V130.627H120.244C120.244 131.268 120.153 131.819 119.971 132.278C119.789 132.729 119.516 133.08 119.152 133.331C118.788 133.574 118.328 133.695 117.774 133.695H117.735ZM127.603 133.5V131.433H127.447V128.989C127.447 128.478 127.313 128.088 127.044 127.819C126.776 127.542 126.36 127.403 125.796 127.403C125.536 127.403 125.272 127.407 125.003 127.416C124.743 127.425 124.492 127.438 124.249 127.455C124.015 127.464 123.807 127.477 123.625 127.494V126.636C123.816 126.619 124.011 126.601 124.21 126.584C124.41 126.567 124.613 126.558 124.821 126.558C125.038 126.549 125.246 126.545 125.445 126.545C126.147 126.545 126.711 126.632 127.135 126.805C127.569 126.978 127.885 127.251 128.084 127.624C128.284 127.988 128.383 128.473 128.383 129.08V133.5H127.603ZM125.276 133.682C124.791 133.682 124.362 133.595 123.989 133.422C123.617 133.249 123.326 132.997 123.118 132.668C122.919 132.339 122.819 131.94 122.819 131.472C122.819 131.013 122.923 130.623 123.131 130.302C123.348 129.981 123.656 129.739 124.054 129.574C124.462 129.401 124.951 129.314 125.523 129.314H127.538V130.055H125.458C124.912 130.055 124.492 130.189 124.197 130.458C123.911 130.718 123.768 131.06 123.768 131.485C123.768 131.918 123.92 132.265 124.223 132.525C124.527 132.776 124.938 132.902 125.458 132.902C125.779 132.902 126.087 132.846 126.381 132.733C126.676 132.612 126.923 132.412 127.122 132.135C127.322 131.849 127.43 131.459 127.447 130.965L127.733 131.368C127.699 131.879 127.577 132.308 127.369 132.655C127.161 132.993 126.88 133.249 126.524 133.422C126.169 133.595 125.753 133.682 125.276 133.682ZM132.99 133.695C132.106 133.695 131.425 133.504 130.949 133.123C130.472 132.733 130.229 132.213 130.221 131.563H131.131C131.148 131.892 131.295 132.191 131.573 132.46C131.859 132.729 132.331 132.863 132.99 132.863C133.605 132.863 134.064 132.737 134.368 132.486C134.68 132.226 134.836 131.914 134.836 131.55C134.836 131.212 134.706 130.952 134.446 130.77C134.194 130.579 133.826 130.458 133.341 130.406L132.561 130.328C131.937 130.259 131.43 130.068 131.04 129.756C130.658 129.435 130.468 128.998 130.468 128.443C130.468 128.036 130.572 127.68 130.78 127.377C130.988 127.074 131.278 126.84 131.651 126.675C132.032 126.502 132.478 126.415 132.99 126.415C133.726 126.415 134.324 126.588 134.784 126.935C135.252 127.282 135.49 127.776 135.499 128.417H134.589C134.58 128.088 134.441 127.81 134.173 127.585C133.904 127.36 133.51 127.247 132.99 127.247C132.452 127.247 132.049 127.364 131.781 127.598C131.521 127.832 131.391 128.118 131.391 128.456C131.391 128.742 131.49 128.98 131.69 129.171C131.889 129.353 132.201 129.466 132.626 129.509L133.406 129.587C134.099 129.665 134.662 129.864 135.096 130.185C135.538 130.506 135.759 130.965 135.759 131.563C135.759 131.97 135.642 132.339 135.408 132.668C135.182 132.989 134.862 133.24 134.446 133.422C134.03 133.604 133.544 133.695 132.99 133.695ZM138.063 133.5V126.623H139.025V133.5H138.063ZM136.958 127.403V126.623H139.025V127.403H136.958ZM138.271 125.349C138.037 125.349 137.86 125.288 137.738 125.167C137.626 125.037 137.569 124.877 137.569 124.686C137.569 124.495 137.626 124.339 137.738 124.218C137.86 124.088 138.037 124.023 138.271 124.023C138.505 124.023 138.679 124.088 138.791 124.218C138.904 124.339 138.96 124.495 138.96 124.686C138.96 124.877 138.904 125.037 138.791 125.167C138.679 125.288 138.505 125.349 138.271 125.349ZM143.118 133.5L140.7 126.623H141.701L144.093 133.5H143.118ZM143.378 133.5V132.707H144.613V133.5H143.378ZM143.911 133.5L146.004 126.623H146.966L144.834 133.5H143.911ZM151.452 133.721C150.863 133.721 150.352 133.621 149.918 133.422C149.485 133.214 149.13 132.941 148.852 132.603C148.575 132.256 148.367 131.871 148.228 131.446C148.098 131.021 148.033 130.584 148.033 130.133V129.951C148.033 129.509 148.098 129.076 148.228 128.651C148.367 128.226 148.575 127.845 148.852 127.507C149.13 127.169 149.476 126.9 149.892 126.701C150.317 126.493 150.811 126.389 151.374 126.389C152.094 126.389 152.692 126.549 153.168 126.87C153.654 127.191 154.018 127.602 154.26 128.105C154.503 128.599 154.624 129.132 154.624 129.704V130.211H148.475V129.457H153.948L153.701 129.834C153.701 129.323 153.61 128.876 153.428 128.495C153.255 128.105 152.995 127.802 152.648 127.585C152.31 127.36 151.886 127.247 151.374 127.247C150.837 127.247 150.391 127.373 150.035 127.624C149.68 127.875 149.411 128.209 149.229 128.625C149.056 129.041 148.969 129.513 148.969 130.042C148.969 130.562 149.056 131.039 149.229 131.472C149.411 131.897 149.684 132.235 150.048 132.486C150.421 132.737 150.889 132.863 151.452 132.863C152.05 132.863 152.536 132.729 152.908 132.46C153.281 132.183 153.511 131.858 153.597 131.485H154.507C154.421 131.944 154.239 132.343 153.961 132.681C153.684 133.01 153.333 133.266 152.908 133.448C152.484 133.63 151.998 133.721 151.452 133.721Z" fill="black"/>
<rect x="205" y="114" width="124" height="31" rx="15.5" fill="#C9F1FE" fill-opacity="0.6"/>
<path d="M230.482 133.5V124.01H231.47V133.5H230.482ZM231.236 133.5V132.603H235.981V133.5H231.236ZM231.236 129.119V128.235H235.539V129.119H231.236ZM231.236 124.907V124.01H235.838V124.907H231.236ZM238.094 133.5V126.61H238.874V129.509H238.718C238.718 128.876 238.805 128.33 238.978 127.871C239.16 127.412 239.429 127.056 239.784 126.805C240.139 126.545 240.59 126.415 241.136 126.415H241.175C241.721 126.415 242.172 126.541 242.527 126.792C242.882 127.043 243.147 127.399 243.32 127.858C243.493 128.317 243.58 128.868 243.58 129.509H243.268C243.268 128.876 243.355 128.33 243.528 127.871C243.71 127.412 243.979 127.056 244.334 126.805C244.698 126.545 245.153 126.415 245.699 126.415H245.738C246.284 126.415 246.735 126.541 247.09 126.792C247.454 127.043 247.723 127.399 247.896 127.858C248.078 128.317 248.169 128.868 248.169 129.509V133.5H247.194V129.288C247.194 128.681 247.047 128.2 246.752 127.845C246.457 127.49 246.033 127.312 245.478 127.312C244.906 127.312 244.451 127.498 244.113 127.871C243.784 128.235 243.619 128.729 243.619 129.353V133.5H242.644V129.288C242.644 128.681 242.497 128.2 242.202 127.845C241.907 127.49 241.483 127.312 240.928 127.312C240.356 127.312 239.901 127.498 239.563 127.871C239.234 128.235 239.069 128.729 239.069 129.353V133.5H238.094ZM250.599 136.1V126.623H251.379V129.574L251.145 129.6C251.18 128.907 251.327 128.322 251.587 127.845C251.856 127.368 252.215 127.009 252.666 126.766C253.125 126.515 253.637 126.389 254.2 126.389C254.703 126.389 255.158 126.489 255.565 126.688C255.981 126.879 256.332 127.143 256.618 127.481C256.913 127.81 257.134 128.192 257.281 128.625C257.437 129.05 257.515 129.496 257.515 129.964V130.146C257.515 130.614 257.437 131.065 257.281 131.498C257.125 131.923 256.9 132.304 256.605 132.642C256.319 132.971 255.968 133.236 255.552 133.435C255.145 133.626 254.685 133.721 254.174 133.721C253.628 133.721 253.125 133.6 252.666 133.357C252.215 133.106 251.847 132.737 251.561 132.252C251.284 131.767 251.132 131.169 251.106 130.458L251.574 131.433V136.1H250.599ZM254.044 132.863C254.564 132.863 255.01 132.742 255.383 132.499C255.756 132.248 256.042 131.91 256.241 131.485C256.44 131.052 256.54 130.575 256.54 130.055C256.54 129.518 256.436 129.041 256.228 128.625C256.029 128.2 255.743 127.867 255.37 127.624C254.997 127.373 254.555 127.247 254.044 127.247C253.576 127.247 253.151 127.351 252.77 127.559C252.389 127.767 252.085 128.062 251.86 128.443C251.643 128.816 251.535 129.258 251.535 129.769V130.406C251.535 130.891 251.643 131.32 251.86 131.693C252.085 132.057 252.389 132.343 252.77 132.551C253.151 132.759 253.576 132.863 254.044 132.863ZM263.672 133.5V131.433H263.516V128.989C263.516 128.478 263.381 128.088 263.113 127.819C262.844 127.542 262.428 127.403 261.865 127.403C261.605 127.403 261.34 127.407 261.072 127.416C260.812 127.425 260.56 127.438 260.318 127.455C260.084 127.464 259.876 127.477 259.694 127.494V126.636C259.884 126.619 260.079 126.601 260.279 126.584C260.478 126.567 260.682 126.558 260.89 126.558C261.106 126.549 261.314 126.545 261.514 126.545C262.216 126.545 262.779 126.632 263.204 126.805C263.637 126.978 263.953 127.251 264.153 127.624C264.352 127.988 264.452 128.473 264.452 129.08V133.5H263.672ZM261.345 133.682C260.859 133.682 260.43 133.595 260.058 133.422C259.685 133.249 259.395 132.997 259.187 132.668C258.987 132.339 258.888 131.94 258.888 131.472C258.888 131.013 258.992 130.623 259.2 130.302C259.416 129.981 259.724 129.739 260.123 129.574C260.53 129.401 261.02 129.314 261.592 129.314H263.607V130.055H261.527C260.981 130.055 260.56 130.189 260.266 130.458C259.98 130.718 259.837 131.06 259.837 131.485C259.837 131.918 259.988 132.265 260.292 132.525C260.595 132.776 261.007 132.902 261.527 132.902C261.847 132.902 262.155 132.846 262.45 132.733C262.744 132.612 262.991 132.412 263.191 132.135C263.39 131.849 263.498 131.459 263.516 130.965L263.802 131.368C263.767 131.879 263.646 132.308 263.438 132.655C263.23 132.993 262.948 133.249 262.593 133.422C262.237 133.595 261.821 133.682 261.345 133.682ZM269.383 133.578C268.906 133.578 268.495 133.509 268.148 133.37C267.801 133.231 267.533 132.997 267.342 132.668C267.151 132.33 267.056 131.879 267.056 131.316V124.452H267.992V131.459C267.992 131.858 268.1 132.165 268.317 132.382C268.534 132.59 268.841 132.694 269.24 132.694H270.475V133.578H269.383ZM265.821 127.364V126.623H270.475V127.364H265.821ZM272.359 133.5V124.01H273.334V129.379L273.048 129.6C273.048 128.959 273.139 128.4 273.321 127.923C273.511 127.446 273.793 127.078 274.166 126.818C274.547 126.549 275.024 126.415 275.596 126.415H275.648C276.48 126.415 277.108 126.688 277.533 127.234C277.966 127.78 278.183 128.538 278.183 129.509V133.5H277.221V129.301C277.221 128.686 277.052 128.2 276.714 127.845C276.376 127.49 275.921 127.312 275.349 127.312C274.733 127.312 274.244 127.511 273.88 127.91C273.516 128.3 273.334 128.816 273.334 129.457V133.5H272.359ZM283.484 133.721C282.894 133.721 282.383 133.621 281.95 133.422C281.516 133.214 281.161 132.941 280.884 132.603C280.606 132.256 280.398 131.871 280.26 131.446C280.13 131.021 280.065 130.584 280.065 130.133V129.951C280.065 129.509 280.13 129.076 280.26 128.651C280.398 128.226 280.606 127.845 280.884 127.507C281.161 127.169 281.508 126.9 281.924 126.701C282.348 126.493 282.842 126.389 283.406 126.389C284.125 126.389 284.723 126.549 285.2 126.87C285.685 127.191 286.049 127.602 286.292 128.105C286.534 128.599 286.656 129.132 286.656 129.704V130.211H280.507V129.457H285.98L285.733 129.834C285.733 129.323 285.642 128.876 285.46 128.495C285.286 128.105 285.026 127.802 284.68 127.585C284.342 127.36 283.917 127.247 283.406 127.247C282.868 127.247 282.422 127.373 282.067 127.624C281.711 127.875 281.443 128.209 281.261 128.625C281.087 129.041 281.001 129.513 281.001 130.042C281.001 130.562 281.087 131.039 281.261 131.472C281.443 131.897 281.716 132.235 282.08 132.486C282.452 132.737 282.92 132.863 283.484 132.863C284.082 132.863 284.567 132.729 284.94 132.46C285.312 132.183 285.542 131.858 285.629 131.485H286.539C286.452 131.944 286.27 132.343 285.993 132.681C285.715 133.01 285.364 133.266 284.94 133.448C284.515 133.63 284.03 133.721 283.484 133.721ZM291.028 133.578C290.552 133.578 290.14 133.509 289.793 133.37C289.447 133.231 289.178 132.997 288.987 132.668C288.797 132.33 288.701 131.879 288.701 131.316V124.452H289.637V131.459C289.637 131.858 289.746 132.165 289.962 132.382C290.179 132.59 290.487 132.694 290.885 132.694H292.12V133.578H291.028ZM287.466 127.364V126.623H292.12V127.364H287.466ZM294.368 133.5V126.623H295.33V133.5H294.368ZM293.263 127.403V126.623H295.33V127.403H293.263ZM294.576 125.349C294.342 125.349 294.164 125.288 294.043 125.167C293.93 125.037 293.874 124.877 293.874 124.686C293.874 124.495 293.93 124.339 294.043 124.218C294.164 124.088 294.342 124.023 294.576 124.023C294.81 124.023 294.983 124.088 295.096 124.218C295.209 124.339 295.265 124.495 295.265 124.686C295.265 124.877 295.209 125.037 295.096 125.167C294.983 125.288 294.81 125.349 294.576 125.349ZM300.788 133.721C300.207 133.721 299.7 133.621 299.267 133.422C298.842 133.214 298.487 132.937 298.201 132.59C297.915 132.235 297.698 131.845 297.551 131.42C297.412 130.995 297.343 130.566 297.343 130.133V129.951C297.343 129.509 297.412 129.08 297.551 128.664C297.698 128.239 297.915 127.858 298.201 127.52C298.487 127.173 298.842 126.9 299.267 126.701C299.7 126.493 300.199 126.389 300.762 126.389C301.334 126.389 301.841 126.493 302.283 126.701C302.734 126.909 303.098 127.204 303.375 127.585C303.652 127.966 303.817 128.417 303.869 128.937H302.933C302.855 128.46 302.63 128.066 302.257 127.754C301.893 127.433 301.395 127.273 300.762 127.273C300.216 127.273 299.761 127.399 299.397 127.65C299.042 127.893 298.773 128.226 298.591 128.651C298.409 129.067 298.318 129.531 298.318 130.042C298.318 130.545 298.409 131.013 298.591 131.446C298.773 131.871 299.046 132.213 299.41 132.473C299.774 132.724 300.233 132.85 300.788 132.85C301.213 132.85 301.581 132.776 301.893 132.629C302.214 132.473 302.469 132.265 302.66 132.005C302.859 131.745 302.976 131.459 303.011 131.147H303.947C303.912 131.667 303.748 132.122 303.453 132.512C303.167 132.893 302.794 133.192 302.335 133.409C301.876 133.617 301.36 133.721 300.788 133.721Z" fill="black"/>
<rect x="354" y="114" width="117" height="31" rx="15.5" fill="#C9F1FE" fill-opacity="0.6"/>
<path d="M386.008 133.5V124.01H386.996V133.5H386.008ZM379.482 133.5V124.01H380.47V133.5H379.482ZM380.249 129.236V128.352H386.229V129.236H380.249ZM392.114 133.695C391.29 133.695 390.662 133.431 390.229 132.902C389.795 132.365 389.579 131.619 389.579 130.666V126.61H390.541V130.861C390.541 131.459 390.697 131.936 391.009 132.291C391.329 132.638 391.771 132.811 392.335 132.811C392.924 132.811 393.392 132.625 393.739 132.252C394.094 131.879 394.272 131.381 394.272 130.757V126.61H395.247V133.5H394.467V130.627H394.623C394.623 131.268 394.532 131.819 394.35 132.278C394.168 132.729 393.895 133.08 393.531 133.331C393.167 133.574 392.707 133.695 392.153 133.695H392.114ZM397.796 133.5V126.61H398.576V129.509H398.42C398.42 128.876 398.507 128.33 398.68 127.871C398.862 127.412 399.131 127.056 399.486 126.805C399.841 126.545 400.292 126.415 400.838 126.415H400.877C401.423 126.415 401.874 126.541 402.229 126.792C402.584 127.043 402.849 127.399 403.022 127.858C403.195 128.317 403.282 128.868 403.282 129.509H402.97C402.97 128.876 403.057 128.33 403.23 127.871C403.412 127.412 403.681 127.056 404.036 126.805C404.4 126.545 404.855 126.415 405.401 126.415H405.44C405.986 126.415 406.437 126.541 406.792 126.792C407.156 127.043 407.425 127.399 407.598 127.858C407.78 128.317 407.871 128.868 407.871 129.509V133.5H406.896V129.288C406.896 128.681 406.749 128.2 406.454 127.845C406.159 127.49 405.735 127.312 405.18 127.312C404.608 127.312 404.153 127.498 403.815 127.871C403.486 128.235 403.321 128.729 403.321 129.353V133.5H402.346V129.288C402.346 128.681 402.199 128.2 401.904 127.845C401.609 127.49 401.185 127.312 400.63 127.312C400.058 127.312 399.603 127.498 399.265 127.871C398.936 128.235 398.771 128.729 398.771 129.353V133.5H397.796ZM413.382 133.721C412.793 133.721 412.273 133.621 411.822 133.422C411.38 133.214 411.003 132.941 410.691 132.603C410.388 132.256 410.154 131.871 409.989 131.446C409.833 131.021 409.755 130.588 409.755 130.146V129.964C409.755 129.522 409.837 129.089 410.002 128.664C410.167 128.231 410.405 127.845 410.717 127.507C411.029 127.169 411.406 126.9 411.848 126.701C412.299 126.493 412.81 126.389 413.382 126.389C413.963 126.389 414.474 126.493 414.916 126.701C415.367 126.9 415.748 127.169 416.06 127.507C416.372 127.845 416.606 128.231 416.762 128.664C416.927 129.089 417.009 129.522 417.009 129.964V130.146C417.009 130.588 416.931 131.021 416.775 131.446C416.619 131.871 416.385 132.256 416.073 132.603C415.77 132.941 415.393 133.214 414.942 133.422C414.491 133.621 413.971 133.721 413.382 133.721ZM413.382 132.85C413.954 132.85 414.435 132.724 414.825 132.473C415.224 132.213 415.527 131.875 415.735 131.459C415.943 131.034 416.047 130.566 416.047 130.055C416.047 129.535 415.939 129.067 415.722 128.651C415.514 128.226 415.211 127.893 414.812 127.65C414.413 127.399 413.937 127.273 413.382 127.273C412.836 127.273 412.364 127.399 411.965 127.65C411.566 127.893 411.259 128.226 411.042 128.651C410.834 129.067 410.73 129.535 410.73 130.055C410.73 130.566 410.834 131.034 411.042 131.459C411.25 131.875 411.549 132.213 411.939 132.473C412.338 132.724 412.819 132.85 413.382 132.85ZM418.997 133.5V126.623H419.777V129.496H419.699C419.699 128.491 419.92 127.75 420.362 127.273C420.804 126.788 421.498 126.545 422.442 126.545H422.663V127.429H422.26C421.515 127.429 420.947 127.624 420.557 128.014C420.167 128.395 419.972 128.959 419.972 129.704V133.5H418.997ZM427.233 133.721C426.643 133.721 426.123 133.621 425.673 133.422C425.231 133.214 424.854 132.941 424.542 132.603C424.238 132.256 424.004 131.871 423.84 131.446C423.684 131.021 423.606 130.588 423.606 130.146V129.964C423.606 129.522 423.688 129.089 423.853 128.664C424.017 128.231 424.256 127.845 424.568 127.507C424.88 127.169 425.257 126.9 425.699 126.701C426.149 126.493 426.661 126.389 427.233 126.389C427.813 126.389 428.325 126.493 428.767 126.701C429.217 126.9 429.599 127.169 429.911 127.507C430.223 127.845 430.457 128.231 430.613 128.664C430.777 129.089 430.86 129.522 430.86 129.964V130.146C430.86 130.588 430.782 131.021 430.626 131.446C430.47 131.871 430.236 132.256 429.924 132.603C429.62 132.941 429.243 133.214 428.793 133.422C428.342 133.621 427.822 133.721 427.233 133.721ZM427.233 132.85C427.805 132.85 428.286 132.724 428.676 132.473C429.074 132.213 429.378 131.875 429.586 131.459C429.794 131.034 429.898 130.566 429.898 130.055C429.898 129.535 429.789 129.067 429.573 128.651C429.365 128.226 429.061 127.893 428.663 127.65C428.264 127.399 427.787 127.273 427.233 127.273C426.687 127.273 426.214 127.399 425.816 127.65C425.417 127.893 425.109 128.226 424.893 128.651C424.685 129.067 424.581 129.535 424.581 130.055C424.581 130.566 424.685 131.034 424.893 131.459C425.101 131.875 425.4 132.213 425.79 132.473C426.188 132.724 426.669 132.85 427.233 132.85ZM435.227 133.695C434.404 133.695 433.775 133.431 433.342 132.902C432.909 132.365 432.692 131.619 432.692 130.666V126.61H433.654V130.861C433.654 131.459 433.81 131.936 434.122 132.291C434.443 132.638 434.885 132.811 435.448 132.811C436.037 132.811 436.505 132.625 436.852 132.252C437.207 131.879 437.385 131.381 437.385 130.757V126.61H438.36V133.5H437.58V130.627H437.736C437.736 131.268 437.645 131.819 437.463 132.278C437.281 132.729 437.008 133.08 436.644 133.331C436.28 133.574 435.821 133.695 435.266 133.695H435.227ZM443.08 133.695C442.196 133.695 441.516 133.504 441.039 133.123C440.563 132.733 440.32 132.213 440.311 131.563H441.221C441.239 131.892 441.386 132.191 441.663 132.46C441.949 132.729 442.422 132.863 443.08 132.863C443.696 132.863 444.155 132.737 444.458 132.486C444.77 132.226 444.926 131.914 444.926 131.55C444.926 131.212 444.796 130.952 444.536 130.77C444.285 130.579 443.917 130.458 443.431 130.406L442.651 130.328C442.027 130.259 441.52 130.068 441.13 129.756C440.749 129.435 440.558 128.998 440.558 128.443C440.558 128.036 440.662 127.68 440.87 127.377C441.078 127.074 441.369 126.84 441.741 126.675C442.123 126.502 442.569 126.415 443.08 126.415C443.817 126.415 444.415 126.588 444.874 126.935C445.342 127.282 445.581 127.776 445.589 128.417H444.679C444.671 128.088 444.532 127.81 444.263 127.585C443.995 127.36 443.6 127.247 443.08 127.247C442.543 127.247 442.14 127.364 441.871 127.598C441.611 127.832 441.481 128.118 441.481 128.456C441.481 128.742 441.581 128.98 441.78 129.171C441.98 129.353 442.292 129.466 442.716 129.509L443.496 129.587C444.19 129.665 444.753 129.864 445.186 130.185C445.628 130.506 445.849 130.965 445.849 131.563C445.849 131.97 445.732 132.339 445.498 132.668C445.273 132.989 444.952 133.24 444.536 133.422C444.12 133.604 443.635 133.695 443.08 133.695Z" fill="black"/>
<rect x="88.5" y="169" width="100" height="31" rx="15.5" fill="#C9F1FE" fill-opacity="0.6"/>
<path d="M113.982 188.5V179.01H114.97V188.5H113.982ZM114.71 184.119V183.222L118.909 183.209V184.106L114.71 184.119ZM114.71 179.894V179.01H119.156V179.894H114.71ZM120.921 188.5V181.623H121.701V184.496H121.623C121.623 183.491 121.844 182.75 122.286 182.273C122.728 181.788 123.421 181.545 124.366 181.545H124.587V182.429H124.184C123.439 182.429 122.871 182.624 122.481 183.014C122.091 183.395 121.896 183.959 121.896 184.704V188.5H120.921ZM126.528 188.5V181.623H127.49V188.5H126.528ZM125.423 182.403V181.623H127.49V182.403H125.423ZM126.736 180.349C126.502 180.349 126.325 180.288 126.203 180.167C126.091 180.037 126.034 179.877 126.034 179.686C126.034 179.495 126.091 179.339 126.203 179.218C126.325 179.088 126.502 179.023 126.736 179.023C126.97 179.023 127.144 179.088 127.256 179.218C127.369 179.339 127.425 179.495 127.425 179.686C127.425 179.877 127.369 180.037 127.256 180.167C127.144 180.288 126.97 180.349 126.736 180.349ZM132.922 188.721C132.333 188.721 131.821 188.621 131.388 188.422C130.955 188.214 130.599 187.941 130.322 187.603C130.045 187.256 129.837 186.871 129.698 186.446C129.568 186.021 129.503 185.584 129.503 185.133V184.951C129.503 184.509 129.568 184.076 129.698 183.651C129.837 183.226 130.045 182.845 130.322 182.507C130.599 182.169 130.946 181.9 131.362 181.701C131.787 181.493 132.281 181.389 132.844 181.389C133.563 181.389 134.161 181.549 134.638 181.87C135.123 182.191 135.487 182.602 135.73 183.105C135.973 183.599 136.094 184.132 136.094 184.704V185.211H129.945V184.457H135.418L135.171 184.834C135.171 184.323 135.08 183.876 134.898 183.495C134.725 183.105 134.465 182.802 134.118 182.585C133.78 182.36 133.355 182.247 132.844 182.247C132.307 182.247 131.86 182.373 131.505 182.624C131.15 182.875 130.881 183.209 130.699 183.625C130.526 184.041 130.439 184.513 130.439 185.042C130.439 185.562 130.526 186.039 130.699 186.472C130.881 186.897 131.154 187.235 131.518 187.486C131.891 187.737 132.359 187.863 132.922 187.863C133.52 187.863 134.005 187.729 134.378 187.46C134.751 187.183 134.98 186.858 135.067 186.485H135.977C135.89 186.944 135.708 187.343 135.431 187.681C135.154 188.01 134.803 188.266 134.378 188.448C133.953 188.63 133.468 188.721 132.922 188.721ZM137.971 188.5V181.623H138.751V184.509H138.595C138.595 183.868 138.69 183.317 138.881 182.858C139.072 182.399 139.358 182.043 139.739 181.792C140.12 181.541 140.601 181.415 141.182 181.415H141.221C142.088 181.415 142.733 181.688 143.158 182.234C143.583 182.771 143.795 183.53 143.795 184.509V188.5H142.833V184.301C142.833 183.703 142.668 183.222 142.339 182.858C142.01 182.494 141.55 182.312 140.961 182.312C140.354 182.312 139.865 182.503 139.492 182.884C139.128 183.257 138.946 183.751 138.946 184.366V188.5H137.971ZM149.044 188.721C148.541 188.721 148.082 188.63 147.666 188.448C147.259 188.257 146.903 187.997 146.6 187.668C146.305 187.33 146.076 186.949 145.911 186.524C145.755 186.091 145.677 185.631 145.677 185.146V184.964C145.677 184.496 145.755 184.05 145.911 183.625C146.067 183.192 146.288 182.81 146.574 182.481C146.869 182.143 147.22 181.879 147.627 181.688C148.043 181.489 148.507 181.389 149.018 181.389C149.599 181.389 150.11 181.515 150.552 181.766C150.994 182.017 151.349 182.381 151.618 182.858C151.887 183.326 152.03 183.902 152.047 184.587L151.618 183.781V179.01H152.593V188.5H151.813V185.445H152.125C152.108 186.164 151.956 186.771 151.67 187.265C151.393 187.75 151.024 188.114 150.565 188.357C150.114 188.6 149.607 188.721 149.044 188.721ZM149.174 187.863C149.642 187.863 150.062 187.759 150.435 187.551C150.816 187.343 151.115 187.048 151.332 186.667C151.549 186.277 151.657 185.831 151.657 185.328V184.704C151.657 184.219 151.549 183.794 151.332 183.43C151.115 183.057 150.816 182.767 150.435 182.559C150.062 182.351 149.638 182.247 149.161 182.247C148.65 182.247 148.203 182.373 147.822 182.624C147.449 182.867 147.159 183.2 146.951 183.625C146.752 184.05 146.652 184.526 146.652 185.055C146.652 185.601 146.756 186.086 146.964 186.511C147.172 186.936 147.467 187.269 147.848 187.512C148.229 187.746 148.671 187.863 149.174 187.863ZM155.175 188.5V179.01H156.15V188.5H155.175ZM154.174 179.803V179.01H156.15V179.803H154.174ZM158.066 191.178V190.307H158.95C159.253 190.307 159.513 190.268 159.73 190.19C159.947 190.121 160.129 189.995 160.276 189.813C160.423 189.631 160.549 189.38 160.653 189.059L162.967 181.623H163.916L161.498 189.332C161.359 189.774 161.169 190.129 160.926 190.398C160.683 190.675 160.393 190.875 160.055 190.996C159.717 191.117 159.331 191.178 158.898 191.178H158.066ZM160.302 188.331V187.512H161.537V188.331H160.302ZM160.185 188.331L157.689 181.623H158.69L161.095 188.331H160.185Z" fill="black"/>
<rect x="213.5" y="169" width="102" height="31" rx="15.5" fill="#C9F1FE" fill-opacity="0.6"/>
<path d="M243.025 188.721C242.176 188.721 241.448 188.574 240.841 188.279C240.243 187.976 239.753 187.581 239.372 187.096C238.999 186.611 238.726 186.086 238.553 185.523C238.38 184.951 238.293 184.396 238.293 183.859V183.612C238.293 183.031 238.38 182.455 238.553 181.883C238.735 181.302 239.012 180.778 239.385 180.31C239.766 179.842 240.252 179.469 240.841 179.192C241.43 178.906 242.128 178.763 242.934 178.763C243.749 178.763 244.451 178.906 245.04 179.192C245.638 179.478 246.115 179.881 246.47 180.401C246.825 180.912 247.042 181.519 247.12 182.221H246.119C246.05 181.658 245.868 181.19 245.573 180.817C245.278 180.436 244.901 180.15 244.442 179.959C243.991 179.768 243.489 179.673 242.934 179.673C242.336 179.673 241.807 179.781 241.348 179.998C240.897 180.206 240.52 180.501 240.217 180.882C239.914 181.255 239.684 181.688 239.528 182.182C239.372 182.667 239.294 183.187 239.294 183.742C239.294 184.271 239.368 184.778 239.515 185.263C239.671 185.748 239.905 186.186 240.217 186.576C240.529 186.957 240.919 187.261 241.387 187.486C241.855 187.703 242.401 187.811 243.025 187.811C243.892 187.811 244.62 187.594 245.209 187.161C245.798 186.719 246.162 186.086 246.301 185.263H247.302C247.207 185.913 246.981 186.502 246.626 187.031C246.271 187.551 245.79 187.963 245.183 188.266C244.585 188.569 243.866 188.721 243.025 188.721ZM252.163 188.721C251.574 188.721 251.054 188.621 250.603 188.422C250.161 188.214 249.784 187.941 249.472 187.603C249.169 187.256 248.935 186.871 248.77 186.446C248.614 186.021 248.536 185.588 248.536 185.146V184.964C248.536 184.522 248.619 184.089 248.783 183.664C248.948 183.231 249.186 182.845 249.498 182.507C249.81 182.169 250.187 181.9 250.629 181.701C251.08 181.493 251.591 181.389 252.163 181.389C252.744 181.389 253.255 181.493 253.697 181.701C254.148 181.9 254.529 182.169 254.841 182.507C255.153 182.845 255.387 183.231 255.543 183.664C255.708 184.089 255.79 184.522 255.79 184.964V185.146C255.79 185.588 255.712 186.021 255.556 186.446C255.4 186.871 255.166 187.256 254.854 187.603C254.551 187.941 254.174 188.214 253.723 188.422C253.273 188.621 252.753 188.721 252.163 188.721ZM252.163 187.85C252.735 187.85 253.216 187.724 253.606 187.473C254.005 187.213 254.308 186.875 254.516 186.459C254.724 186.034 254.828 185.566 254.828 185.055C254.828 184.535 254.72 184.067 254.503 183.651C254.295 183.226 253.992 182.893 253.593 182.65C253.195 182.399 252.718 182.273 252.163 182.273C251.617 182.273 251.145 182.399 250.746 182.65C250.348 182.893 250.04 183.226 249.823 183.651C249.615 184.067 249.511 184.535 249.511 185.055C249.511 185.566 249.615 186.034 249.823 186.459C250.031 186.875 250.33 187.213 250.72 187.473C251.119 187.724 251.6 187.85 252.163 187.85ZM257.779 188.5V181.623H258.559V184.509H258.403C258.403 183.868 258.498 183.317 258.689 182.858C258.879 182.399 259.165 182.043 259.547 181.792C259.928 181.541 260.409 181.415 260.99 181.415H261.029C261.895 181.415 262.541 181.688 262.966 182.234C263.39 182.771 263.603 183.53 263.603 184.509V188.5H262.641V184.301C262.641 183.703 262.476 183.222 262.147 182.858C261.817 182.494 261.358 182.312 260.769 182.312C260.162 182.312 259.672 182.503 259.3 182.884C258.936 183.257 258.754 183.751 258.754 184.366V188.5H257.779ZM268.93 188.721C268.349 188.721 267.842 188.621 267.409 188.422C266.984 188.214 266.629 187.937 266.343 187.59C266.057 187.235 265.84 186.845 265.693 186.42C265.554 185.995 265.485 185.566 265.485 185.133V184.951C265.485 184.509 265.554 184.08 265.693 183.664C265.84 183.239 266.057 182.858 266.343 182.52C266.629 182.173 266.984 181.9 267.409 181.701C267.842 181.493 268.34 181.389 268.904 181.389C269.476 181.389 269.983 181.493 270.425 181.701C270.875 181.909 271.239 182.204 271.517 182.585C271.794 182.966 271.959 183.417 272.011 183.937H271.075C270.997 183.46 270.771 183.066 270.399 182.754C270.035 182.433 269.536 182.273 268.904 182.273C268.358 182.273 267.903 182.399 267.539 182.65C267.183 182.893 266.915 183.226 266.733 183.651C266.551 184.067 266.46 184.531 266.46 185.042C266.46 185.545 266.551 186.013 266.733 186.446C266.915 186.871 267.188 187.213 267.552 187.473C267.916 187.724 268.375 187.85 268.93 187.85C269.354 187.85 269.723 187.776 270.035 187.629C270.355 187.473 270.611 187.265 270.802 187.005C271.001 186.745 271.118 186.459 271.153 186.147H272.089C272.054 186.667 271.889 187.122 271.595 187.512C271.309 187.893 270.936 188.192 270.477 188.409C270.017 188.617 269.502 188.721 268.93 188.721ZM274.24 188.5V181.623H275.202V188.5H274.24ZM273.135 182.403V181.623H275.202V182.403H273.135ZM274.448 180.349C274.214 180.349 274.037 180.288 273.915 180.167C273.803 180.037 273.746 179.877 273.746 179.686C273.746 179.495 273.803 179.339 273.915 179.218C274.037 179.088 274.214 179.023 274.448 179.023C274.682 179.023 274.856 179.088 274.968 179.218C275.081 179.339 275.137 179.495 275.137 179.686C275.137 179.877 275.081 180.037 274.968 180.167C274.856 180.288 274.682 180.349 274.448 180.349ZM279.932 188.695C279.048 188.695 278.368 188.504 277.891 188.123C277.414 187.733 277.172 187.213 277.163 186.563H278.073C278.09 186.892 278.238 187.191 278.515 187.46C278.801 187.729 279.273 187.863 279.932 187.863C280.547 187.863 281.007 187.737 281.31 187.486C281.622 187.226 281.778 186.914 281.778 186.55C281.778 186.212 281.648 185.952 281.388 185.77C281.137 185.579 280.768 185.458 280.283 185.406L279.503 185.328C278.879 185.259 278.372 185.068 277.982 184.756C277.601 184.435 277.41 183.998 277.41 183.443C277.41 183.036 277.514 182.68 277.722 182.377C277.93 182.074 278.22 181.84 278.593 181.675C278.974 181.502 279.421 181.415 279.932 181.415C280.669 181.415 281.267 181.588 281.726 181.935C282.194 182.282 282.432 182.776 282.441 183.417H281.531C281.522 183.088 281.384 182.81 281.115 182.585C280.846 182.36 280.452 182.247 279.932 182.247C279.395 182.247 278.992 182.364 278.723 182.598C278.463 182.832 278.333 183.118 278.333 183.456C278.333 183.742 278.433 183.98 278.632 184.171C278.831 184.353 279.143 184.466 279.568 184.509L280.348 184.587C281.041 184.665 281.605 184.864 282.038 185.185C282.48 185.506 282.701 185.965 282.701 186.563C282.701 186.97 282.584 187.339 282.35 187.668C282.125 187.989 281.804 188.24 281.388 188.422C280.972 188.604 280.487 188.695 279.932 188.695ZM287.515 188.721C286.926 188.721 286.414 188.621 285.981 188.422C285.548 188.214 285.192 187.941 284.915 187.603C284.638 187.256 284.43 186.871 284.291 186.446C284.161 186.021 284.096 185.584 284.096 185.133V184.951C284.096 184.509 284.161 184.076 284.291 183.651C284.43 183.226 284.638 182.845 284.915 182.507C285.192 182.169 285.539 181.9 285.955 181.701C286.38 181.493 286.874 181.389 287.437 181.389C288.156 181.389 288.754 181.549 289.231 181.87C289.716 182.191 290.08 182.602 290.323 183.105C290.566 183.599 290.687 184.132 290.687 184.704V185.211H284.538V184.457H290.011L289.764 184.834C289.764 184.323 289.673 183.876 289.491 183.495C289.318 183.105 289.058 182.802 288.711 182.585C288.373 182.36 287.948 182.247 287.437 182.247C286.9 182.247 286.453 182.373 286.098 182.624C285.743 182.875 285.474 183.209 285.292 183.625C285.119 184.041 285.032 184.513 285.032 185.042C285.032 185.562 285.119 186.039 285.292 186.472C285.474 186.897 285.747 187.235 286.111 187.486C286.484 187.737 286.952 187.863 287.515 187.863C288.113 187.863 288.598 187.729 288.971 187.46C289.344 187.183 289.573 186.858 289.66 186.485H290.57C290.483 186.944 290.301 187.343 290.024 187.681C289.747 188.01 289.396 188.266 288.971 188.448C288.546 188.63 288.061 188.721 287.515 188.721Z" fill="black"/>
<rect x="340.5" y="169" width="104" height="31" rx="15.5" fill="#C9F1FE" fill-opacity="0.6"/>
<path d="M366.71 188.552V187.642H369.297C369.938 187.642 370.497 187.538 370.974 187.33C371.459 187.122 371.867 186.84 372.196 186.485C372.525 186.121 372.772 185.705 372.937 185.237C373.102 184.769 373.184 184.271 373.184 183.742C373.184 183.196 373.097 182.689 372.924 182.221C372.759 181.753 372.512 181.341 372.183 180.986C371.854 180.631 371.446 180.358 370.961 180.167C370.484 179.976 369.93 179.881 369.297 179.881H366.71V178.971H369.193C370.042 178.971 370.779 179.101 371.403 179.361C372.027 179.621 372.547 179.976 372.963 180.427C373.379 180.869 373.687 181.367 373.886 181.922C374.085 182.477 374.185 183.04 374.185 183.612V183.859C374.185 184.422 374.085 184.981 373.886 185.536C373.687 186.091 373.383 186.598 372.976 187.057C372.569 187.508 372.049 187.872 371.416 188.149C370.792 188.418 370.051 188.552 369.193 188.552H366.71ZM365.982 188.552V178.971H366.97V188.552H365.982ZM378.968 188.721C378.379 188.721 377.867 188.621 377.434 188.422C377.001 188.214 376.645 187.941 376.368 187.603C376.091 187.256 375.883 186.871 375.744 186.446C375.614 186.021 375.549 185.584 375.549 185.133V184.951C375.549 184.509 375.614 184.076 375.744 183.651C375.883 183.226 376.091 182.845 376.368 182.507C376.645 182.169 376.992 181.9 377.408 181.701C377.833 181.493 378.327 181.389 378.89 181.389C379.609 181.389 380.207 181.549 380.684 181.87C381.169 182.191 381.533 182.602 381.776 183.105C382.019 183.599 382.14 184.132 382.14 184.704V185.211H375.991V184.457H381.464L381.217 184.834C381.217 184.323 381.126 183.876 380.944 183.495C380.771 183.105 380.511 182.802 380.164 182.585C379.826 182.36 379.401 182.247 378.89 182.247C378.353 182.247 377.906 182.373 377.551 182.624C377.196 182.875 376.927 183.209 376.745 183.625C376.572 184.041 376.485 184.513 376.485 185.042C376.485 185.562 376.572 186.039 376.745 186.472C376.927 186.897 377.2 187.235 377.564 187.486C377.937 187.737 378.405 187.863 378.968 187.863C379.566 187.863 380.051 187.729 380.424 187.46C380.797 187.183 381.026 186.858 381.113 186.485H382.023C381.936 186.944 381.754 187.343 381.477 187.681C381.2 188.01 380.849 188.266 380.424 188.448C379.999 188.63 379.514 188.721 378.968 188.721ZM386.513 188.578C386.036 188.578 385.625 188.509 385.278 188.37C384.931 188.231 384.663 187.997 384.472 187.668C384.281 187.33 384.186 186.879 384.186 186.316V179.452H385.122V186.459C385.122 186.858 385.23 187.165 385.447 187.382C385.664 187.59 385.971 187.694 386.37 187.694H387.605V188.578H386.513ZM382.951 182.364V181.623H387.605V182.364H382.951ZM393.649 188.5V186.433H393.493V183.989C393.493 183.478 393.359 183.088 393.09 182.819C392.821 182.542 392.405 182.403 391.842 182.403C391.582 182.403 391.318 182.407 391.049 182.416C390.789 182.425 390.538 182.438 390.295 182.455C390.061 182.464 389.853 182.477 389.671 182.494V181.636C389.862 181.619 390.057 181.601 390.256 181.584C390.455 181.567 390.659 181.558 390.867 181.558C391.084 181.549 391.292 181.545 391.491 181.545C392.193 181.545 392.756 181.632 393.181 181.805C393.614 181.978 393.931 182.251 394.13 182.624C394.329 182.988 394.429 183.473 394.429 184.08V188.5H393.649ZM391.322 188.682C390.837 188.682 390.408 188.595 390.035 188.422C389.662 188.249 389.372 187.997 389.164 187.668C388.965 187.339 388.865 186.94 388.865 186.472C388.865 186.013 388.969 185.623 389.177 185.302C389.394 184.981 389.701 184.739 390.1 184.574C390.507 184.401 390.997 184.314 391.569 184.314H393.584V185.055H391.504C390.958 185.055 390.538 185.189 390.243 185.458C389.957 185.718 389.814 186.06 389.814 186.485C389.814 186.918 389.966 187.265 390.269 187.525C390.572 187.776 390.984 187.902 391.504 187.902C391.825 187.902 392.132 187.846 392.427 187.733C392.722 187.612 392.969 187.412 393.168 187.135C393.367 186.849 393.476 186.459 393.493 185.965L393.779 186.368C393.744 186.879 393.623 187.308 393.415 187.655C393.207 187.993 392.925 188.249 392.57 188.422C392.215 188.595 391.799 188.682 391.322 188.682ZM397.229 188.5V181.623H398.191V188.5H397.229ZM396.124 182.403V181.623H398.191V182.403H396.124ZM397.437 180.349C397.203 180.349 397.025 180.288 396.904 180.167C396.791 180.037 396.735 179.877 396.735 179.686C396.735 179.495 396.791 179.339 396.904 179.218C397.025 179.088 397.203 179.023 397.437 179.023C397.671 179.023 397.844 179.088 397.957 179.218C398.069 179.339 398.126 179.495 398.126 179.686C398.126 179.877 398.069 180.037 397.957 180.167C397.844 180.288 397.671 180.349 397.437 180.349ZM400.814 188.5V179.01H401.789V188.5H400.814ZM399.813 179.803V179.01H401.789V179.803H399.813ZM407.19 188.721C406.6 188.721 406.089 188.621 405.656 188.422C405.222 188.214 404.867 187.941 404.59 187.603C404.312 187.256 404.104 186.871 403.966 186.446C403.836 186.021 403.771 185.584 403.771 185.133V184.951C403.771 184.509 403.836 184.076 403.966 183.651C404.104 183.226 404.312 182.845 404.59 182.507C404.867 182.169 405.214 181.9 405.63 181.701C406.054 181.493 406.548 181.389 407.112 181.389C407.831 181.389 408.429 181.549 408.906 181.87C409.391 182.191 409.755 182.602 409.998 183.105C410.24 183.599 410.362 184.132 410.362 184.704V185.211H404.213V184.457H409.686L409.439 184.834C409.439 184.323 409.348 183.876 409.166 183.495C408.992 183.105 408.732 182.802 408.386 182.585C408.048 182.36 407.623 182.247 407.112 182.247C406.574 182.247 406.128 182.373 405.773 182.624C405.417 182.875 405.149 183.209 404.967 183.625C404.793 184.041 404.707 184.513 404.707 185.042C404.707 185.562 404.793 186.039 404.967 186.472C405.149 186.897 405.422 187.235 405.786 187.486C406.158 187.737 406.626 187.863 407.19 187.863C407.788 187.863 408.273 187.729 408.646 187.46C409.018 187.183 409.248 186.858 409.335 186.485H410.245C410.158 186.944 409.976 187.343 409.699 187.681C409.421 188.01 409.07 188.266 408.646 188.448C408.221 188.63 407.736 188.721 407.19 188.721ZM415.06 188.721C414.557 188.721 414.098 188.63 413.682 188.448C413.274 188.257 412.919 187.997 412.616 187.668C412.321 187.33 412.091 186.949 411.927 186.524C411.771 186.091 411.693 185.631 411.693 185.146V184.964C411.693 184.496 411.771 184.05 411.927 183.625C412.083 183.192 412.304 182.81 412.59 182.481C412.884 182.143 413.235 181.879 413.643 181.688C414.059 181.489 414.522 181.389 415.034 181.389C415.614 181.389 416.126 181.515 416.568 181.766C417.01 182.017 417.365 182.381 417.634 182.858C417.902 183.326 418.045 183.902 418.063 184.587L417.634 183.781V179.01H418.609V188.5H417.829V185.445H418.141C418.123 186.164 417.972 186.771 417.686 187.265C417.408 187.75 417.04 188.114 416.581 188.357C416.13 188.6 415.623 188.721 415.06 188.721ZM415.19 187.863C415.658 187.863 416.078 187.759 416.451 187.551C416.832 187.343 417.131 187.048 417.348 186.667C417.564 186.277 417.673 185.831 417.673 185.328V184.704C417.673 184.219 417.564 183.794 417.348 183.43C417.131 183.057 416.832 182.767 416.451 182.559C416.078 182.351 415.653 182.247 415.177 182.247C414.665 182.247 414.219 182.373 413.838 182.624C413.465 182.867 413.175 183.2 412.967 183.625C412.767 184.05 412.668 184.526 412.668 185.055C412.668 185.601 412.772 186.086 412.98 186.511C413.188 186.936 413.482 187.269 413.864 187.512C414.245 187.746 414.687 187.863 415.19 187.863Z" fill="black"/>
<defs>
<filter id="filter0_d_507_1024" x="19" y="23" width="496" height="229" filterUnits="userSpaceOnUse" color-interpolation-filters="sRGB">
<feFlood flood-opacity="0" result="BackgroundImageFix"/>
<feColorMatrix in="SourceAlpha" type="matrix" values="0 0 0 0 0 0 0 0 0 0 0 0 0 0 0 0 0 0 127 0" result="hardAlpha"/>
<feOffset dy="4"/>
<feGaussianBlur stdDeviation="8"/>
<feComposite in2="hardAlpha" operator="out"/>
<feColorMatrix type="matrix" values="0 0 0 0 0.6875 0 0 0 0 0.6875 0 0 0 0 0.6875 0 0 0 0.25 0"/>
<feBlend mode="normal" in2="BackgroundImageFix" result="effect1_dropShadow_507_1024"/>
<feBlend mode="normal" in="SourceGraphic" in2="effect1_dropShadow_507_1024" result="shape"/>
</filter>
</defs>
</svg>
